if (_typeface_js && _typeface_js.loadFace) _typeface_js.loadFace({"glyphs":{"ǻ":{"x_min":54.265625,"x_max":813.875,"ha":868,"o":"m 434 651 q 242 571 321 651 q 162 379 162 492 q 242 187 162 267 q 434 108 321 108 q 626 187 546 108 q 705 379 705 267 q 626 571 705 492 q 434 651 546 651 m 705 113 q 434 0 591 0 q 165 111 276 0 q 54 379 54 222 q 165 648 54 537 q 434 759 276 759 q 702 648 591 759 q 813 379 813 537 l 813 54 q 797 15 813 31 q 759 0 781 0 q 721 15 737 0 q 705 54 705 31 l 705 113 m 571 948 q 531 851 571 891 q 434 811 491 811 q 337 851 377 811 q 297 948 297 891 q 337 1045 297 1005 q 434 1085 377 1085 q 531 1045 491 1085 q 571 948 571 1005 m 434 1016 q 386 996 406 1016 q 366 948 366 976 q 386 900 366 920 q 434 880 406 880 q 482 900 462 880 q 502 948 502 920 q 482 996 502 976 q 434 1016 462 1016 m 581 1277 l 417 1112 q 379 1098 401 1098 q 341 1113 357 1098 q 325 1152 325 1129 q 339 1188 325 1173 l 503 1353 q 542 1369 520 1369 q 580 1353 564 1369 q 596 1315 596 1337 q 581 1277 596 1293 "},"Á":{"x_min":54.265625,"x_max":922.390625,"ha":977,"o":"m 293 379 l 158 33 q 147 15 154 23 q 108 0 130 0 q 70 15 86 0 q 54 54 54 31 q 59 77 54 67 l 436 1047 q 450 1069 440 1059 q 488 1085 465 1085 q 526 1069 510 1085 q 540 1047 536 1059 l 917 77 q 922 54 922 67 q 906 15 922 31 q 868 0 890 0 q 830 15 845 0 q 817 33 822 23 l 682 379 l 293 379 m 640 488 l 488 881 l 335 488 l 640 488 m 654 1318 l 489 1153 q 452 1139 474 1139 q 414 1155 430 1139 q 398 1193 398 1171 q 411 1230 398 1214 l 576 1395 q 615 1410 592 1410 q 653 1394 637 1410 q 669 1356 669 1378 q 654 1318 669 1334 "},"ĥ":{"x_min":54.265625,"x_max":759.609375,"ha":814,"o":"m 54 1030 q 70 1069 54 1053 q 108 1085 86 1085 q 146 1069 130 1085 q 162 1030 162 1053 l 162 661 q 406 759 264 759 q 656 656 552 759 q 759 406 759 552 l 759 54 q 743 15 759 31 q 705 0 727 0 q 667 15 682 0 q 651 54 651 31 l 651 406 q 579 579 651 507 q 406 651 507 651 q 234 579 305 651 q 162 406 162 507 l 162 54 q 146 15 162 31 q 108 0 130 0 q 70 15 86 0 q 54 54 54 31 l 54 1030 m 434 1376 l 596 1268 q 623 1220 623 1247 q 608 1182 623 1198 q 569 1166 592 1166 q 535 1178 550 1166 l 406 1263 l 278 1178 q 244 1166 263 1166 q 205 1182 221 1166 q 189 1220 189 1198 q 217 1268 189 1247 l 379 1376 q 406 1383 391 1383 q 434 1376 422 1383 "},"Κ":{"x_min":54.265625,"x_max":759.609375,"ha":814,"o":"m 54 1030 q 70 1069 54 1053 q 108 1085 86 1085 q 146 1069 130 1085 q 162 1030 162 1053 l 162 565 l 665 1068 q 705 1085 682 1085 q 743 1069 727 1085 q 759 1030 759 1053 q 744 992 759 1008 l 362 611 l 749 86 q 759 56 759 72 q 737 10 759 27 q 706 0 722 0 q 660 23 676 0 l 284 533 l 162 411 l 162 54 q 146 15 162 31 q 108 0 130 0 q 70 15 86 0 q 54 54 54 31 l 54 1030 "},"»":{"x_min":54.265625,"x_max":596.84375,"ha":651,"o":"m 596 379 q 588 349 596 364 l 430 33 q 417 16 425 23 q 379 0 402 0 q 341 15 357 0 q 325 54 325 31 q 330 77 325 66 l 481 379 l 330 681 q 325 704 325 692 q 341 743 325 727 q 379 758 357 758 q 417 743 402 758 q 430 725 425 735 l 590 405 q 596 379 596 392 m 325 379 q 317 349 325 364 l 158 33 q 146 16 154 23 q 108 0 130 0 q 70 15 86 0 q 54 54 54 31 q 59 77 54 66 l 210 379 l 59 681 q 54 704 54 692 q 70 743 54 727 q 108 758 86 758 q 146 743 130 758 q 158 725 154 735 l 318 405 q 325 379 325 392 "},"∆":{"x_min":54.265625,"x_max":922.390625,"ha":977,"o":"m 108 0 q 70 15 86 0 q 54 54 54 31 q 61 84 54 69 l 438 1051 q 450 1068 442 1061 q 488 1085 465 1085 q 526 1068 510 1085 q 537 1051 533 1061 l 915 84 q 922 54 922 69 q 906 15 922 31 q 868 0 890 0 l 108 0 m 788 108 l 488 881 l 187 108 l 788 108 "},"ў":{"x_min":54.265625,"x_max":705.359375,"ha":760,"o":"m 320 54 l 60 680 q 54 705 54 691 q 70 743 54 727 q 108 759 86 759 q 147 744 130 759 q 160 723 155 734 l 379 196 l 599 723 q 613 744 603 734 q 651 759 628 759 q 689 743 673 759 q 705 705 705 727 q 699 680 705 691 l 295 -289 q 282 -309 290 -300 q 243 -325 265 -325 q 205 -309 221 -325 q 189 -271 189 -293 q 195 -246 189 -257 l 320 54 m 166 1003 q 182 1042 166 1026 q 221 1058 198 1058 q 259 1042 243 1058 q 275 1003 275 1026 q 307 965 275 981 q 383 949 339 949 q 460 965 428 949 q 493 1003 493 981 q 509 1042 493 1026 q 547 1058 524 1058 q 585 1042 569 1058 q 601 1003 601 1026 q 537 889 598 932 q 383 841 474 841 q 230 888 293 841 q 166 1003 166 936 "},"ţ":{"x_min":54.265625,"x_max":488.328125,"ha":543,"o":"m 434 108 q 472 92 456 108 q 488 54 488 76 q 472 15 488 31 q 434 0 456 0 q 162 271 162 0 l 162 651 l 108 651 q 70 667 86 651 q 54 705 54 682 q 70 743 54 727 q 108 759 86 759 l 162 759 l 162 1030 q 178 1069 162 1053 q 217 1085 194 1085 q 255 1069 239 1085 q 271 1030 271 1053 l 271 759 l 380 759 q 418 743 402 759 q 434 705 434 727 q 418 667 434 682 q 380 651 402 651 l 271 651 l 271 271 q 434 108 271 108 m 314 52 q 352 67 330 67 q 391 51 375 67 q 406 13 406 35 q 405 0 406 6 l 394 -40 q 440 -67 419 -50 q 488 -169 488 -109 q 440 -270 488 -229 q 325 -311 392 -311 q 248 -292 285 -311 l 186 -255 q 162 -210 162 -236 q 178 -171 162 -187 q 217 -156 194 -156 q 246 -164 233 -156 l 299 -196 q 325 -203 311 -203 q 363 -194 347 -203 q 379 -169 379 -185 q 363 -144 379 -153 q 325 -135 347 -135 q 287 -119 303 -135 q 271 -81 271 -103 q 274 -63 271 -71 l 300 29 q 314 52 304 42 "},"«":{"x_min":54.265625,"x_max":596.84375,"ha":651,"o":"m 61 405 l 221 725 q 233 743 225 735 q 271 758 248 758 q 309 743 293 758 q 325 704 325 727 q 320 681 325 692 l 169 379 l 320 77 q 325 54 325 66 q 309 15 325 31 q 271 0 293 0 q 233 16 248 0 q 221 33 225 23 l 62 349 q 54 379 54 364 q 61 405 54 392 m 332 405 l 492 725 q 504 743 496 735 q 542 758 520 758 q 580 743 564 758 q 596 704 596 727 q 592 681 596 692 l 440 379 l 592 77 q 596 54 596 66 q 580 15 596 31 q 542 0 564 0 q 504 16 520 0 q 492 33 496 23 l 333 349 q 325 379 325 364 q 332 405 325 392 "},"í":{"x_min":55.625,"x_max":326.90625,"ha":326,"o":"m 108 705 q 124 743 108 727 q 162 759 140 759 q 201 743 185 759 q 217 705 217 727 l 217 54 q 201 15 217 31 q 162 0 185 0 q 124 15 140 0 q 108 54 108 31 l 108 705 m 311 992 l 147 828 q 109 813 131 813 q 71 829 87 813 q 55 868 55 845 q 69 904 55 889 l 233 1069 q 272 1085 250 1085 q 310 1069 295 1085 q 326 1030 326 1053 q 311 992 326 1009 "},"ң":{"x_min":54.265625,"x_max":786.734375,"ha":814,"o":"m 623 0 q 585 15 601 0 q 569 54 569 31 l 569 325 l 162 325 l 162 54 q 146 15 162 31 q 108 0 130 0 q 70 15 86 0 q 54 54 54 31 l 54 705 q 70 743 54 727 q 108 759 86 759 q 146 743 130 759 q 162 705 162 727 l 162 434 l 569 434 l 569 705 q 585 743 569 727 q 623 759 601 759 q 662 743 646 759 q 678 705 678 727 l 678 108 l 732 108 q 770 92 754 108 q 786 54 786 76 q 735 -180 786 -73 q 722 -200 731 -191 q 683 -217 706 -217 q 645 -201 661 -217 q 629 -162 629 -185 q 635 -137 629 -148 q 674 0 664 -83 l 623 0 "},"ņ":{"x_min":54.265625,"x_max":759.609375,"ha":814,"o":"m 54 705 q 70 743 54 727 q 108 759 86 759 q 146 743 130 759 q 162 705 162 727 l 162 661 q 406 759 264 759 q 656 656 552 759 q 759 406 759 552 l 759 54 q 743 15 759 31 q 705 0 727 0 q 667 15 682 0 q 651 54 651 31 l 651 406 q 579 579 651 507 q 406 651 507 651 q 234 579 305 651 q 162 406 162 507 l 162 54 q 146 15 162 31 q 108 0 130 0 q 70 15 86 0 q 54 54 54 31 l 54 705 m 524 -57 q 571 -155 571 -95 q 523 -257 571 -216 q 408 -298 475 -298 q 330 -278 368 -298 l 269 -242 q 245 -196 245 -222 q 261 -158 245 -174 q 299 -142 277 -142 q 328 -150 316 -142 l 381 -183 q 408 -189 394 -189 q 446 -180 430 -189 q 462 -155 462 -171 q 446 -131 462 -140 q 408 -122 430 -122 q 369 -106 385 -122 q 354 -67 354 -90 q 366 -41 354 -54 q 432 -24 386 -24 q 524 -57 482 -27 "},"µ":{"x_min":54.265625,"x_max":759.609375,"ha":814,"o":"m 162 352 q 234 180 162 251 q 406 108 305 108 q 579 180 507 108 q 651 352 651 251 l 651 705 q 667 743 651 727 q 705 759 682 759 q 743 743 727 759 q 759 705 759 727 l 759 54 q 743 15 759 31 q 705 0 727 0 q 667 15 682 0 q 651 54 651 31 l 651 98 q 406 0 549 0 q 162 98 264 0 l 162 -271 q 146 -309 162 -293 q 108 -325 130 -325 q 70 -309 86 -325 q 54 -271 54 -293 l 54 705 q 70 743 54 727 q 108 759 86 759 q 146 743 130 759 q 162 705 162 727 l 162 352 "},"ỳ":{"x_min":54.265625,"x_max":705.359375,"ha":760,"o":"m 320 54 l 60 680 q 54 705 54 691 q 70 743 54 727 q 108 759 86 759 q 147 744 130 759 q 160 723 155 734 l 379 196 l 599 723 q 613 744 603 734 q 651 759 628 759 q 689 743 673 759 q 705 705 705 727 q 699 680 705 691 l 295 -289 q 282 -309 290 -300 q 243 -325 265 -325 q 205 -309 221 -325 q 189 -271 189 -293 q 195 -246 189 -257 l 320 54 m 198 1030 q 214 1069 198 1053 q 252 1085 230 1085 q 291 1069 275 1085 l 456 904 q 470 868 470 889 q 454 829 470 845 q 415 813 438 813 q 378 828 394 813 l 213 992 q 198 1030 198 1009 "},"қ":{"x_min":54.265625,"x_max":651.09375,"ha":705,"o":"m 541 30 l 214 310 l 162 266 l 162 54 q 146 15 162 31 q 108 0 130 0 q 70 15 86 0 q 54 54 54 31 l 54 705 q 70 743 54 727 q 108 759 86 759 q 146 743 130 759 q 162 705 162 727 l 162 408 l 560 746 q 596 759 575 759 q 635 743 619 759 q 651 705 651 727 q 635 667 651 682 l 298 381 l 635 92 q 651 54 651 76 q 599 -180 651 -73 q 586 -200 595 -191 q 548 -217 570 -217 q 509 -201 525 -217 q 493 -162 493 -185 q 499 -137 493 -148 q 541 30 533 -73 "},"Ι":{"x_min":108.515625,"x_max":217.03125,"ha":326,"o":"m 108 1030 q 124 1069 108 1053 q 162 1085 140 1085 q 201 1069 185 1085 q 217 1030 217 1053 l 217 54 q 201 15 217 31 q 162 0 185 0 q 124 15 140 0 q 108 54 108 31 l 108 1030 "},"Ύ":{"x_min":-27.125,"x_max":1058.03125,"ha":1112,"o":"m 229 992 l 64 828 q 27 813 48 813 q -11 829 4 813 q -27 868 -27 845 q -13 904 -27 889 l 151 1069 q 189 1085 167 1085 q 228 1069 212 1085 q 244 1030 244 1053 q 229 992 244 1009 m 732 54 q 716 15 732 31 q 678 0 700 0 q 639 15 655 0 q 623 54 623 31 l 623 526 l 307 1000 q 298 1030 298 1013 q 314 1069 298 1053 q 352 1085 330 1085 q 396 1062 380 1085 l 678 640 l 959 1062 q 1003 1085 975 1085 q 1042 1069 1026 1085 q 1058 1030 1058 1053 q 1049 1000 1058 1013 l 732 526 l 732 54 "},"ѕ":{"x_min":54.265625,"x_max":664.65625,"ha":719,"o":"m 188 379 q 102 427 126 402 q 54 542 54 475 q 104 659 54 609 q 359 759 202 759 q 651 623 529 759 q 661 591 661 610 q 645 553 661 569 q 607 537 629 537 q 571 551 584 537 q 551 571 557 565 q 359 651 472 651 q 179 580 246 651 q 163 533 163 560 q 196 490 165 501 l 530 379 q 616 331 592 356 q 664 217 664 284 q 614 99 664 149 q 359 0 516 0 q 67 136 188 0 q 57 168 57 150 q 73 206 57 190 q 111 222 89 222 q 147 208 134 222 q 167 187 161 193 q 359 108 246 108 q 539 179 472 108 q 555 225 555 198 q 522 269 553 257 l 188 379 "},"Ш":{"x_min":54.265625,"x_max":1030.90625,"ha":1085,"o":"m 54 1030 q 70 1069 54 1053 q 108 1085 86 1085 q 146 1069 130 1085 q 162 1030 162 1053 l 162 108 l 488 108 l 488 1030 q 504 1069 488 1053 q 542 1085 520 1085 q 580 1069 564 1085 q 596 1030 596 1053 l 596 108 l 922 108 l 922 1030 q 938 1069 922 1053 q 976 1085 954 1085 q 1014 1069 999 1085 q 1030 1030 1030 1053 l 1030 54 q 1014 15 1030 31 q 976 0 999 0 l 108 0 q 70 15 86 0 q 54 54 54 31 l 54 1030 "},"M":{"x_min":54.265625,"x_max":1139.421875,"ha":1194,"o":"m 546 33 l 162 800 l 162 54 q 146 15 162 31 q 108 0 130 0 q 70 15 86 0 q 54 54 54 31 l 54 1030 q 70 1069 54 1053 q 108 1085 86 1085 q 156 1056 141 1085 l 596 175 l 1037 1056 q 1085 1085 1052 1085 q 1123 1069 1107 1085 q 1139 1030 1139 1053 l 1139 54 q 1123 15 1139 31 q 1085 0 1107 0 q 1046 15 1062 0 q 1030 54 1030 31 l 1030 800 l 643 26 q 596 0 629 0 q 546 33 562 0 "},"Ψ":{"x_min":54.265625,"x_max":922.390625,"ha":977,"o":"m 54 1030 q 70 1069 54 1053 q 108 1085 86 1085 q 146 1069 130 1085 q 162 1030 162 1053 l 162 759 q 258 529 162 624 q 434 438 333 453 l 434 1030 q 450 1069 434 1053 q 488 1085 465 1085 q 526 1069 510 1085 q 542 1030 542 1053 l 542 438 q 718 529 642 453 q 813 759 813 624 l 813 1030 q 829 1069 813 1053 q 868 1085 845 1085 q 906 1069 890 1085 q 922 1030 922 1053 l 922 759 q 795 453 922 579 q 542 328 687 345 l 542 54 q 526 15 542 31 q 488 0 510 0 q 450 15 465 0 q 434 54 434 31 l 434 328 q 181 453 288 345 q 54 759 54 579 l 54 1030 "},"ũ":{"x_min":54.265625,"x_max":759.609375,"ha":814,"o":"m 759 54 q 743 15 759 31 q 705 0 727 0 q 667 15 682 0 q 651 54 651 31 l 651 98 q 406 0 549 0 q 157 103 261 0 q 54 352 54 206 l 54 705 q 70 743 54 727 q 108 759 86 759 q 146 743 130 759 q 162 705 162 727 l 162 352 q 234 180 162 251 q 406 108 305 108 q 579 180 507 108 q 651 352 651 251 l 651 705 q 667 743 651 727 q 705 759 682 759 q 743 743 727 759 q 759 705 759 727 l 759 54 m 444 895 q 301 841 383 841 q 147 905 210 841 q 132 943 132 921 q 148 981 132 965 q 186 997 164 997 q 224 982 208 997 q 301 950 256 950 q 368 973 339 950 q 512 1028 429 1028 q 666 964 602 1028 q 681 926 681 948 q 665 888 681 904 q 627 872 649 872 q 589 887 605 872 q 512 919 557 919 q 444 895 474 919 "},"ŭ":{"x_min":54.265625,"x_max":759.609375,"ha":814,"o":"m 759 54 q 743 15 759 31 q 705 0 727 0 q 667 15 682 0 q 651 54 651 31 l 651 98 q 406 0 549 0 q 157 103 261 0 q 54 352 54 206 l 54 705 q 70 743 54 727 q 108 759 86 759 q 146 743 130 759 q 162 705 162 727 l 162 352 q 234 180 162 251 q 406 108 305 108 q 579 180 507 108 q 651 352 651 251 l 651 705 q 667 743 651 727 q 705 759 682 759 q 743 743 727 759 q 759 705 759 727 l 759 54 m 193 1003 q 209 1042 193 1026 q 248 1058 225 1058 q 286 1042 270 1058 q 302 1003 302 1026 q 334 965 302 981 q 411 949 366 949 q 487 965 455 949 q 520 1003 520 981 q 536 1042 520 1026 q 574 1058 552 1058 q 612 1042 596 1058 q 628 1003 628 1026 q 564 889 625 932 q 411 841 501 841 q 257 888 320 841 q 193 1003 193 936 "},"―":{"x_min":-54.265625,"x_max":1030.90625,"ha":977,"o":"m 0 325 q -38 341 -22 325 q -54 379 -54 357 q -38 418 -54 402 q 0 434 -22 434 l 976 434 q 1014 418 999 434 q 1030 379 1030 402 q 1014 341 1030 357 q 976 325 999 325 l 0 325 "},"{":{"x_min":54.265625,"x_max":488.328125,"ha":543,"o":"m 434 1085 q 472 1069 456 1085 q 488 1030 488 1053 q 472 992 488 1008 q 434 976 456 976 q 325 868 325 976 l 325 542 q 271 379 325 434 q 325 217 325 325 l 325 -108 q 434 -217 325 -217 q 472 -232 456 -217 q 488 -271 488 -248 q 472 -309 488 -293 q 434 -325 456 -325 q 217 -108 217 -325 l 217 217 q 108 325 217 325 q 70 341 86 325 q 54 379 54 357 q 70 418 54 402 q 108 434 86 434 q 217 542 217 434 l 217 868 q 434 1085 217 1085 "},"¼":{"x_min":54.265625,"x_max":922.390625,"ha":977,"o":"m 813 1085 q 852 1069 836 1085 q 868 1030 868 1053 q 859 1001 868 1014 l 210 27 q 162 0 191 0 q 124 15 140 0 q 108 54 108 31 q 116 83 108 70 l 770 1064 q 813 1085 784 1085 m 217 466 q 207 443 217 453 q 184 434 198 434 q 161 443 170 434 q 151 466 151 453 l 151 1007 l 99 990 q 86 988 93 988 q 63 997 73 988 q 54 1020 54 1007 q 63 1043 54 1034 q 75 1051 69 1048 l 172 1083 q 184 1085 178 1085 q 207 1076 198 1085 q 217 1053 217 1066 l 217 466 m 759 227 l 759 514 l 561 227 l 759 227 m 499 162 q 476 172 485 162 q 466 195 466 181 q 472 214 466 206 l 765 637 q 769 641 767 639 q 792 651 778 651 q 815 641 805 651 q 824 618 824 632 l 824 227 l 889 227 q 912 218 903 227 q 922 195 922 208 q 912 172 922 181 q 889 162 903 162 l 824 162 l 824 32 q 815 9 824 18 q 792 0 805 0 q 769 9 778 0 q 759 32 759 18 l 759 162 l 499 162 "},"ι":{"x_min":108.515625,"x_max":217.03125,"ha":326,"o":"m 108 705 q 124 743 108 727 q 162 759 140 759 q 201 743 185 759 q 217 705 217 727 l 217 54 q 201 15 217 31 q 162 0 185 0 q 124 15 140 0 q 108 54 108 31 l 108 705 "},"Ĳ":{"x_min":108.515625,"x_max":976.65625,"ha":1031,"o":"m 108 1030 q 124 1069 108 1053 q 162 1085 140 1085 q 201 1069 185 1085 q 217 1030 217 1053 l 217 54 q 201 15 217 31 q 162 0 185 0 q 124 15 140 0 q 108 54 108 31 l 108 1030 m 325 325 q 341 363 325 347 q 379 379 357 379 q 418 363 402 379 q 434 325 434 347 q 497 171 434 235 q 651 108 560 108 q 804 171 741 108 q 868 325 868 235 l 868 1030 q 884 1069 868 1053 q 922 1085 900 1085 q 960 1069 944 1085 q 976 1030 976 1053 l 976 325 q 881 95 976 190 q 651 0 786 0 q 420 95 516 0 q 325 325 325 190 "},"Ê":{"x_min":54.9375,"x_max":814.546875,"ha":868,"o":"m 109 1085 l 760 1085 q 798 1069 782 1085 q 814 1030 814 1053 q 798 992 814 1008 q 760 976 782 976 l 163 976 l 163 596 l 597 596 q 635 580 619 596 q 651 542 651 564 q 635 504 651 520 q 597 488 619 488 l 163 488 l 163 108 l 760 108 q 798 92 782 108 q 814 54 814 76 q 798 15 814 31 q 760 0 782 0 l 109 0 q 70 15 86 0 q 54 54 54 31 l 54 1030 q 70 1069 54 1053 q 109 1085 86 1085 m 461 1376 l 623 1268 q 651 1220 651 1247 q 635 1182 651 1198 q 596 1166 619 1166 q 562 1178 577 1166 l 434 1263 l 305 1178 q 271 1166 290 1166 q 232 1182 248 1166 q 217 1220 217 1198 q 244 1268 217 1247 l 406 1376 q 434 1383 418 1383 q 461 1376 449 1383 "},"Ά":{"x_min":54.265625,"x_max":922.390625,"ha":977,"o":"m 364 992 l 200 828 q 162 813 184 813 q 124 829 140 813 q 108 868 108 845 q 122 904 108 889 l 286 1069 q 325 1085 303 1085 q 363 1069 347 1085 q 379 1030 379 1053 q 364 992 379 1009 m 293 379 l 158 33 q 147 15 154 23 q 108 0 130 0 q 70 15 86 0 q 54 54 54 31 q 59 77 54 67 l 436 1047 q 450 1069 440 1059 q 488 1085 465 1085 q 526 1069 510 1085 q 540 1047 536 1059 l 917 77 q 922 54 922 67 q 906 15 922 31 q 868 0 890 0 q 830 15 845 0 q 817 33 822 23 l 682 379 l 293 379 m 640 488 l 488 881 l 335 488 l 640 488 "},")":{"x_min":54.265625,"x_max":325.546875,"ha":380,"o":"m 160 1049 q 325 381 325 715 q 160 -288 325 46 q 147 -309 154 -299 q 108 -325 130 -325 q 70 -309 86 -325 q 54 -271 54 -293 q 61 -243 54 -255 q 217 380 217 68 q 63 1001 217 691 q 54 1030 55 1014 q 70 1069 54 1053 q 108 1085 86 1085 q 147 1069 130 1085 q 160 1049 155 1060 "},"ε":{"x_min":54.265625,"x_max":556.828125,"ha":597,"o":"m 271 759 q 539 648 428 759 q 556 608 556 630 q 540 570 556 585 q 502 554 524 554 q 459 575 480 554 q 271 651 381 651 q 194 619 226 651 q 162 542 162 587 q 194 465 162 497 q 271 434 226 434 l 325 434 q 363 418 347 434 q 379 379 379 402 q 363 341 379 357 q 325 325 347 325 l 271 325 q 194 293 226 325 q 162 217 162 261 q 194 140 162 172 q 271 108 226 108 q 459 183 381 108 q 502 205 480 205 q 540 189 524 205 q 556 151 556 173 q 539 111 556 128 q 271 0 428 0 q 117 63 181 0 q 54 217 54 126 q 127 379 54 314 q 54 542 54 445 q 117 696 54 632 q 271 759 181 759 "},"э":{"x_min":54.265625,"x_max":700.609375,"ha":760,"o":"m 587 434 q 512 571 572 512 q 320 651 433 651 q 143 583 219 651 q 108 571 128 571 q 70 587 86 571 q 54 626 54 603 q 73 668 54 651 q 320 759 178 759 q 589 648 478 759 q 700 379 700 537 q 589 111 700 222 q 320 0 478 0 q 73 91 178 0 q 56 131 56 109 q 72 169 56 153 q 110 185 88 185 q 143 174 129 185 q 320 108 219 108 q 512 187 433 108 q 587 325 572 247 l 271 325 q 232 341 248 325 q 217 379 217 357 q 232 418 217 402 q 271 434 248 434 l 587 434 "},"ш":{"x_min":54.3125,"x_max":1139.40625,"ha":1194,"o":"m 1030 705 q 1046 743 1030 727 q 1085 759 1062 759 q 1123 743 1107 759 q 1139 705 1139 727 l 1139 54 q 1123 15 1139 31 q 1085 0 1107 0 q 1046 15 1062 0 q 1030 54 1030 31 l 1030 68 q 841 0 950 0 q 630 87 717 0 q 596 126 611 105 q 563 87 581 105 q 352 0 476 0 q 141 87 229 0 q 54 298 54 175 l 54 705 q 70 743 54 727 q 108 759 86 759 q 146 743 130 759 q 162 705 162 727 l 162 298 q 218 164 162 219 q 352 108 274 108 q 487 164 431 108 q 542 298 542 219 l 542 705 q 558 743 542 727 q 596 759 574 759 q 635 743 619 759 q 651 705 651 727 l 651 298 q 706 164 651 219 q 841 108 762 108 q 975 164 919 108 q 1030 298 1030 219 l 1030 705 "},"Я":{"x_min":54.3125,"x_max":759.609375,"ha":814,"o":"m 651 976 l 651 542 l 434 542 q 280 605 343 542 q 217 759 217 669 q 280 913 217 849 q 434 976 343 976 l 651 976 m 705 1085 l 434 1085 q 203 989 299 1085 q 108 759 108 894 q 203 529 108 624 q 299 462 247 485 l 63 84 q 54 54 54 71 q 70 15 54 31 q 108 0 86 0 q 156 27 137 0 l 410 434 q 434 434 421 434 l 651 434 l 651 54 q 667 15 651 31 q 705 0 683 0 q 743 15 727 0 q 759 54 759 31 l 759 1030 q 743 1069 759 1053 q 705 1085 727 1085 "},"a":{"x_min":54.265625,"x_max":813.875,"ha":868,"o":"m 434 651 q 242 571 321 651 q 162 379 162 492 q 242 187 162 267 q 434 108 321 108 q 626 187 546 108 q 705 379 705 267 q 626 571 705 492 q 434 651 546 651 m 705 113 q 434 0 591 0 q 165 111 276 0 q 54 379 54 222 q 165 648 54 537 q 434 759 276 759 q 702 648 591 759 q 813 379 813 537 l 813 54 q 797 15 813 31 q 759 0 781 0 q 721 15 737 0 q 705 54 705 31 l 705 113 "},"Ę":{"x_min":54.265625,"x_max":814.546875,"ha":868,"o":"m 108 1085 l 759 1085 q 797 1069 781 1085 q 813 1030 813 1053 q 797 992 813 1008 q 759 976 781 976 l 162 976 l 162 596 l 596 596 q 635 580 619 596 q 651 542 651 564 q 635 504 651 520 q 596 488 619 488 l 162 488 l 162 108 l 759 108 q 797 92 781 108 q 813 54 813 76 q 797 15 813 31 q 759 0 781 0 l 108 0 q 70 15 86 0 q 54 54 54 31 l 54 1030 q 70 1069 54 1053 q 108 1085 86 1085 m 604 24 q 651 52 617 51 q 690 36 674 52 q 706 0 705 21 q 704 -15 706 -8 q 621 -118 694 -65 q 597 -162 597 -137 q 613 -201 597 -185 q 651 -217 629 -217 q 680 -208 668 -217 l 727 -173 q 760 -162 741 -162 q 798 -178 782 -162 q 814 -217 814 -194 q 795 -259 814 -244 l 741 -297 q 651 -325 699 -325 q 536 -277 584 -325 q 489 -162 489 -229 q 558 -29 489 -84 q 604 24 594 0 "},"Z":{"x_min":54.265625,"x_max":922.390625,"ha":977,"o":"m 108 976 q 70 992 86 976 q 54 1030 54 1008 q 70 1069 54 1053 q 108 1085 86 1085 l 868 1085 q 906 1069 890 1085 q 922 1030 922 1053 q 912 999 922 1013 l 219 108 l 868 108 q 906 92 890 108 q 922 54 922 76 q 906 15 922 31 q 868 0 890 0 l 108 0 q 70 15 86 0 q 54 54 54 31 q 65 88 54 73 l 756 976 l 108 976 "},"k":{"x_min":54.265625,"x_max":705.359375,"ha":760,"o":"m 162 453 l 621 751 q 651 759 634 759 q 689 743 673 759 q 705 705 705 727 q 689 667 705 682 q 682 660 685 663 l 367 455 l 690 92 q 705 54 705 75 q 689 15 705 31 q 651 0 673 0 q 611 16 628 0 l 274 396 l 162 323 l 162 54 q 146 15 162 31 q 108 0 130 0 q 70 15 86 0 q 54 54 54 31 l 54 1030 q 70 1069 54 1053 q 108 1085 86 1085 q 146 1069 130 1085 q 162 1030 162 1053 l 162 453 "},"Ù":{"x_min":54.265625,"x_max":813.875,"ha":868,"o":"m 54 1030 q 70 1069 54 1053 q 108 1085 86 1085 q 146 1069 130 1085 q 162 1030 162 1053 l 162 379 q 242 187 162 267 q 434 108 321 108 q 626 187 546 108 q 705 379 705 267 l 705 1030 q 721 1069 705 1053 q 759 1085 737 1085 q 797 1069 781 1085 q 813 1030 813 1053 l 813 379 q 702 111 813 222 q 434 0 591 0 q 165 111 276 0 q 54 379 54 222 l 54 1030 m 252 1356 q 268 1394 252 1378 q 307 1410 284 1410 q 345 1395 329 1410 l 510 1230 q 524 1193 524 1214 q 508 1155 524 1171 q 470 1139 492 1139 q 432 1153 448 1139 l 267 1318 q 252 1356 252 1334 "},"Ů":{"x_min":54.265625,"x_max":813.875,"ha":868,"o":"m 54 1030 q 70 1069 54 1053 q 108 1085 86 1085 q 146 1069 130 1085 q 162 1030 162 1053 l 162 379 q 242 187 162 267 q 434 108 321 108 q 626 187 546 108 q 705 379 705 267 l 705 1030 q 721 1069 705 1053 q 759 1085 737 1085 q 797 1069 781 1085 q 813 1030 813 1053 l 813 379 q 702 111 813 222 q 434 0 591 0 q 165 111 276 0 q 54 379 54 222 l 54 1030 m 571 1274 q 531 1177 571 1217 q 434 1137 491 1137 q 337 1177 377 1137 q 297 1274 297 1217 q 337 1370 297 1330 q 434 1410 377 1410 q 531 1370 491 1410 q 571 1274 571 1330 m 434 1342 q 386 1322 406 1342 q 366 1274 366 1302 q 386 1225 366 1245 q 434 1205 406 1205 q 482 1225 462 1205 q 502 1274 502 1245 q 482 1322 502 1302 q 434 1342 462 1342 "},"¢":{"x_min":59,"x_max":705.359375,"ha":760,"o":"m 244 189 l 429 651 q 246 571 322 647 q 167 379 167 492 q 244 189 167 268 m 337 127 q 438 108 383 108 q 615 174 540 108 q 649 185 630 185 q 687 169 671 185 q 703 131 703 153 q 686 91 703 109 q 438 0 581 0 q 297 26 362 0 l 213 -182 q 185 -212 205 -203 q 163 -217 174 -217 q 143 -212 153 -217 q 113 -184 122 -204 q 112 -142 104 -163 l 202 82 q 170 111 185 95 q 59 379 59 222 q 170 648 59 537 q 438 759 281 759 q 472 758 455 759 l 545 942 q 575 972 554 963 q 596 976 584 976 q 616 973 607 976 q 646 944 637 965 q 647 902 655 923 l 579 733 q 686 668 636 710 q 705 626 705 651 q 689 587 705 603 q 651 571 673 571 q 616 583 631 571 q 539 632 580 615 l 337 127 "},"В":{"x_min":54.265625,"x_max":705.359375,"ha":760,"o":"m 162 976 l 162 651 l 325 651 q 440 698 392 651 q 488 813 488 746 q 440 928 488 881 q 325 976 392 976 l 162 976 m 162 542 l 162 108 l 379 108 q 533 171 470 108 q 596 325 596 235 q 533 479 596 415 q 379 542 470 542 l 162 542 m 108 1085 l 325 1085 q 517 1005 438 1085 q 596 813 596 926 q 517 621 596 701 q 610 556 567 598 q 705 325 705 460 q 610 95 705 190 q 379 0 514 0 l 108 0 q 70 15 86 0 q 54 54 54 31 l 54 1030 q 70 1069 54 1053 q 108 1085 86 1085 "},"І":{"x_min":108.515625,"x_max":217.03125,"ha":326,"o":"m 108 1030 q 124 1069 108 1053 q 162 1085 140 1085 q 201 1069 185 1085 q 217 1030 217 1053 l 217 54 q 201 15 217 31 q 162 0 185 0 q 124 15 140 0 q 108 54 108 31 l 108 1030 "},"ē":{"x_min":54.265625,"x_max":813.875,"ha":868,"o":"m 700 434 q 626 571 685 512 q 434 651 546 651 q 242 571 321 651 q 167 434 182 512 l 700 434 m 642 184 q 681 168 665 184 q 697 130 697 152 q 681 91 697 107 q 434 0 576 0 q 165 111 276 0 q 54 379 54 222 q 165 648 54 537 q 434 759 276 759 q 702 648 591 759 q 813 379 813 537 q 797 341 813 357 q 759 325 781 325 l 167 325 q 242 187 182 247 q 434 108 321 108 q 609 172 535 108 q 642 184 623 184 m 271 868 q 232 884 248 868 q 217 922 217 900 q 232 960 217 944 q 271 976 248 976 l 596 976 q 635 960 619 976 q 651 922 651 944 q 635 884 651 900 q 596 868 619 868 l 271 868 "},"β":{"x_min":54.265625,"x_max":705.359375,"ha":760,"o":"m 162 324 q 226 172 163 234 q 379 108 289 108 q 533 171 470 108 q 596 325 596 235 q 533 479 596 415 q 379 542 470 542 l 325 542 q 287 558 303 542 q 271 596 271 574 q 287 635 271 619 q 325 651 303 651 q 440 698 392 651 q 488 813 488 746 q 440 928 488 881 q 325 976 392 976 q 210 928 258 976 q 162 813 162 881 l 162 324 m 610 556 q 705 325 705 460 q 610 95 705 190 q 379 0 514 0 q 162 82 254 0 l 162 -271 q 146 -309 162 -293 q 108 -325 130 -325 q 70 -309 86 -325 q 54 -271 54 -293 l 54 813 q 133 1005 54 926 q 325 1085 212 1085 q 517 1005 438 1085 q 596 813 596 926 q 517 621 596 701 q 610 556 567 598 "},"≠":{"x_min":54.265625,"x_max":651.09375,"ha":705,"o":"m 329 596 l 108 596 q 70 612 86 596 q 54 651 54 628 q 70 689 54 673 q 108 705 86 705 l 363 705 l 435 935 q 450 961 438 949 q 488 976 465 976 q 526 960 510 976 q 542 922 542 944 q 539 902 542 912 l 477 705 l 596 705 q 635 689 619 705 q 651 651 651 673 q 635 612 651 628 q 596 596 619 596 l 443 596 l 375 379 l 596 379 q 635 363 619 379 q 651 325 651 347 q 635 287 651 303 q 596 270 619 271 l 341 270 l 269 42 q 255 16 266 27 q 217 0 239 0 q 178 15 194 0 q 162 54 162 31 q 166 75 162 65 l 227 270 l 108 270 q 70 287 86 271 q 54 325 54 303 q 70 363 54 347 q 108 379 86 379 l 261 379 l 329 596 "},"‼":{"x_min":54.265625,"x_max":488.328125,"ha":543,"o":"m 217 81 q 193 23 217 47 q 135 0 169 0 q 78 23 101 0 q 54 81 54 47 q 78 139 54 115 q 135 162 101 162 q 193 139 169 162 q 217 81 217 115 m 81 1030 q 97 1069 81 1053 q 135 1085 113 1085 q 173 1069 158 1085 q 189 1030 189 1053 l 189 270 q 174 233 189 248 q 135 217 158 217 q 97 233 113 217 q 81 270 81 248 l 81 1030 m 488 81 q 464 23 488 47 q 406 0 440 0 q 349 23 373 0 q 325 81 325 47 q 349 139 325 115 q 406 162 373 162 q 464 139 440 162 q 488 81 488 115 m 352 1030 q 368 1069 352 1053 q 406 1085 384 1085 q 445 1069 429 1085 q 461 1030 461 1053 l 461 270 q 445 233 461 248 q 406 217 429 217 q 368 233 384 217 q 352 270 352 248 l 352 1030 "},"Ғ":{"x_min":54.265625,"x_max":868.125,"ha":922,"o":"m 271 488 l 271 54 q 255 16 271 31 q 217 0 239 0 q 178 15 194 0 q 162 54 162 31 l 162 488 l 108 488 q 70 504 86 488 q 54 542 54 520 q 70 580 54 564 q 108 596 86 596 l 162 596 l 162 1030 q 179 1069 163 1053 q 217 1085 195 1085 l 813 1085 q 852 1069 836 1085 q 868 1030 868 1053 q 852 992 868 1008 q 813 976 836 976 l 271 976 l 271 596 l 596 596 q 635 580 619 596 q 651 542 651 564 q 635 504 651 520 q 596 488 619 488 l 271 488 "},"¥":{"x_min":54.265625,"x_max":813.875,"ha":868,"o":"m 108 596 q 70 612 86 596 q 54 651 54 628 q 70 689 54 673 q 108 705 86 705 l 260 705 l 63 1000 q 54 1030 54 1013 q 70 1069 54 1053 q 108 1085 86 1085 q 152 1062 136 1085 l 434 640 l 715 1062 q 759 1085 731 1085 q 797 1069 781 1085 q 813 1030 813 1053 q 805 1000 813 1013 l 607 705 l 760 705 q 798 689 781 705 q 813 651 813 673 q 798 613 813 628 q 760 596 781 596 l 535 596 l 488 526 l 488 434 l 759 434 q 797 418 781 434 q 813 379 813 402 q 797 341 813 357 q 759 325 781 325 l 488 325 l 488 54 q 472 15 488 31 q 434 0 456 0 q 395 15 411 0 q 379 54 379 31 l 379 325 l 108 325 q 70 341 86 325 q 54 379 54 357 q 70 418 54 402 q 108 434 86 434 l 379 434 l 379 526 l 333 596 l 108 596 "},"Ĥ":{"x_min":54.265625,"x_max":813.875,"ha":868,"o":"m 54 1030 q 70 1069 54 1053 q 108 1085 86 1085 q 146 1069 130 1085 q 162 1030 162 1053 l 162 596 l 705 596 l 705 1030 q 721 1069 705 1053 q 759 1085 737 1085 q 797 1069 781 1085 q 813 1030 813 1053 l 813 54 q 797 15 813 31 q 759 0 781 0 q 721 15 737 0 q 705 54 705 31 l 705 488 l 162 488 l 162 54 q 146 15 162 31 q 108 0 130 0 q 70 15 86 0 q 54 54 54 31 l 54 1030 m 461 1376 l 623 1268 q 651 1220 651 1247 q 635 1182 651 1198 q 596 1166 619 1166 q 562 1178 577 1166 l 434 1263 l 305 1178 q 271 1166 290 1166 q 232 1182 248 1166 q 217 1220 217 1198 q 244 1268 217 1247 l 406 1376 q 434 1383 418 1383 q 461 1376 449 1383 "},"U":{"x_min":54.265625,"x_max":813.875,"ha":868,"o":"m 54 1030 q 70 1069 54 1053 q 108 1085 86 1085 q 146 1069 130 1085 q 162 1030 162 1053 l 162 379 q 242 187 162 267 q 434 108 321 108 q 626 187 546 108 q 705 379 705 267 l 705 1030 q 721 1069 705 1053 q 759 1085 737 1085 q 797 1069 781 1085 q 813 1030 813 1053 l 813 379 q 702 111 813 222 q 434 0 591 0 q 165 111 276 0 q 54 379 54 222 l 54 1030 "},"Ñ":{"x_min":54.265625,"x_max":922.390625,"ha":977,"o":"m 162 54 q 146 15 162 31 q 108 0 130 0 q 70 15 86 0 q 54 54 54 31 l 54 1030 q 70 1069 54 1053 q 108 1085 86 1085 q 150 1065 132 1085 l 813 212 l 813 1030 q 829 1069 813 1053 q 868 1085 845 1085 q 906 1069 890 1085 q 922 1030 922 1053 l 922 54 q 906 15 922 31 q 868 0 890 0 q 827 17 844 0 l 162 872 l 162 54 m 521 1221 q 377 1167 460 1167 q 223 1230 287 1167 q 208 1268 208 1247 q 224 1307 208 1291 q 263 1323 240 1323 q 301 1308 284 1323 q 377 1275 333 1275 q 445 1299 415 1275 q 589 1353 505 1353 q 743 1289 679 1353 q 758 1252 758 1273 q 742 1213 758 1229 q 703 1197 726 1197 q 666 1212 682 1197 q 589 1245 634 1245 q 521 1221 550 1245 "},"F":{"x_min":54.265625,"x_max":813.875,"ha":868,"o":"m 108 1085 l 759 1085 q 797 1069 781 1085 q 813 1030 813 1053 q 797 992 813 1008 q 759 976 781 976 l 162 976 l 162 596 l 596 596 q 635 580 619 596 q 651 542 651 564 q 635 504 651 520 q 596 488 619 488 l 162 488 l 162 54 q 146 15 162 31 q 108 0 130 0 q 70 15 86 0 q 54 54 54 31 l 54 1030 q 70 1069 54 1053 q 108 1085 86 1085 "},"Ќ":{"x_min":54.265625,"x_max":759.609375,"ha":814,"o":"m 54 1030 q 70 1069 54 1053 q 108 1085 86 1085 q 146 1069 130 1085 q 162 1030 162 1053 l 162 565 l 665 1068 q 705 1085 682 1085 q 743 1069 727 1085 q 759 1030 759 1053 q 744 992 759 1008 l 362 611 l 749 86 q 759 56 759 72 q 737 10 759 27 q 706 0 722 0 q 660 23 676 0 l 284 533 l 162 411 l 162 54 q 146 15 162 31 q 108 0 130 0 q 70 15 86 0 q 54 54 54 31 l 54 1030 m 531 1318 l 366 1153 q 329 1139 351 1139 q 291 1155 307 1139 q 275 1193 275 1171 q 288 1230 275 1214 l 453 1395 q 492 1410 470 1410 q 530 1394 514 1410 q 546 1356 546 1378 q 531 1318 546 1334 "},"∕":{"x_min":-271.296875,"x_max":705.359375,"ha":434,"o":"m 651 1085 q 689 1069 673 1085 q 705 1030 705 1053 q 694 997 705 1011 l -174 19 q -217 0 -192 0 q -255 15 -239 0 q -271 54 -271 31 q -259 89 -271 73 l 609 1065 q 651 1085 627 1085 "},"å":{"x_min":54.265625,"x_max":813.875,"ha":868,"o":"m 434 651 q 242 571 321 651 q 162 379 162 492 q 242 187 162 267 q 434 108 321 108 q 626 187 546 108 q 705 379 705 267 q 626 571 705 492 q 434 651 546 651 m 705 113 q 434 0 591 0 q 165 111 276 0 q 54 379 54 222 q 165 648 54 537 q 434 759 276 759 q 702 648 591 759 q 813 379 813 537 l 813 54 q 797 15 813 31 q 759 0 781 0 q 721 15 737 0 q 705 54 705 31 l 705 113 m 571 948 q 531 851 571 891 q 434 811 491 811 q 337 851 377 811 q 297 948 297 891 q 337 1045 297 1005 q 434 1085 377 1085 q 531 1045 491 1085 q 571 948 571 1005 m 434 1016 q 386 996 406 1016 q 366 948 366 976 q 386 900 366 920 q 434 880 406 880 q 482 900 462 880 q 502 948 502 920 q 482 996 502 976 q 434 1016 462 1016 "},"Ϋ":{"x_min":54.265625,"x_max":813.875,"ha":868,"o":"m 339 1247 q 319 1200 339 1220 q 271 1180 299 1180 q 223 1200 243 1180 q 203 1247 203 1220 q 223 1295 203 1275 q 271 1315 243 1315 q 319 1295 299 1315 q 339 1247 339 1275 m 664 1247 q 644 1200 664 1220 q 596 1180 624 1180 q 549 1200 569 1180 q 529 1247 529 1220 q 549 1295 529 1275 q 596 1315 569 1315 q 644 1295 624 1315 q 664 1247 664 1275 m 488 54 q 472 15 488 31 q 434 0 456 0 q 395 15 411 0 q 379 54 379 31 l 379 526 l 63 1000 q 54 1030 54 1013 q 70 1069 54 1053 q 108 1085 86 1085 q 152 1062 136 1085 l 434 640 l 715 1062 q 759 1085 731 1085 q 797 1069 781 1085 q 813 1030 813 1053 q 805 1000 813 1013 l 488 526 l 488 54 "},"0":{"x_min":54.265625,"x_max":705.359375,"ha":760,"o":"m 54 542 q 187 1005 54 868 q 379 1085 267 1085 q 571 1005 492 1085 q 705 542 705 868 q 571 79 705 217 q 379 0 492 0 q 187 79 267 0 q 54 542 54 217 m 379 976 q 264 928 312 976 q 162 542 162 813 q 264 156 162 271 q 379 108 312 108 q 495 156 446 108 q 596 542 596 271 q 495 928 596 813 q 379 976 446 976 "},"ō":{"x_min":54.265625,"x_max":813.875,"ha":868,"o":"m 813 379 q 702 111 813 222 q 434 0 591 0 q 165 111 276 0 q 54 379 54 222 q 165 648 54 537 q 434 759 276 759 q 702 648 591 759 q 813 379 813 537 m 434 651 q 242 571 321 651 q 162 379 162 492 q 242 187 162 267 q 434 108 321 108 q 626 187 546 108 q 705 379 705 267 q 626 571 705 492 q 434 651 546 651 m 271 868 q 232 884 248 868 q 217 922 217 900 q 232 960 217 944 q 271 976 248 976 l 596 976 q 635 960 619 976 q 651 922 651 944 q 635 884 651 900 q 596 868 619 868 l 271 868 "},"”":{"x_min":54.265625,"x_max":461.1875,"ha":515,"o":"m 289 1018 q 309 1066 289 1046 q 357 1086 329 1086 q 418 1047 399 1086 q 461 893 461 971 q 358 650 461 774 q 329 638 346 638 q 301 650 313 638 q 289 678 289 662 q 293 696 289 688 q 295 991 359 857 q 289 1018 289 1003 m 54 1018 q 74 1066 54 1046 q 122 1086 94 1086 q 183 1047 164 1086 q 225 893 225 971 q 122 650 225 774 q 94 638 111 638 q 66 650 78 638 q 54 678 54 662 q 57 696 54 688 q 59 991 124 857 q 54 1018 54 1003 "},"ö":{"x_min":54.265625,"x_max":813.875,"ha":868,"o":"m 813 379 q 702 111 813 222 q 434 0 591 0 q 165 111 276 0 q 54 379 54 222 q 165 648 54 537 q 434 759 276 759 q 702 648 591 759 q 813 379 813 537 m 434 651 q 242 571 321 651 q 162 379 162 492 q 242 187 162 267 q 434 108 321 108 q 626 187 546 108 q 705 379 705 267 q 626 571 705 492 q 434 651 546 651 m 339 922 q 319 874 339 894 q 271 854 299 854 q 223 874 243 854 q 203 922 203 894 q 223 970 203 950 q 271 990 243 990 q 319 970 299 990 q 339 922 339 950 m 664 922 q 644 874 664 894 q 596 854 624 854 q 549 874 569 854 q 529 922 529 894 q 549 970 529 950 q 596 990 569 990 q 644 970 624 990 q 664 922 664 950 "},"ć":{"x_min":54.265625,"x_max":700.609375,"ha":760,"o":"m 644 185 q 682 169 666 185 q 698 131 698 153 q 681 91 698 109 q 434 0 576 0 q 165 111 276 0 q 54 379 54 222 q 165 648 54 537 q 434 759 276 759 q 681 668 576 759 q 700 626 700 651 q 684 587 700 603 q 646 571 668 571 q 611 583 626 571 q 434 651 535 651 q 242 571 321 651 q 162 379 162 492 q 242 187 162 267 q 434 108 321 108 q 611 174 535 108 q 644 185 625 185 m 581 992 l 416 828 q 379 813 400 813 q 340 829 356 813 q 324 868 324 845 q 338 904 324 889 l 503 1069 q 541 1085 519 1085 q 580 1069 564 1085 q 596 1030 596 1053 q 581 992 596 1009 "},"þ":{"x_min":54.265625,"x_max":813.875,"ha":868,"o":"m 162 381 q 242 189 162 268 q 434 109 321 109 q 626 189 546 109 q 705 381 705 268 q 626 573 705 493 q 434 652 546 652 q 242 573 321 652 q 162 381 162 493 m 162 647 q 434 760 276 760 q 702 649 591 760 q 813 381 813 538 q 702 112 813 223 q 434 1 591 1 q 162 115 276 1 l 162 -271 q 146 -309 162 -293 q 108 -325 130 -325 q 70 -309 86 -325 q 54 -271 54 -293 l 54 1032 q 70 1070 54 1054 q 108 1086 86 1086 q 146 1070 130 1086 q 162 1032 162 1054 l 162 647 "},"]":{"x_min":54.265625,"x_max":379.8125,"ha":434,"o":"m 379 1030 l 379 -271 q 363 -309 379 -293 q 325 -325 347 -325 l 108 -325 q 70 -309 86 -325 q 54 -271 54 -293 q 70 -232 54 -248 q 108 -217 86 -217 l 271 -217 l 271 976 l 108 976 q 70 992 86 976 q 54 1030 54 1008 q 70 1069 54 1053 q 108 1085 86 1085 l 325 1085 q 363 1069 347 1085 q 379 1030 379 1053 "},"А":{"x_min":54.265625,"x_max":922.390625,"ha":977,"o":"m 293 379 l 158 33 q 147 15 154 23 q 108 0 130 0 q 70 15 86 0 q 54 54 54 31 q 59 77 54 67 l 436 1047 q 450 1069 440 1059 q 488 1085 465 1085 q 526 1069 510 1085 q 540 1047 536 1059 l 917 77 q 922 54 922 67 q 906 15 922 31 q 868 0 890 0 q 830 15 845 0 q 817 33 822 23 l 682 379 l 293 379 m 640 488 l 488 881 l 335 488 l 640 488 "},"′":{"x_min":48.15625,"x_max":217.03125,"ha":271,"o":"m 126 826 q 88 800 115 800 q 51 824 61 800 q 48 841 48 832 q 50 855 48 848 l 111 1049 q 141 1080 120 1070 q 162 1085 151 1085 q 212 1052 196 1085 q 217 1030 217 1041 q 212 1010 217 1020 l 126 826 "},"Ы":{"x_min":54.265625,"x_max":922.390625,"ha":977,"o":"m 406 108 q 541 164 485 108 q 596 298 596 219 q 541 432 596 377 q 406 488 485 488 l 162 488 l 162 108 l 406 108 m 162 1030 l 162 596 l 406 596 q 617 509 530 596 q 705 298 705 421 q 617 87 705 174 q 406 0 530 0 l 108 0 q 70 15 86 0 q 54 54 54 31 l 54 1030 q 70 1069 54 1053 q 108 1085 86 1085 q 146 1069 130 1085 q 162 1030 162 1053 m 813 1030 q 829 1069 813 1053 q 868 1085 845 1085 q 906 1069 890 1085 q 922 1030 922 1053 l 922 54 q 906 15 922 31 q 868 0 890 0 q 829 15 845 0 q 813 54 813 31 l 813 1030 "},"ẁ":{"x_min":54.265625,"x_max":1030.90625,"ha":1085,"o":"m 504 744 q 542 759 520 759 q 581 744 564 759 q 595 718 591 733 l 759 225 l 927 728 q 938 744 931 736 q 976 759 954 759 q 1014 743 999 759 q 1030 705 1030 727 q 1026 684 1030 694 l 810 34 q 798 14 806 24 q 759 0 781 0 q 721 14 737 0 q 708 34 712 24 l 542 533 l 376 34 q 364 14 372 24 q 325 0 347 0 q 287 14 303 0 q 274 34 278 24 l 58 684 q 54 705 54 694 q 70 743 54 727 q 108 759 86 759 q 147 744 130 759 q 158 728 153 736 l 325 225 l 489 718 q 504 744 494 733 m 361 1030 q 377 1069 361 1053 q 415 1085 393 1085 q 454 1069 438 1085 l 619 904 q 632 868 632 889 q 616 829 632 845 q 578 813 600 813 q 541 828 556 813 l 376 992 q 361 1030 361 1009 "},"ĭ":{"x_min":-26.4375,"x_max":408.296875,"ha":380,"o":"m 132 705 q 148 743 132 727 q 186 759 164 759 q 224 743 208 759 q 240 705 240 727 l 240 54 q 224 15 240 31 q 186 0 208 0 q 148 15 164 0 q 132 54 132 31 l 132 705 m -26 1003 q -10 1042 -26 1026 q 27 1058 5 1058 q 66 1042 50 1058 q 82 1003 82 1026 q 113 965 82 981 q 190 949 145 949 q 267 965 235 949 q 299 1003 299 981 q 315 1042 299 1026 q 354 1058 331 1058 q 392 1042 376 1058 q 408 1003 408 1026 q 344 889 404 932 q 190 841 280 841 q 36 888 100 841 q -26 1003 -26 936 "},"8":{"x_min":54.265625,"x_max":705.359375,"ha":760,"o":"m 379 976 q 264 928 312 976 q 217 813 217 881 q 264 698 217 746 q 379 651 312 651 q 494 698 446 651 q 542 813 542 746 q 494 928 542 881 q 379 976 446 976 m 379 542 q 226 479 289 542 q 162 325 162 415 q 226 171 162 235 q 379 108 289 108 q 533 171 470 108 q 596 325 596 235 q 533 479 596 415 q 379 542 470 542 m 208 602 q 187 621 198 611 q 108 813 108 701 q 187 1005 108 926 q 379 1085 267 1085 q 571 1005 492 1085 q 651 813 651 926 q 571 621 651 701 q 551 602 561 611 q 610 556 582 583 q 705 325 705 460 q 610 95 705 190 q 379 0 514 0 q 149 95 244 0 q 54 325 54 190 q 149 556 54 460 q 208 602 177 583 "},"R":{"x_min":54.265625,"x_max":759.609375,"ha":814,"o":"m 162 976 l 162 542 l 379 542 q 533 605 470 542 q 596 759 596 669 q 533 913 596 849 q 379 976 470 976 l 162 976 m 108 1085 l 379 1085 q 610 989 514 1085 q 705 759 705 894 q 610 529 705 624 q 514 462 566 485 l 750 84 q 759 54 759 71 q 743 15 759 31 q 705 0 727 0 q 657 27 676 0 l 403 434 q 379 434 392 434 l 162 434 l 162 54 q 146 15 162 31 q 108 0 130 0 q 70 15 86 0 q 54 54 54 31 l 54 1030 q 70 1069 54 1053 q 108 1085 86 1085 "},"Ż":{"x_min":54.265625,"x_max":922.390625,"ha":977,"o":"m 108 976 q 70 992 86 976 q 54 1030 54 1008 q 70 1069 54 1053 q 108 1085 86 1085 l 868 1085 q 906 1069 890 1085 q 922 1030 922 1053 q 912 999 922 1013 l 219 108 l 868 108 q 906 92 890 108 q 922 54 922 76 q 906 15 922 31 q 868 0 890 0 l 108 0 q 70 15 86 0 q 54 54 54 31 q 65 88 54 73 l 756 976 l 108 976 m 569 1248 q 545 1190 569 1214 q 488 1167 522 1167 q 430 1190 454 1167 q 406 1248 406 1214 q 430 1306 406 1282 q 488 1330 454 1330 q 545 1306 522 1330 q 569 1248 569 1282 "},"Ң":{"x_min":54.265625,"x_max":922.390625,"ha":977,"o":"m 759 0 q 721 15 737 0 q 705 54 705 31 l 705 488 l 162 488 l 162 54 q 146 15 162 31 q 108 0 130 0 q 70 15 86 0 q 54 54 54 31 l 54 1030 q 70 1069 54 1053 q 108 1085 86 1085 q 146 1069 130 1085 q 162 1030 162 1053 l 162 596 l 705 596 l 705 1030 q 721 1069 705 1053 q 759 1085 737 1085 q 797 1069 781 1085 q 813 1030 813 1053 l 813 108 l 868 108 q 906 92 890 108 q 922 54 922 76 q 870 -180 922 -73 q 857 -200 866 -191 q 819 -217 841 -217 q 780 -201 796 -217 q 765 -162 765 -185 q 771 -137 765 -148 q 809 0 800 -83 l 759 0 "},"ħ":{"x_min":27.125,"x_max":841,"ha":895,"o":"m 135 976 l 135 1030 q 151 1069 135 1053 q 189 1085 167 1085 q 228 1069 212 1085 q 244 1030 244 1053 l 244 976 l 461 976 q 499 960 483 976 q 515 922 515 944 q 499 884 515 900 q 461 868 483 868 l 244 868 l 244 661 q 488 759 345 759 q 737 656 634 759 q 841 406 841 552 l 841 54 q 825 15 841 31 q 786 0 809 0 q 748 15 764 0 q 732 54 732 31 l 732 406 q 660 579 732 507 q 488 651 589 651 q 315 579 387 651 q 244 406 244 507 l 244 54 q 228 15 244 31 q 189 0 212 0 q 151 15 167 0 q 135 54 135 31 l 135 868 l 81 868 q 43 884 59 868 q 27 922 27 900 q 43 960 27 944 q 81 976 59 976 l 135 976 "},"õ":{"x_min":54.265625,"x_max":813.875,"ha":868,"o":"m 813 379 q 702 111 813 222 q 434 0 591 0 q 165 111 276 0 q 54 379 54 222 q 165 648 54 537 q 434 759 276 759 q 702 648 591 759 q 813 379 813 537 m 434 651 q 242 571 321 651 q 162 379 162 492 q 242 187 162 267 q 434 108 321 108 q 626 187 546 108 q 705 379 705 267 q 626 571 705 492 q 434 651 546 651 m 472 895 q 328 841 411 841 q 174 905 238 841 q 159 943 159 921 q 175 981 159 965 q 213 997 191 997 q 251 982 235 997 q 328 950 283 950 q 396 973 366 950 q 539 1028 456 1028 q 693 964 630 1028 q 708 926 708 948 q 692 888 708 904 q 654 872 676 872 q 616 887 632 872 q 539 919 584 919 q 472 895 501 919 "},"ғ":{"x_min":54.265625,"x_max":651.09375,"ha":705,"o":"m 271 325 l 271 54 q 255 15 271 31 q 217 0 239 0 q 178 15 194 0 q 162 54 162 31 l 162 325 l 108 325 q 70 341 86 325 q 54 379 54 357 q 70 418 54 402 q 108 434 86 434 l 162 434 l 162 542 q 226 696 162 632 q 379 759 289 759 l 596 759 q 635 743 619 759 q 651 705 651 727 q 635 667 651 682 q 596 651 619 651 l 379 651 q 303 619 335 651 q 271 542 271 587 l 271 434 l 434 434 q 472 418 456 434 q 488 379 488 402 q 472 341 488 357 q 434 325 456 325 l 271 325 "},"˙":{"x_min":54.265625,"x_max":217.03125,"ha":271,"o":"m 217 923 q 193 865 217 889 q 135 841 169 841 q 78 865 101 841 q 54 923 54 889 q 78 980 54 956 q 135 1004 101 1004 q 193 980 169 1004 q 217 923 217 956 "},"ê":{"x_min":54.265625,"x_max":813.875,"ha":868,"o":"m 700 434 q 626 571 685 512 q 434 651 546 651 q 242 571 321 651 q 167 434 182 512 l 700 434 m 642 184 q 681 168 665 184 q 697 130 697 152 q 681 91 697 107 q 434 0 576 0 q 165 111 276 0 q 54 379 54 222 q 165 648 54 537 q 434 759 276 759 q 702 648 591 759 q 813 379 813 537 q 797 341 813 357 q 759 325 781 325 l 167 325 q 242 187 182 247 q 434 108 321 108 q 609 172 535 108 q 642 184 623 184 m 461 1050 l 623 942 q 651 895 651 922 q 635 856 651 872 q 596 841 619 841 q 562 852 577 841 l 434 937 l 305 852 q 271 841 290 841 q 232 856 248 841 q 217 895 217 872 q 244 942 217 922 l 406 1050 q 434 1058 418 1058 q 461 1050 449 1058 "},"″":{"x_min":48.15625,"x_max":434.0625,"ha":488,"o":"m 126 826 q 88 800 115 800 q 51 824 61 800 q 48 841 48 832 q 50 855 48 848 l 111 1049 q 141 1080 120 1070 q 162 1085 151 1085 q 212 1052 196 1085 q 217 1030 217 1041 q 212 1010 217 1020 l 126 826 m 343 826 q 305 800 332 800 q 268 824 278 800 q 265 841 265 832 q 267 855 265 848 l 328 1049 q 358 1080 337 1070 q 379 1085 368 1085 q 429 1052 413 1085 q 434 1030 434 1041 q 430 1010 434 1020 l 343 826 "},"„":{"x_min":54.265625,"x_max":461.1875,"ha":515,"o":"m 289 149 q 309 197 289 177 q 357 217 329 217 q 418 177 399 217 q 461 23 461 101 q 358 -219 461 -94 q 329 -230 346 -230 q 301 -218 313 -230 q 289 -190 289 -206 q 293 -172 289 -181 q 295 122 359 -12 q 289 149 289 134 m 54 149 q 74 197 54 177 q 122 217 94 217 q 183 177 164 217 q 225 23 225 101 q 122 -219 225 -94 q 94 -230 111 -230 q 66 -218 78 -230 q 54 -190 54 -206 q 57 -172 54 -181 q 59 122 124 -12 q 54 149 54 134 "},"ч":{"x_min":54.265625,"x_max":651.09375,"ha":705,"o":"m 54 705 q 70 743 54 727 q 108 759 86 759 q 146 743 130 759 q 162 705 162 727 l 162 542 q 218 408 162 463 q 352 352 274 352 q 486 408 431 352 q 542 541 542 463 l 542 705 q 558 743 542 727 q 596 759 574 759 q 635 743 619 759 q 651 705 651 727 l 651 54 q 635 15 651 31 q 596 0 619 0 q 558 15 574 0 q 542 54 542 31 l 542 312 q 352 244 461 244 q 141 331 229 244 q 54 542 54 419 l 54 705 "},"δ":{"x_min":54.265625,"x_max":813.875,"ha":868,"o":"m 434 651 q 242 571 321 651 q 162 379 162 492 q 242 187 162 267 q 434 108 321 108 q 626 187 546 108 q 705 379 705 267 q 626 571 705 492 q 434 651 546 651 m 705 1085 q 743 1069 727 1085 q 759 1030 759 1053 q 743 992 759 1008 q 705 976 727 976 l 311 976 l 676 672 q 813 379 813 550 q 702 111 813 222 q 434 0 591 0 q 165 111 276 0 q 54 379 54 222 q 165 648 54 537 q 404 758 265 748 l 123 992 l 123 993 q 108 1030 108 1009 q 124 1069 108 1053 q 162 1085 140 1085 l 705 1085 "},"Â":{"x_min":54.265625,"x_max":922.390625,"ha":977,"o":"m 293 379 l 158 33 q 147 15 154 23 q 108 0 130 0 q 70 15 86 0 q 54 54 54 31 q 59 77 54 67 l 436 1047 q 450 1069 440 1059 q 488 1085 465 1085 q 526 1069 510 1085 q 540 1047 536 1059 l 917 77 q 922 54 922 67 q 906 15 922 31 q 868 0 890 0 q 830 15 845 0 q 817 33 822 23 l 682 379 l 293 379 m 640 488 l 488 881 l 335 488 l 640 488 m 516 1376 l 678 1268 q 705 1220 705 1247 q 689 1182 705 1198 q 651 1166 673 1166 q 617 1178 631 1166 l 488 1263 l 359 1178 q 325 1166 345 1166 q 287 1182 303 1166 q 271 1220 271 1198 q 298 1268 271 1247 l 460 1376 q 488 1383 472 1383 q 516 1376 503 1383 "},"Į":{"x_min":0.6875,"x_max":326.234375,"ha":326,"o":"m 108 1030 q 124 1069 108 1053 q 162 1085 140 1085 q 201 1069 185 1085 q 217 1030 217 1053 l 217 54 q 201 15 217 31 q 162 0 185 0 q 124 15 140 0 q 108 54 108 31 l 108 1030 m 115 78 q 163 106 129 105 q 202 90 185 106 q 217 54 217 75 q 216 38 217 45 q 132 -63 206 -10 q 109 -108 109 -82 q 125 -146 109 -130 q 163 -162 141 -162 q 192 -153 179 -162 l 239 -119 q 271 -108 253 -108 q 310 -124 294 -108 q 326 -162 326 -140 q 307 -204 326 -189 l 252 -242 q 163 -271 211 -271 q 48 -223 96 -271 q 0 -108 0 -175 q 69 24 0 -29 q 115 78 105 54 "},"ω":{"x_min":54.265625,"x_max":922.390625,"ha":977,"o":"m 434 542 q 450 580 434 564 q 488 596 465 596 q 526 580 510 596 q 542 542 542 564 l 542 244 q 582 148 542 187 q 678 108 621 108 q 774 148 734 108 q 813 244 813 187 q 710 680 813 483 q 705 705 705 691 q 721 743 705 727 q 759 759 737 759 q 798 744 781 759 q 810 724 805 736 q 922 244 922 507 q 850 71 922 143 q 678 0 779 0 q 488 90 563 0 q 298 0 413 0 q 125 71 197 0 q 54 244 54 143 q 166 724 54 507 q 179 744 171 736 q 217 759 194 759 q 255 743 239 759 q 271 705 271 727 q 265 680 271 691 q 162 244 162 483 q 202 148 162 187 q 298 108 242 108 q 394 148 354 108 q 434 244 434 187 l 434 542 "},"Ţ":{"x_min":54.265625,"x_max":868.125,"ha":922,"o":"m 108 976 q 70 992 86 976 q 54 1030 54 1008 q 70 1069 54 1053 q 108 1085 86 1085 l 813 1085 q 852 1069 836 1085 q 868 1030 868 1053 q 852 992 868 1008 q 813 976 836 976 l 515 976 l 515 54 q 499 15 515 31 q 461 0 483 0 q 422 15 438 0 q 406 54 406 31 l 406 976 l 108 976 m 423 92 q 461 107 438 107 q 499 91 483 107 q 515 53 515 75 q 514 40 515 46 l 502 0 q 549 -27 527 -10 q 596 -129 596 -69 q 549 -230 596 -189 q 434 -271 501 -271 q 356 -252 394 -271 l 295 -215 q 271 -170 271 -196 q 287 -131 271 -147 q 325 -115 303 -115 q 354 -124 341 -115 l 407 -156 q 434 -163 420 -163 q 472 -154 456 -163 q 488 -129 488 -145 q 472 -104 488 -113 q 434 -95 456 -95 q 395 -79 411 -95 q 379 -41 379 -63 q 382 -23 379 -31 l 408 69 q 423 92 413 82 "},"´":{"x_min":54.265625,"x_max":325.546875,"ha":380,"o":"m 310 992 l 145 828 q 108 813 130 813 q 70 829 86 813 q 54 868 54 845 q 67 904 54 889 l 232 1069 q 271 1085 248 1085 q 309 1069 293 1085 q 325 1030 325 1053 q 310 992 325 1009 "},"Ĉ":{"x_min":54.265625,"x_max":957.65625,"ha":1004,"o":"m 899 212 q 937 197 921 212 q 953 158 953 181 q 937 120 953 136 q 596 0 786 0 q 213 159 372 0 q 54 542 54 318 q 213 926 54 767 q 596 1085 372 1085 q 942 961 790 1085 q 957 922 957 944 q 941 884 957 900 q 903 868 925 868 q 864 884 881 868 q 596 976 750 976 q 289 849 417 976 q 162 542 162 722 q 289 235 162 362 q 596 108 417 108 q 868 203 752 108 q 899 212 881 212 m 625 1376 l 787 1268 q 814 1220 814 1247 q 798 1182 814 1198 q 760 1166 782 1166 q 726 1178 740 1166 l 597 1263 l 468 1178 q 434 1166 454 1166 q 396 1182 412 1166 q 380 1220 380 1198 q 407 1268 380 1247 l 569 1376 q 597 1383 581 1383 q 625 1376 613 1383 "},"И":{"x_min":54.3125,"x_max":922.375,"ha":977,"o":"m 813 54 q 829 15 813 31 q 868 0 845 0 q 906 15 890 0 q 922 54 922 31 l 922 1030 q 906 1069 922 1053 q 868 1085 890 1085 q 826 1065 843 1085 l 162 212 l 162 1030 q 146 1069 162 1053 q 108 1085 130 1085 q 70 1069 86 1085 q 54 1030 54 1053 l 54 54 q 70 15 54 31 q 108 0 86 0 q 149 17 132 0 l 813 872 l 813 54 "},"Љ":{"x_min":54.265625,"x_max":1356.453125,"ha":1411,"o":"m 757 488 l 905 108 l 1058 108 q 1192 164 1136 108 q 1247 298 1247 219 q 1192 432 1247 377 q 1058 488 1136 488 l 757 488 m 868 0 q 829 15 845 0 q 817 33 822 23 l 488 881 l 158 33 q 147 16 154 23 q 108 0 130 0 q 70 15 86 0 q 54 54 54 31 q 59 77 54 67 l 436 1047 q 450 1069 440 1059 q 488 1085 465 1085 q 526 1069 510 1085 q 540 1047 536 1059 l 715 596 l 1058 596 q 1268 509 1181 596 q 1356 298 1356 421 q 1268 87 1356 174 q 1058 0 1181 0 l 868 0 "},"р":{"x_min":54.265625,"x_max":813.875,"ha":868,"o":"m 162 379 q 242 187 162 267 q 434 108 321 108 q 626 187 546 108 q 705 379 705 267 q 626 571 705 492 q 434 651 546 651 q 242 571 321 651 q 162 379 162 492 m 162 -271 q 146 -309 162 -293 q 108 -325 130 -325 q 70 -309 86 -325 q 54 -271 54 -293 l 54 379 q 165 648 54 537 q 434 759 276 759 q 702 648 591 759 q 813 379 813 537 q 702 111 813 222 q 434 0 591 0 q 165 111 276 0 q 162 113 164 112 l 162 -271 "},"Ω":{"x_min":54.265625,"x_max":1139.421875,"ha":1194,"o":"m 434 108 q 472 92 456 108 q 488 54 488 76 q 472 15 488 31 q 434 0 456 0 l 108 0 q 70 15 86 0 q 54 54 54 31 q 70 92 54 76 q 108 108 86 108 l 205 108 q 165 159 185 131 q 54 542 54 318 q 213 926 54 767 q 596 1085 372 1085 q 980 926 821 1085 q 1139 542 1139 767 q 1028 159 1139 318 q 988 108 1008 131 l 1085 108 q 1123 92 1107 108 q 1139 54 1139 76 q 1123 15 1139 31 q 1085 0 1107 0 l 759 0 q 721 15 737 0 q 705 54 705 31 q 721 92 705 76 q 759 108 737 108 q 951 235 872 108 q 1030 542 1030 362 q 903 849 1030 722 q 596 976 776 976 q 289 849 417 976 q 162 542 162 722 q 242 235 162 362 q 434 108 321 108 "},"т":{"x_min":54.265625,"x_max":1139.421875,"ha":1194,"o":"m 162 54 q 146 15 162 31 q 108 0 130 0 q 70 15 86 0 q 54 54 54 31 l 54 705 q 70 743 54 727 q 108 759 86 759 q 146 743 130 759 q 162 705 162 727 l 162 691 q 352 759 243 759 q 563 672 476 759 q 596 633 581 653 q 630 672 611 653 q 841 759 717 759 q 1051 672 964 759 q 1139 461 1139 584 l 1139 54 q 1123 15 1139 31 q 1085 0 1107 0 q 1046 15 1062 0 q 1030 54 1030 31 l 1030 461 q 975 595 1030 539 q 841 651 919 651 q 706 595 762 651 q 651 461 651 539 l 651 54 q 635 15 651 31 q 596 0 619 0 q 558 15 574 0 q 542 54 542 31 l 542 461 q 486 595 542 539 q 352 651 431 651 q 218 595 274 651 q 162 461 162 539 l 162 54 "},"П":{"x_min":54.265625,"x_max":813.875,"ha":868,"o":"m 759 1085 q 797 1069 781 1085 q 813 1030 813 1053 l 813 54 q 797 15 813 31 q 759 0 781 0 q 721 15 737 0 q 705 54 705 31 l 705 976 l 162 976 l 162 54 q 146 15 162 31 q 108 0 130 0 q 70 15 86 0 q 54 54 54 31 l 54 1030 q 70 1069 54 1053 q 108 1085 86 1085 l 759 1085 "},"Ö":{"x_min":54.265625,"x_max":1139.421875,"ha":1194,"o":"m 596 976 q 289 849 417 976 q 162 542 162 722 q 289 235 162 362 q 596 108 417 108 q 903 235 776 108 q 1030 542 1030 362 q 903 849 1030 722 q 596 976 776 976 m 1139 542 q 980 159 1139 318 q 596 0 821 0 q 213 159 372 0 q 54 542 54 318 q 213 926 54 767 q 596 1085 372 1085 q 980 926 821 1085 q 1139 542 1139 767 m 501 1247 q 481 1200 501 1220 q 434 1180 461 1180 q 386 1200 406 1180 q 366 1247 366 1220 q 386 1295 366 1275 q 434 1315 406 1315 q 481 1295 461 1315 q 501 1247 501 1275 m 827 1247 q 807 1200 827 1220 q 759 1180 787 1180 q 711 1200 731 1180 q 691 1247 691 1220 q 711 1295 691 1275 q 759 1315 731 1315 q 807 1295 787 1315 q 827 1247 827 1275 "},"z":{"x_min":54.265625,"x_max":705.359375,"ha":760,"o":"m 651 108 q 689 92 673 108 q 705 54 705 76 q 689 15 705 31 q 651 0 673 0 l 108 0 q 70 15 86 0 q 54 54 54 31 q 65 87 54 73 l 535 651 l 108 651 q 70 667 86 651 q 54 705 54 682 q 70 743 54 727 q 108 759 86 759 l 651 759 q 689 743 673 759 q 705 705 705 727 q 692 670 705 685 l 223 108 l 651 108 "},"™":{"x_min":54.265625,"x_max":949.53125,"ha":1017,"o":"m 78 1041 q 61 1048 68 1041 q 54 1063 54 1054 q 61 1078 54 1072 q 78 1085 68 1085 l 396 1085 q 413 1078 406 1085 q 420 1063 420 1072 q 413 1048 420 1054 q 396 1041 406 1041 l 261 1041 l 261 672 q 254 657 261 663 q 237 651 247 651 q 220 657 227 651 q 212 672 212 663 l 212 1041 l 78 1041 m 682 664 l 510 971 l 510 672 q 502 657 510 663 q 485 651 495 651 q 468 657 475 651 q 461 672 461 663 l 461 1063 q 468 1078 461 1072 q 485 1085 475 1085 q 507 1073 500 1085 l 705 721 l 903 1073 q 925 1085 910 1085 q 942 1078 935 1085 q 949 1063 949 1072 l 949 672 q 942 657 949 663 q 925 651 935 651 q 907 657 915 651 q 900 672 900 663 l 900 971 l 726 661 q 705 651 720 651 q 682 664 690 651 "},"Θ":{"x_min":54.265625,"x_max":1139.421875,"ha":1194,"o":"m 596 976 q 289 849 417 976 q 162 542 162 722 q 289 235 162 362 q 596 108 417 108 q 903 235 776 108 q 1030 542 1030 362 q 903 849 1030 722 q 596 976 776 976 m 1139 542 q 980 159 1139 318 q 596 0 821 0 q 213 159 372 0 q 54 542 54 318 q 213 926 54 767 q 596 1085 372 1085 q 980 926 821 1085 q 1139 542 1139 767 m 325 489 q 287 504 303 489 q 271 543 271 520 q 287 581 271 565 q 325 597 303 597 l 868 597 q 906 581 890 597 q 922 543 922 565 q 906 504 922 520 q 868 489 890 489 l 325 489 "},"Ř":{"x_min":54.265625,"x_max":759.609375,"ha":814,"o":"m 162 976 l 162 542 l 379 542 q 533 605 470 542 q 596 759 596 669 q 533 913 596 849 q 379 976 470 976 l 162 976 m 108 1085 l 379 1085 q 610 989 514 1085 q 705 759 705 894 q 610 529 705 624 q 514 462 566 485 l 750 84 q 759 54 759 71 q 743 15 759 31 q 705 0 727 0 q 657 27 676 0 l 403 434 q 379 434 392 434 l 162 434 l 162 54 q 146 15 162 31 q 108 0 130 0 q 70 15 86 0 q 54 54 54 31 l 54 1030 q 70 1069 54 1053 q 108 1085 86 1085 m 326 1166 q 298 1174 310 1166 l 136 1281 q 109 1329 109 1302 q 125 1367 109 1351 q 163 1383 141 1383 q 197 1372 183 1383 l 326 1286 l 455 1372 q 489 1383 469 1383 q 527 1367 511 1383 q 543 1329 543 1351 q 516 1281 543 1302 l 354 1174 q 326 1166 341 1166 "},"Ň":{"x_min":54.265625,"x_max":922.390625,"ha":977,"o":"m 162 54 q 146 15 162 31 q 108 0 130 0 q 70 15 86 0 q 54 54 54 31 l 54 1030 q 70 1069 54 1053 q 108 1085 86 1085 q 150 1065 132 1085 l 813 212 l 813 1030 q 829 1069 813 1053 q 868 1085 845 1085 q 906 1069 890 1085 q 922 1030 922 1053 l 922 54 q 906 15 922 31 q 868 0 890 0 q 827 17 844 0 l 162 872 l 162 54 m 488 1166 q 460 1174 472 1166 l 298 1281 q 271 1329 271 1302 q 287 1367 271 1351 q 325 1383 303 1383 q 359 1372 345 1383 l 488 1286 l 617 1372 q 651 1383 631 1383 q 689 1367 673 1383 q 705 1329 705 1351 q 678 1281 705 1302 l 516 1174 q 488 1166 503 1166 "},"É":{"x_min":54.9375,"x_max":814.546875,"ha":868,"o":"m 109 1085 l 760 1085 q 798 1069 782 1085 q 814 1030 814 1053 q 798 992 814 1008 q 760 976 782 976 l 163 976 l 163 596 l 597 596 q 635 580 619 596 q 651 542 651 564 q 635 504 651 520 q 597 488 619 488 l 163 488 l 163 108 l 760 108 q 798 92 782 108 q 814 54 814 76 q 798 15 814 31 q 760 0 782 0 l 109 0 q 70 15 86 0 q 54 54 54 31 l 54 1030 q 70 1069 54 1053 q 109 1085 86 1085 m 601 1318 l 436 1153 q 399 1139 421 1139 q 361 1155 377 1139 q 345 1193 345 1171 q 358 1230 345 1214 l 523 1395 q 562 1410 539 1410 q 600 1394 584 1410 q 616 1356 616 1378 q 601 1318 616 1334 "},"ұ":{"x_min":54.265625,"x_max":759.609375,"ha":814,"o":"m 461 -54 l 461 -271 q 445 -309 461 -293 q 406 -325 429 -325 q 368 -309 384 -325 q 352 -271 352 -293 l 352 -54 l 162 -54 q 124 -38 140 -54 q 108 0 108 -22 q 124 38 108 22 q 162 54 140 54 l 347 54 l 58 684 q 54 705 54 693 q 70 743 54 727 q 108 759 86 759 q 147 744 130 759 q 157 729 152 738 l 406 184 l 656 729 q 667 745 661 738 q 705 759 682 759 q 743 743 727 759 q 759 705 759 727 q 755 684 759 693 l 465 54 l 651 54 q 689 38 673 54 q 705 0 705 22 q 689 -38 705 -22 q 651 -54 673 -54 l 461 -54 "},"и":{"x_min":54.265625,"x_max":759.609375,"ha":814,"o":"m 759 54 q 743 15 759 31 q 705 0 727 0 q 667 15 682 0 q 651 54 651 31 l 651 98 q 406 0 549 0 q 157 103 261 0 q 54 352 54 206 l 54 705 q 70 743 54 727 q 108 759 86 759 q 146 743 130 759 q 162 705 162 727 l 162 352 q 234 180 162 251 q 406 108 305 108 q 579 180 507 108 q 651 352 651 251 l 651 705 q 667 743 651 727 q 705 759 682 759 q 743 743 727 759 q 759 705 759 727 l 759 54 "},"³":{"x_min":54.265625,"x_max":379.125,"ha":434,"o":"m 217 814 q 197 822 205 814 q 189 841 189 830 q 197 860 189 852 q 217 868 205 868 q 274 892 250 868 q 297 949 297 916 q 274 1007 297 983 q 217 1030 250 1030 q 159 1007 183 1030 q 135 949 135 983 q 127 930 135 938 q 108 923 119 923 q 89 930 96 923 q 81 949 81 938 q 121 1045 81 1005 q 217 1085 160 1085 q 312 1045 272 1085 q 352 949 352 1005 q 302 844 352 887 q 331 821 318 834 q 379 706 379 773 q 331 591 379 638 q 217 543 284 543 q 101 591 149 543 q 54 706 54 638 q 62 725 54 717 q 81 733 69 733 q 100 725 92 733 q 108 706 108 717 q 140 629 108 661 q 217 598 171 598 q 293 629 261 598 q 324 706 324 661 q 293 783 324 751 q 217 814 261 814 "},"[":{"x_min":54.265625,"x_max":379.8125,"ha":434,"o":"m 108 1085 l 325 1085 q 363 1069 347 1085 q 379 1030 379 1053 q 363 992 379 1008 q 325 976 347 976 l 162 976 l 162 -217 l 325 -217 q 363 -232 347 -217 q 379 -271 379 -248 q 363 -309 379 -293 q 325 -325 347 -325 l 108 -325 q 70 -309 86 -325 q 54 -271 54 -293 l 54 1030 q 70 1069 54 1053 q 108 1085 86 1085 "},"Ҝ":{"x_min":54.265625,"x_max":759.609375,"ha":814,"o":"m 271 519 l 162 411 l 162 54 q 146 15 162 31 q 108 0 130 0 q 70 15 86 0 q 54 54 54 31 l 54 1030 q 70 1069 54 1053 q 108 1085 86 1085 q 146 1069 130 1085 q 162 1030 162 1053 l 162 565 l 271 674 l 271 868 q 287 906 271 890 q 325 922 303 922 q 363 906 347 922 q 379 868 379 890 l 379 782 l 665 1068 q 705 1085 682 1085 q 743 1069 727 1085 q 759 1030 759 1053 q 744 992 759 1008 l 379 628 l 379 588 l 749 86 q 759 56 759 72 q 758 46 759 51 q 737 10 755 23 q 706 0 722 0 q 697 0 702 0 q 660 23 675 3 l 379 404 l 379 217 q 363 178 379 194 q 325 162 347 162 q 287 178 303 162 q 271 217 271 194 l 271 519 "},"ζ":{"x_min":54.265625,"x_max":705.359375,"ha":760,"o":"m 488 -325 q 450 -309 465 -325 q 434 -271 434 -293 q 450 -232 434 -248 q 488 -217 465 -217 q 564 -185 533 -217 q 596 -108 596 -153 q 564 -31 596 -63 q 488 0 533 0 q 181 127 308 0 q 54 434 54 254 q 224 779 54 647 l 488 976 l 217 976 q 178 992 194 976 q 162 1030 162 1008 q 178 1069 162 1053 q 217 1085 194 1085 l 651 1085 q 689 1069 673 1085 q 705 1030 705 1053 q 676 982 705 1003 l 287 691 q 162 434 162 589 q 258 203 162 299 q 488 108 353 108 q 641 45 578 108 q 705 -108 705 -18 q 641 -262 705 -198 q 488 -325 578 -325 "},"∏":{"x_min":54.265625,"x_max":922.390625,"ha":977,"o":"m 108 1085 l 868 1085 q 906 1069 890 1085 q 922 1030 922 1053 l 922 -271 q 906 -309 922 -293 q 868 -325 890 -325 q 829 -309 845 -325 q 813 -271 813 -293 l 813 976 l 162 976 l 162 -271 q 146 -309 162 -293 q 108 -325 130 -325 q 70 -309 86 -325 q 54 -271 54 -293 l 54 1030 q 70 1069 54 1053 q 108 1085 86 1085 "},"Έ":{"x_min":-27.125,"x_max":1056.671875,"ha":1112,"o":"m 229 992 l 64 828 q 27 813 48 813 q -11 829 4 813 q -27 868 -27 845 q -13 904 -27 889 l 151 1069 q 189 1085 167 1085 q 228 1069 212 1085 q 244 1030 244 1053 q 229 992 244 1009 m 351 1085 l 1002 1085 q 1040 1069 1024 1085 q 1056 1030 1056 1053 q 1040 992 1056 1008 q 1002 976 1024 976 l 405 976 l 405 596 l 839 596 q 877 580 862 596 q 893 542 893 564 q 877 504 893 520 q 839 488 862 488 l 405 488 l 405 108 l 1002 108 q 1040 92 1024 108 q 1056 54 1056 76 q 1040 15 1056 31 q 1002 0 1024 0 l 351 0 q 313 15 328 0 q 297 54 297 31 l 297 1030 q 313 1069 297 1053 q 351 1085 328 1085 "},"Ρ":{"x_min":54.265625,"x_max":678.21875,"ha":732,"o":"m 162 976 l 162 488 l 325 488 q 498 559 426 488 q 569 732 569 631 q 498 905 569 833 q 325 976 426 976 l 162 976 m 108 1085 l 325 1085 q 574 981 471 1085 q 678 732 678 878 q 574 483 678 586 q 325 379 471 379 l 162 379 l 162 54 q 146 15 162 31 q 108 0 130 0 q 70 15 86 0 q 54 54 54 31 l 54 1030 q 70 1069 54 1053 q 108 1085 86 1085 "},"ğ":{"x_min":54.265625,"x_max":813.875,"ha":868,"o":"m 434 651 q 242 571 321 651 q 162 379 162 492 q 242 187 162 267 q 434 108 321 108 q 626 187 546 108 q 705 379 705 267 q 626 571 705 492 q 434 651 546 651 m 705 113 q 702 111 704 112 q 434 0 591 0 q 165 111 276 0 q 54 379 54 222 q 165 648 54 537 q 434 759 276 759 q 702 648 591 759 q 813 379 813 537 l 813 0 q 728 -206 813 -118 q 440 -325 609 -325 q 152 -206 271 -325 q 80 -111 108 -162 q 72 -83 72 -99 q 88 -45 72 -61 q 126 -29 104 -29 q 165 -44 149 -29 q 177 -61 172 -52 q 229 -129 197 -97 q 440 -217 316 -217 q 651 -129 563 -217 q 705 0 705 -64 l 705 113 m 221 1003 q 237 1042 221 1026 q 275 1058 252 1058 q 313 1042 297 1058 q 329 1003 329 1026 q 361 965 329 981 q 438 949 393 949 q 515 965 482 949 q 547 1003 547 981 q 563 1042 547 1026 q 601 1058 579 1058 q 639 1042 623 1058 q 655 1003 655 1026 q 592 889 652 932 q 438 841 528 841 q 284 888 347 841 q 221 1003 221 936 "},"ª":{"x_min":54.265625,"x_max":596.84375,"ha":651,"o":"m 325 976 q 210 928 258 976 q 162 813 162 881 q 210 698 162 746 q 325 651 258 651 q 440 698 392 651 q 488 813 488 746 q 440 928 488 881 q 325 976 392 976 m 488 596 q 325 542 418 542 q 133 621 212 542 q 54 813 54 701 q 133 1005 54 926 q 325 1085 212 1085 q 517 1005 438 1085 q 596 813 596 926 l 596 596 q 580 558 596 574 q 542 542 564 542 q 504 558 520 542 q 488 596 488 574 "},"ї":{"x_min":-26.453125,"x_max":434.734375,"ha":407,"o":"m 149 705 q 165 743 149 727 q 203 759 181 759 q 241 743 225 759 q 257 705 257 727 l 257 54 q 241 15 257 31 q 203 0 225 0 q 165 15 181 0 q 149 54 149 31 l 149 705 m 109 922 q 89 874 109 894 q 41 854 69 854 q -6 874 13 854 q -26 922 -26 894 q -6 970 -26 950 q 41 990 13 990 q 89 970 69 990 q 109 922 109 950 m 434 922 q 414 874 434 894 q 366 854 394 854 q 319 874 339 854 q 299 922 299 894 q 319 970 299 950 q 366 990 339 990 q 414 970 394 990 q 434 922 434 950 "},"T":{"x_min":54.265625,"x_max":868.125,"ha":922,"o":"m 108 976 q 70 992 86 976 q 54 1030 54 1008 q 70 1069 54 1053 q 108 1085 86 1085 l 813 1085 q 852 1069 836 1085 q 868 1030 868 1053 q 852 992 868 1008 q 813 976 836 976 l 515 976 l 515 54 q 499 15 515 31 q 461 0 483 0 q 422 15 438 0 q 406 54 406 31 l 406 976 l 108 976 "},"š":{"x_min":54.265625,"x_max":664.65625,"ha":719,"o":"m 188 379 q 102 427 126 402 q 54 542 54 475 q 104 659 54 609 q 359 759 202 759 q 651 623 529 759 q 661 591 661 610 q 645 553 661 569 q 607 537 629 537 q 571 551 584 537 q 551 571 557 565 q 359 651 472 651 q 179 580 246 651 q 163 533 163 560 q 196 490 165 501 l 530 379 q 616 331 592 356 q 664 217 664 284 q 614 99 664 149 q 359 0 516 0 q 67 136 188 0 q 57 168 57 150 q 73 206 57 190 q 111 222 89 222 q 147 208 134 222 q 167 187 161 193 q 359 108 246 108 q 539 179 472 108 q 555 225 555 198 q 522 269 553 257 l 188 379 m 359 841 q 331 848 343 841 l 169 956 q 142 1003 142 976 q 158 1042 142 1026 q 196 1058 174 1058 q 230 1046 216 1058 l 359 961 l 488 1046 q 522 1058 502 1058 q 560 1042 544 1058 q 576 1003 576 1026 q 549 956 576 976 l 387 848 q 359 841 375 841 "},"є":{"x_min":57.6875,"x_max":703.984375,"ha":760,"o":"m 170 434 q 245 571 185 512 q 437 651 324 651 q 615 583 539 651 q 649 571 630 571 q 688 587 672 571 q 703 626 703 603 q 685 668 703 651 q 437 759 579 759 q 168 648 280 759 q 57 379 57 537 q 168 111 57 222 q 437 0 280 0 q 685 91 579 0 q 701 131 701 109 q 686 169 701 153 q 647 185 670 185 q 614 174 628 185 q 437 108 539 108 q 245 187 324 108 q 170 325 185 247 l 486 325 q 525 341 509 325 q 541 379 541 357 q 525 418 541 402 q 486 434 509 434 l 170 434 "},"Þ":{"x_min":54.265625,"x_max":813.875,"ha":868,"o":"m 54 1030 q 70 1069 54 1053 q 108 1085 86 1085 q 146 1069 130 1085 q 162 1030 162 1053 l 162 868 l 488 868 q 718 772 623 868 q 813 542 813 677 q 718 312 813 407 q 488 217 623 217 l 162 217 l 162 54 q 146 15 162 31 q 108 0 130 0 q 70 15 86 0 q 54 54 54 31 l 54 1030 m 488 325 q 641 388 578 325 q 705 542 705 452 q 641 696 705 632 q 488 759 578 759 l 162 759 l 162 325 l 488 325 "},"j":{"x_min":0,"x_max":393.375,"ha":445,"o":"m 393 922 q 373 874 393 894 q 325 854 353 854 q 277 874 297 854 q 257 922 257 894 q 277 970 257 950 q 325 990 297 990 q 373 970 353 990 q 393 922 393 950 m 271 0 l 271 705 q 287 743 271 727 q 325 759 303 759 q 363 743 347 759 q 379 705 379 727 l 379 0 q 284 -230 379 -134 q 54 -325 189 -325 q 15 -309 31 -325 q 0 -271 0 -293 q 15 -232 0 -248 q 54 -217 31 -217 q 207 -153 144 -217 q 271 0 271 -90 "},"Σ":{"x_min":54.265625,"x_max":813.875,"ha":868,"o":"m 759 1085 q 797 1069 781 1085 q 813 1030 813 1053 q 797 992 813 1008 q 759 976 781 976 l 219 976 l 532 574 q 542 542 542 560 q 532 510 542 524 l 219 108 l 759 108 q 797 92 781 108 q 813 54 813 76 q 797 15 813 31 q 759 0 781 0 l 108 0 q 70 15 86 0 q 54 54 54 31 q 63 84 54 71 l 419 542 l 63 1001 q 54 1030 54 1013 q 70 1069 54 1053 q 108 1085 86 1085 l 759 1085 "},"1":{"x_min":54.265625,"x_max":325.546875,"ha":380,"o":"m 325 54 q 309 15 325 31 q 271 0 293 0 q 232 15 248 0 q 217 54 217 31 l 217 955 l 129 926 q 108 922 119 922 q 70 938 86 922 q 54 976 54 954 q 70 1015 54 999 q 88 1027 78 1023 l 251 1081 q 271 1085 260 1085 q 309 1069 293 1085 q 325 1030 325 1053 l 325 54 "},"ℓ":{"x_min":54.265625,"x_max":488.328125,"ha":543,"o":"m 162 922 q 210 1037 162 989 q 325 1085 258 1085 q 440 1037 392 1085 q 488 922 488 989 q 473 852 488 884 l 271 499 l 271 162 q 287 124 271 140 q 325 108 303 108 q 364 124 347 108 q 400 138 379 138 q 438 122 422 138 q 454 84 454 106 q 440 48 454 63 q 325 0 390 0 q 210 47 258 0 q 162 162 162 95 l 162 310 l 154 296 q 108 271 139 271 q 70 287 86 271 q 54 325 54 303 q 61 353 54 341 l 162 529 l 162 922 m 375 899 q 379 922 379 909 q 363 960 379 944 q 325 976 347 976 q 287 960 303 976 q 271 922 271 944 l 271 718 l 375 899 "},"Ү":{"x_min":54.265625,"x_max":813.875,"ha":868,"o":"m 488 54 q 472 15 488 31 q 434 0 456 0 q 395 15 411 0 q 379 54 379 31 l 379 526 l 63 1000 q 54 1030 54 1013 q 70 1069 54 1053 q 108 1085 86 1085 q 152 1062 136 1085 l 434 640 l 715 1062 q 759 1085 731 1085 q 797 1069 781 1085 q 813 1030 813 1053 q 805 1000 813 1013 l 488 526 l 488 54 "},"ĉ":{"x_min":54.265625,"x_max":700.609375,"ha":760,"o":"m 644 185 q 682 169 666 185 q 698 131 698 153 q 681 91 698 109 q 434 0 576 0 q 165 111 276 0 q 54 379 54 222 q 165 648 54 537 q 434 759 276 759 q 681 668 576 759 q 700 626 700 651 q 684 587 700 603 q 646 571 668 571 q 611 583 626 571 q 434 651 535 651 q 242 571 321 651 q 162 379 162 492 q 242 187 162 267 q 434 108 321 108 q 611 174 535 108 q 644 185 625 185 m 462 1050 l 624 942 q 651 895 651 922 q 635 856 651 872 q 597 841 619 841 q 563 852 577 841 l 434 937 l 305 852 q 271 841 291 841 q 233 856 249 841 q 217 895 217 872 q 244 942 217 922 l 406 1050 q 434 1058 419 1058 q 462 1050 450 1058 "},"ī":{"x_min":-26.4375,"x_max":407.625,"ha":380,"o":"m 135 705 q 151 743 135 727 q 189 759 167 759 q 228 743 212 759 q 244 705 244 727 l 244 54 q 228 15 244 31 q 189 0 212 0 q 151 15 167 0 q 135 54 135 31 l 135 705 m 27 868 q -10 884 5 868 q -26 922 -26 900 q -10 960 -26 944 q 27 976 5 976 l 353 976 q 391 960 375 976 q 407 922 407 944 q 391 884 407 900 q 353 868 375 868 l 27 868 "},"О":{"x_min":54.265625,"x_max":1139.421875,"ha":1194,"o":"m 596 976 q 289 849 417 976 q 162 542 162 722 q 289 235 162 362 q 596 108 417 108 q 903 235 776 108 q 1030 542 1030 362 q 903 849 1030 722 q 596 976 776 976 m 1139 542 q 980 159 1139 318 q 596 0 821 0 q 213 159 372 0 q 54 542 54 318 q 213 926 54 767 q 596 1085 372 1085 q 980 926 821 1085 q 1139 542 1139 767 "},"ξ":{"x_min":54.265625,"x_max":623.96875,"ha":651,"o":"m 406 108 q 560 45 497 108 q 623 -108 623 -18 q 560 -262 623 -198 q 406 -325 497 -325 q 368 -309 384 -325 q 352 -271 352 -293 q 368 -232 352 -248 q 406 -217 384 -217 q 483 -185 451 -217 q 515 -108 515 -153 q 483 -31 515 -63 q 406 0 451 0 q 157 103 261 0 q 54 352 54 206 q 158 602 54 498 q 207 644 181 626 q 180 668 193 655 q 108 841 108 739 q 180 1013 108 942 q 352 1085 251 1085 l 488 1085 q 526 1069 510 1085 q 542 1030 542 1053 q 526 992 542 1008 q 488 976 510 976 l 352 976 q 256 936 296 976 q 217 841 217 897 q 256 745 217 784 q 352 705 296 705 l 488 705 q 526 689 510 705 q 542 651 542 673 q 526 612 542 628 q 488 596 510 596 l 406 596 q 234 525 305 596 q 162 352 162 453 q 234 180 162 251 q 406 108 305 108 "},"Ď":{"x_min":54.265625,"x_max":868.125,"ha":922,"o":"m 325 108 q 632 235 505 108 q 759 542 759 362 q 632 849 759 722 q 325 976 505 976 l 162 976 l 162 108 l 325 108 m 325 1085 q 709 926 550 1085 q 868 542 868 767 q 709 159 868 318 q 325 0 550 0 l 108 0 q 70 15 86 0 q 54 54 54 31 l 54 1030 q 70 1069 54 1053 q 108 1085 86 1085 l 325 1085 m 379 1166 q 352 1174 364 1166 l 189 1281 q 162 1329 162 1302 q 178 1367 162 1351 q 217 1383 194 1383 q 250 1372 236 1383 l 379 1286 l 508 1372 q 542 1383 522 1383 q 580 1367 564 1383 q 596 1329 596 1351 q 569 1281 596 1302 l 407 1174 q 379 1166 395 1166 "},"&":{"x_min":54.265625,"x_max":922.390625,"ha":977,"o":"m 256 745 l 340 660 l 421 724 q 488 841 488 777 q 448 936 488 897 q 352 976 408 976 q 256 936 296 976 q 217 841 217 897 q 256 745 217 784 m 581 265 l 328 518 l 252 459 q 162 311 162 390 q 218 164 162 219 q 352 108 274 108 q 486 164 431 108 l 581 265 m 415 585 l 655 344 l 775 472 q 813 488 791 488 q 852 472 836 488 q 868 434 868 456 q 854 397 868 413 l 732 267 l 907 90 q 922 54 922 75 q 906 15 922 31 q 868 0 890 0 q 830 14 846 0 l 657 187 l 563 87 q 352 0 476 0 q 141 87 229 0 q 54 311 54 174 q 182 536 54 435 l 254 592 l 179 668 q 108 841 108 739 q 180 1013 108 942 q 352 1085 251 1085 q 525 1013 453 1085 q 596 841 596 942 q 497 647 596 733 l 415 585 "},"G":{"x_min":54.265625,"x_max":957.65625,"ha":1017,"o":"m 953 158 q 937 120 953 136 q 596 0 786 0 q 213 159 372 0 q 54 542 54 318 q 213 926 54 767 q 596 1085 372 1085 q 942 961 790 1085 q 957 922 957 944 q 941 884 957 900 q 903 868 925 868 q 864 884 881 868 q 596 976 750 976 q 289 849 417 976 q 162 542 162 722 q 289 235 162 362 q 596 108 417 108 q 845 185 737 108 l 845 434 l 630 434 q 592 450 608 434 q 576 488 576 465 q 592 526 576 510 q 630 542 608 542 l 900 542 q 937 526 921 542 q 953 488 953 510 l 953 158 "},"ΰ":{"x_min":54.265625,"x_max":759.609375,"ha":814,"o":"m 406 0 q 157 103 261 0 q 54 352 54 206 l 54 705 q 70 743 54 727 q 108 759 86 759 q 146 743 130 759 q 162 705 162 727 l 162 352 q 234 180 162 251 q 406 108 305 108 q 579 180 507 108 q 651 352 651 251 l 651 705 q 667 743 651 727 q 705 759 682 759 q 743 743 727 759 q 759 705 759 727 l 759 352 q 656 103 759 206 q 406 0 552 0 m 541 992 l 377 828 q 339 813 361 813 q 301 829 317 813 q 285 868 285 845 q 299 904 285 889 l 463 1069 q 502 1085 480 1085 q 540 1069 524 1085 q 556 1030 556 1053 q 541 992 556 1009 m 257 922 q 237 874 257 894 q 189 854 217 854 q 142 874 162 854 q 122 922 122 894 q 142 970 122 950 q 189 990 162 990 q 237 970 217 990 q 257 922 257 950 m 691 922 q 671 874 691 894 q 623 854 651 854 q 576 874 596 854 q 556 922 556 894 q 576 970 556 950 q 623 990 596 990 q 671 970 651 990 q 691 922 691 950 "},"`":{"x_min":54.265625,"x_max":325.546875,"ha":380,"o":"m 54 1030 q 70 1069 54 1053 q 108 1085 86 1085 q 147 1069 130 1085 l 311 904 q 325 868 325 889 q 309 829 325 845 q 271 813 293 813 q 233 828 249 813 l 69 992 q 54 1030 54 1009 "},"ŏ":{"x_min":54.265625,"x_max":813.875,"ha":868,"o":"m 813 379 q 702 111 813 222 q 434 0 591 0 q 165 111 276 0 q 54 379 54 222 q 165 648 54 537 q 434 759 276 759 q 702 648 591 759 q 813 379 813 537 m 434 651 q 242 571 321 651 q 162 379 162 492 q 242 187 162 267 q 434 108 321 108 q 626 187 546 108 q 705 379 705 267 q 626 571 705 492 q 434 651 546 651 m 221 1003 q 237 1042 221 1026 q 275 1058 252 1058 q 313 1042 297 1058 q 329 1003 329 1026 q 361 965 329 981 q 438 949 393 949 q 515 965 482 949 q 547 1003 547 981 q 563 1042 547 1026 q 601 1058 579 1058 q 639 1042 623 1058 q 655 1003 655 1026 q 592 889 652 932 q 438 841 528 841 q 284 888 347 841 q 221 1003 221 936 "},"ý":{"x_min":54.265625,"x_max":705.359375,"ha":760,"o":"m 320 54 l 60 680 q 54 705 54 691 q 70 743 54 727 q 108 759 86 759 q 147 744 130 759 q 160 723 155 734 l 379 196 l 599 723 q 613 744 603 734 q 651 759 628 759 q 689 743 673 759 q 705 705 705 727 q 699 680 705 691 l 295 -289 q 282 -309 290 -300 q 243 -325 265 -325 q 205 -309 221 -325 q 189 -271 189 -293 q 195 -246 189 -257 l 320 54 m 545 992 l 381 828 q 343 813 365 813 q 305 829 321 813 q 289 868 289 845 q 303 904 289 889 l 467 1069 q 506 1085 484 1085 q 544 1069 529 1085 q 560 1030 560 1053 q 545 992 560 1009 "},"º":{"x_min":54.265625,"x_max":377.765625,"ha":434,"o":"m 54 815 q 120 1045 54 977 q 216 1085 160 1085 q 311 1045 271 1085 q 377 815 377 977 q 311 585 377 653 q 216 545 271 545 q 120 585 160 545 q 54 815 54 653 m 216 1031 q 158 1007 182 1031 q 108 815 108 950 q 158 623 108 680 q 216 600 182 600 q 273 623 249 600 q 324 815 324 680 q 273 1007 324 950 q 216 1031 249 1031 "},"∞":{"x_min":54.265625,"x_max":1030.90625,"ha":1085,"o":"m 325 651 q 210 603 258 651 q 162 488 162 555 q 210 373 162 421 q 325 325 258 325 q 440 373 392 325 q 488 488 488 421 q 440 603 488 555 q 325 651 392 651 m 759 651 q 644 603 692 651 q 596 488 596 555 q 644 373 596 421 q 759 325 692 325 q 874 373 826 325 q 922 488 922 421 q 874 603 922 555 q 759 651 826 651 m 542 324 q 517 296 531 309 q 325 217 438 217 q 133 296 212 217 q 54 488 54 375 q 133 680 54 600 q 325 759 212 759 q 517 680 438 759 q 542 651 531 666 q 567 680 554 666 q 759 759 647 759 q 951 680 872 759 q 1030 488 1030 600 q 951 296 1030 375 q 759 217 872 217 q 567 296 647 217 q 542 324 554 309 "},"ź":{"x_min":54.265625,"x_max":705.359375,"ha":760,"o":"m 651 108 q 689 92 673 108 q 705 54 705 76 q 689 15 705 31 q 651 0 673 0 l 108 0 q 70 15 86 0 q 54 54 54 31 q 65 87 54 73 l 535 651 l 108 651 q 70 667 86 651 q 54 705 54 682 q 70 743 54 727 q 108 759 86 759 l 651 759 q 689 743 673 759 q 705 705 705 727 q 692 670 705 685 l 223 108 l 651 108 m 545 992 l 381 828 q 343 813 365 813 q 305 829 321 813 q 289 868 289 845 q 303 904 289 889 l 467 1069 q 506 1085 484 1085 q 544 1069 529 1085 q 560 1030 560 1053 q 545 992 560 1009 "},"я":{"x_min":27.125,"x_max":623.96875,"ha":678,"o":"m 515 434 l 515 651 l 298 651 q 221 619 253 651 q 189 542 189 587 q 221 465 189 497 q 298 434 253 434 l 515 434 m 569 759 q 608 743 592 759 q 623 705 623 727 l 623 54 q 608 15 623 31 q 569 0 592 0 q 531 15 547 0 q 515 54 515 31 l 515 325 l 352 325 q 276 293 307 325 q 255 265 263 280 l 131 33 q 120 16 127 23 q 81 0 103 0 q 43 15 59 0 q 27 54 27 31 q 35 84 27 71 l 159 317 q 185 356 170 337 q 145 389 164 369 q 81 542 81 452 q 144 696 81 632 q 298 759 208 759 l 569 759 "},"Ё":{"x_min":54.265625,"x_max":813.875,"ha":868,"o":"m 108 1085 l 759 1085 q 797 1069 781 1085 q 813 1030 813 1053 q 797 992 813 1008 q 759 976 781 976 l 162 976 l 162 596 l 596 596 q 635 580 619 596 q 651 542 651 564 q 635 504 651 520 q 596 488 619 488 l 162 488 l 162 108 l 759 108 q 797 92 781 108 q 813 54 813 76 q 797 15 813 31 q 759 0 781 0 l 108 0 q 70 15 86 0 q 54 54 54 31 l 54 1030 q 70 1069 54 1053 q 108 1085 86 1085 m 339 1247 q 319 1200 339 1220 q 271 1180 299 1180 q 224 1200 244 1180 q 204 1247 204 1220 q 224 1295 204 1275 q 271 1315 244 1315 q 319 1295 299 1315 q 339 1247 339 1275 m 665 1247 q 645 1200 665 1220 q 597 1180 625 1180 q 549 1200 569 1180 q 529 1247 529 1220 q 549 1295 529 1275 q 597 1315 569 1315 q 645 1295 625 1315 q 665 1247 665 1275 "},"ń":{"x_min":54.265625,"x_max":759.609375,"ha":814,"o":"m 54 705 q 70 743 54 727 q 108 759 86 759 q 146 743 130 759 q 162 705 162 727 l 162 661 q 406 759 264 759 q 656 656 552 759 q 759 406 759 552 l 759 54 q 743 15 759 31 q 705 0 727 0 q 667 15 682 0 q 651 54 651 31 l 651 406 q 579 579 651 507 q 406 651 507 651 q 234 579 305 651 q 162 406 162 507 l 162 54 q 146 15 162 31 q 108 0 130 0 q 70 15 86 0 q 54 54 54 31 l 54 705 m 573 992 l 408 828 q 370 813 392 813 q 332 829 348 813 q 316 868 316 845 q 330 904 316 889 l 495 1069 q 533 1085 511 1085 q 572 1069 556 1085 q 588 1030 588 1053 q 573 992 588 1009 "},"Г":{"x_min":54.265625,"x_max":759.609375,"ha":814,"o":"m 54 63 l 54 1030 q 70 1069 54 1053 q 109 1085 86 1085 l 705 1085 q 743 1069 727 1085 q 759 1030 759 1053 q 743 992 759 1008 q 705 976 727 976 l 163 976 l 163 53 l 162 53 q 147 16 162 31 q 108 0 130 0 q 70 15 86 0 q 54 54 54 31 q 54 63 54 59 "},"Ь":{"x_min":54.265625,"x_max":705.359375,"ha":760,"o":"m 406 108 q 541 164 485 108 q 596 298 596 219 q 541 432 596 377 q 406 488 485 488 l 162 488 l 162 108 l 406 108 m 162 1030 l 162 596 l 406 596 q 617 509 530 596 q 705 298 705 421 q 617 87 705 174 q 406 0 530 0 l 108 0 q 70 15 86 0 q 54 54 54 31 l 54 1030 q 70 1069 54 1053 q 108 1085 86 1085 q 146 1069 130 1085 q 162 1030 162 1053 "},"¤":{"x_min":74.609375,"x_max":576.484375,"ha":651,"o":"m 325 617 q 248 585 280 617 q 217 508 217 553 q 248 432 217 463 q 325 400 280 400 q 402 432 370 400 q 434 508 434 463 q 402 585 434 553 q 325 617 370 617 m 484 744 q 522 759 499 759 q 560 743 544 759 q 576 705 576 727 q 560 666 576 682 l 512 621 q 542 508 542 571 q 514 399 542 448 l 560 350 q 576 311 576 334 q 560 273 576 289 q 522 257 544 257 q 485 272 500 257 l 484 271 l 438 322 q 325 291 387 291 q 217 320 265 291 l 164 271 q 128 257 149 257 q 90 273 106 257 q 74 311 74 289 q 90 350 74 334 l 139 396 q 108 508 108 445 q 137 617 108 569 l 90 667 q 74 705 74 682 q 90 743 74 727 q 128 759 106 759 q 166 745 150 759 l 212 695 q 325 725 263 725 q 434 697 385 725 l 484 744 "},"Ĝ":{"x_min":54.265625,"x_max":957.65625,"ha":1017,"o":"m 953 158 q 937 120 953 136 q 596 0 786 0 q 213 159 372 0 q 54 542 54 318 q 213 926 54 767 q 596 1085 372 1085 q 942 961 790 1085 q 957 922 957 944 q 941 884 957 900 q 903 868 925 868 q 864 884 881 868 q 596 976 750 976 q 289 849 417 976 q 162 542 162 722 q 289 235 162 362 q 596 108 417 108 q 845 185 737 108 l 845 434 l 630 434 q 592 450 608 434 q 576 488 576 465 q 592 526 576 510 q 630 542 608 542 l 900 542 q 937 526 921 542 q 953 488 953 510 l 953 158 m 624 1376 l 786 1268 q 813 1220 813 1247 q 797 1182 813 1198 q 759 1166 781 1166 q 725 1178 739 1166 l 596 1263 l 467 1178 q 434 1166 453 1166 q 395 1182 411 1166 q 379 1220 379 1198 q 406 1268 379 1247 l 569 1376 q 596 1383 581 1383 q 624 1376 612 1383 "},"p":{"x_min":54.265625,"x_max":813.875,"ha":868,"o":"m 162 379 q 242 187 162 267 q 434 108 321 108 q 626 187 546 108 q 705 379 705 267 q 626 571 705 492 q 434 651 546 651 q 242 571 321 651 q 162 379 162 492 m 162 -271 q 146 -309 162 -293 q 108 -325 130 -325 q 70 -309 86 -325 q 54 -271 54 -293 l 54 379 q 165 648 54 537 q 434 759 276 759 q 702 648 591 759 q 813 379 813 537 q 702 111 813 222 q 434 0 591 0 q 165 111 276 0 q 162 113 164 112 l 162 -271 "},"Ю":{"x_min":54.265625,"x_max":1356.453125,"ha":1411,"o":"m 813 976 q 506 849 634 976 q 379 542 379 722 q 506 235 379 362 q 813 108 634 108 q 1120 235 993 108 q 1247 542 1247 362 q 1120 849 1247 722 q 813 976 993 976 m 274 596 q 430 926 290 786 q 813 1085 589 1085 q 1197 926 1038 1085 q 1356 542 1356 767 q 1197 159 1356 318 q 813 0 1038 0 q 430 159 589 0 q 274 488 290 298 l 162 488 l 162 54 q 146 15 162 31 q 108 0 130 0 q 70 15 86 0 q 54 54 54 31 l 54 1030 q 70 1069 54 1053 q 108 1085 86 1085 q 146 1069 130 1085 q 162 1030 162 1053 l 162 596 l 274 596 "},"ο":{"x_min":54.265625,"x_max":813.875,"ha":868,"o":"m 813 379 q 702 111 813 222 q 434 0 591 0 q 165 111 276 0 q 54 379 54 222 q 165 648 54 537 q 434 759 276 759 q 702 648 591 759 q 813 379 813 537 m 434 651 q 242 571 321 651 q 162 379 162 492 q 242 187 162 267 q 434 108 321 108 q 626 187 546 108 q 705 379 705 267 q 626 571 705 492 q 434 651 546 651 "},"S":{"x_min":54.265625,"x_max":664.65625,"ha":719,"o":"m 65 148 q 54 181 54 162 q 70 219 54 203 q 108 235 86 235 q 154 210 137 235 q 173 185 162 197 q 321 109 231 116 q 479 160 411 102 q 555 307 548 218 q 504 466 562 398 q 356 541 446 534 q 172 636 244 551 q 108 834 99 722 q 203 1019 118 946 q 379 1085 280 1085 q 585 988 497 1085 q 612 951 600 970 q 620 922 620 938 q 604 884 620 900 q 566 868 588 868 q 528 884 540 868 q 503 917 516 900 q 392 974 459 969 q 274 936 325 980 q 217 826 222 892 q 255 707 211 758 q 365 650 299 655 q 588 536 500 638 q 664 330 664 445 q 663 299 664 314 q 550 78 652 164 q 341 0 458 0 q 90 115 196 0 q 65 148 76 130 "},"/":{"x_min":54.265625,"x_max":596.84375,"ha":651,"o":"m 504 1069 q 542 1085 520 1085 q 580 1069 564 1085 q 596 1030 596 1053 q 592 1007 596 1018 l 158 -77 q 147 -92 153 -85 q 108 -108 130 -108 q 70 -92 86 -108 q 54 -54 54 -76 q 59 -31 54 -42 l 493 1053 q 504 1069 497 1062 "},"Ŧ":{"x_min":54.265625,"x_max":868.125,"ha":922,"o":"m 406 542 l 406 976 l 108 976 q 70 992 86 976 q 54 1030 54 1008 q 70 1069 54 1053 q 108 1085 86 1085 l 813 1085 q 852 1069 836 1085 q 868 1030 868 1053 q 852 992 868 1008 q 813 976 836 976 l 515 976 l 515 542 l 732 542 q 770 526 754 542 q 786 488 786 510 q 770 450 786 465 q 732 434 754 434 l 515 434 l 515 54 q 499 15 515 31 q 461 0 483 0 q 422 15 438 0 q 406 54 406 31 l 406 434 l 189 434 q 151 450 167 434 q 135 488 135 465 q 151 526 135 510 q 189 542 167 542 l 406 542 "},"ђ":{"x_min":27.125,"x_max":841,"ha":895,"o":"m 732 406 q 660 579 732 507 q 488 651 589 651 q 315 579 387 651 q 244 406 244 507 l 244 54 q 228 15 244 31 q 189 0 212 0 q 151 15 167 0 q 135 54 135 31 l 135 868 l 81 868 q 43 884 59 868 q 27 922 27 900 q 43 960 27 944 q 81 976 59 976 l 135 976 l 135 1030 q 151 1069 135 1053 q 189 1085 167 1085 q 228 1069 212 1085 q 244 1030 244 1053 l 244 976 l 461 976 q 499 960 483 976 q 515 922 515 944 q 499 884 515 900 q 461 868 483 868 l 244 868 l 244 661 q 488 759 345 759 q 737 656 634 759 q 841 406 841 552 l 841 -108 q 777 -262 841 -198 q 623 -325 714 -325 q 548 -312 581 -325 q 531 -300 539 -308 q 515 -262 515 -284 q 531 -224 515 -240 q 569 -208 547 -208 q 590 -212 580 -208 q 623 -217 605 -217 q 700 -185 668 -217 q 732 -108 732 -153 l 732 406 "},"y":{"x_min":54.265625,"x_max":705.359375,"ha":760,"o":"m 320 54 l 60 680 q 54 705 54 691 q 70 743 54 727 q 108 759 86 759 q 147 744 130 759 q 160 723 155 734 l 379 196 l 599 723 q 613 744 603 734 q 651 759 628 759 q 689 743 673 759 q 705 705 705 727 q 699 680 705 691 l 295 -289 q 282 -309 290 -300 q 243 -325 265 -325 q 205 -309 221 -325 q 189 -271 189 -293 q 195 -246 189 -257 l 320 54 "},"Π":{"x_min":54.265625,"x_max":868.125,"ha":922,"o":"m 108 1085 l 813 1085 q 852 1069 836 1085 q 868 1030 868 1053 l 868 54 q 852 15 868 31 q 813 0 836 0 q 775 15 791 0 q 759 54 759 31 l 759 976 l 162 976 l 162 54 q 146 15 162 31 q 108 0 130 0 q 70 15 86 0 q 54 54 54 31 l 54 1030 q 70 1069 54 1053 q 108 1085 86 1085 "},"‗":{"x_min":-54.265625,"x_max":705.359375,"ha":645,"o":"m 0 -108 q -38 -92 -22 -108 q -54 -54 -54 -76 q -38 -15 -54 -31 q 0 0 -22 0 l 651 0 q 689 -15 673 0 q 705 -54 705 -31 q 689 -92 705 -76 q 651 -108 673 -108 l 0 -108 m 0 -297 q -38 -281 -22 -297 q -54 -243 -54 -265 q -38 -205 -54 -221 q 0 -189 -22 -189 l 651 -189 q 689 -205 673 -189 q 705 -243 705 -221 q 689 -281 705 -265 q 651 -297 673 -297 l 0 -297 "},"–":{"x_min":-54.265625,"x_max":596.84375,"ha":543,"o":"m 0 325 q -38 341 -22 325 q -54 379 -54 357 q -38 418 -54 402 q 0 434 -22 434 l 542 434 q 580 418 564 434 q 596 379 596 402 q 580 341 596 357 q 542 325 564 325 l 0 325 "},"ë":{"x_min":54.265625,"x_max":813.875,"ha":868,"o":"m 700 434 q 626 571 685 512 q 434 651 546 651 q 242 571 321 651 q 167 434 182 512 l 700 434 m 642 184 q 681 168 665 184 q 697 130 697 152 q 681 91 697 107 q 434 0 576 0 q 165 111 276 0 q 54 379 54 222 q 165 648 54 537 q 434 759 276 759 q 702 648 591 759 q 813 379 813 537 q 797 341 813 357 q 759 325 781 325 l 167 325 q 242 187 182 247 q 434 108 321 108 q 609 172 535 108 q 642 184 623 184 m 339 922 q 319 874 339 894 q 271 854 299 854 q 223 874 243 854 q 203 922 203 894 q 223 970 203 950 q 271 990 243 990 q 319 970 299 990 q 339 922 339 950 m 664 922 q 644 874 664 894 q 596 854 624 854 q 549 874 569 854 q 529 922 529 894 q 549 970 529 950 q 596 990 569 990 q 644 970 624 990 q 664 922 664 950 "},"б":{"x_min":54.265625,"x_max":813.875,"ha":868,"o":"m 705 379 q 626 571 705 492 q 434 651 546 651 q 242 571 321 651 q 162 379 162 492 q 242 187 162 267 q 434 108 321 108 q 626 187 546 108 q 705 379 705 267 m 162 645 q 165 648 164 647 q 434 759 276 759 q 702 648 591 759 q 813 379 813 537 q 702 111 813 222 q 434 0 591 0 q 165 111 276 0 q 54 379 54 222 l 54 651 q 165 919 54 808 q 434 1030 276 1030 l 465 1030 q 680 1079 583 1030 q 705 1085 691 1085 q 743 1069 727 1085 q 759 1030 759 1053 q 744 992 759 1008 q 729 982 737 986 q 465 922 610 922 l 434 922 q 242 843 321 922 q 162 651 162 763 l 162 645 "},"ƒ":{"x_min":0,"x_max":651.09375,"ha":651,"o":"m 271 0 l 271 610 l 217 610 q 178 626 194 610 q 162 664 162 642 q 178 702 162 687 q 217 718 194 718 l 271 718 l 271 759 q 596 1085 271 1085 q 635 1069 619 1085 q 651 1030 651 1053 q 635 992 651 1008 q 596 976 619 976 q 379 759 379 976 l 379 718 l 543 718 q 581 702 565 718 q 597 664 597 687 q 581 626 597 642 q 543 610 565 610 l 379 610 l 380 0 l 379 0 q 54 -325 379 -325 q 15 -309 31 -325 q 0 -271 0 -293 q 15 -232 0 -248 q 54 -217 31 -217 q 271 0 271 -217 l 271 0 "},"у":{"x_min":54.265625,"x_max":705.359375,"ha":760,"o":"m 320 54 l 60 680 q 54 705 54 691 q 70 743 54 727 q 108 759 86 759 q 147 744 130 759 q 160 723 155 734 l 379 196 l 599 723 q 613 744 603 734 q 651 759 628 759 q 689 743 673 759 q 705 705 705 727 q 699 680 705 691 l 295 -289 q 282 -309 290 -300 q 243 -325 265 -325 q 205 -309 221 -325 q 189 -271 189 -293 q 195 -246 189 -257 l 320 54 "},"J":{"x_min":54.265625,"x_max":705.359375,"ha":760,"o":"m 54 325 q 70 363 54 347 q 108 379 86 379 q 146 363 130 379 q 162 325 162 347 q 226 171 162 235 q 379 108 289 108 q 533 171 470 108 q 596 325 596 235 l 596 1030 q 612 1069 596 1053 q 651 1085 628 1085 q 689 1069 673 1085 q 705 1030 705 1053 l 705 325 q 610 95 705 190 q 379 0 514 0 q 149 95 244 0 q 54 325 54 190 "},"ŷ":{"x_min":54.265625,"x_max":705.359375,"ha":760,"o":"m 320 54 l 60 680 q 54 705 54 691 q 70 743 54 727 q 108 759 86 759 q 147 744 130 759 q 160 723 155 734 l 379 196 l 599 723 q 613 744 603 734 q 651 759 628 759 q 689 743 673 759 q 705 705 705 727 q 699 680 705 691 l 295 -289 q 282 -309 290 -300 q 243 -325 265 -325 q 205 -309 221 -325 q 189 -271 189 -293 q 195 -246 189 -257 l 320 54 m 407 1050 l 569 942 q 596 895 596 922 q 580 856 596 872 q 542 841 564 841 q 508 852 522 841 l 379 937 l 250 852 q 217 841 236 841 q 178 856 194 841 q 162 895 162 872 q 189 942 162 922 l 352 1050 q 379 1058 364 1058 q 407 1050 395 1058 "},"ŕ":{"x_min":54.265625,"x_max":617.859375,"ha":651,"o":"m 54 705 q 70 743 54 727 q 108 759 86 759 q 146 743 130 759 q 162 705 162 727 l 162 645 q 434 759 276 759 q 579 732 513 759 q 602 718 592 727 q 617 679 617 701 q 601 641 617 657 q 563 625 585 625 q 539 630 550 625 q 434 651 491 651 q 242 571 321 651 q 162 379 162 492 l 162 54 q 146 15 162 31 q 108 0 130 0 q 70 15 86 0 q 54 54 54 31 l 54 705 m 472 992 l 307 828 q 269 813 291 813 q 231 829 247 813 q 215 868 215 845 q 229 904 215 889 l 394 1069 q 432 1085 410 1085 q 471 1069 455 1085 q 486 1030 486 1053 q 472 992 486 1009 "},"ώ":{"x_min":54.265625,"x_max":922.390625,"ha":977,"o":"m 434 542 q 450 580 434 564 q 488 596 465 596 q 526 580 510 596 q 542 542 542 564 l 542 244 q 582 148 542 187 q 678 108 621 108 q 774 148 734 108 q 813 244 813 187 q 710 680 813 483 q 705 705 705 691 q 721 743 705 727 q 759 759 737 759 q 798 744 781 759 q 810 724 805 736 q 922 244 922 507 q 850 71 922 143 q 678 0 779 0 q 488 90 563 0 q 298 0 413 0 q 125 71 197 0 q 54 244 54 143 q 166 724 54 507 q 179 744 171 736 q 217 759 194 759 q 255 743 239 759 q 271 705 271 727 q 265 680 271 691 q 162 244 162 483 q 202 148 162 187 q 298 108 242 108 q 394 148 354 108 q 434 244 434 187 l 434 542 m 654 992 l 489 828 q 452 813 474 813 q 414 829 430 813 q 398 868 398 845 q 411 904 398 889 l 576 1069 q 615 1085 592 1085 q 653 1069 637 1085 q 669 1030 669 1053 q 654 992 669 1009 "},"˘":{"x_min":54.265625,"x_max":489,"ha":543,"o":"m 54 1003 q 70 1042 54 1026 q 108 1058 86 1058 q 146 1042 130 1058 q 162 1003 162 1026 q 194 965 162 981 q 271 949 226 949 q 348 965 316 949 q 380 1003 380 981 q 396 1042 380 1026 q 434 1058 412 1058 q 473 1042 457 1058 q 489 1003 489 1026 q 425 889 485 932 q 271 841 361 841 q 117 888 181 841 q 54 1003 54 936 "},"↑":{"x_min":54.265625,"x_max":596.84375,"ha":651,"o":"m 379 -162 q 363 -201 379 -185 q 325 -217 347 -217 q 287 -201 303 -217 q 271 -162 271 -185 l 271 791 l 147 666 q 108 651 130 651 q 70 667 86 651 q 54 705 54 682 q 69 742 54 727 l 288 961 q 325 976 303 976 q 362 961 347 976 l 581 742 q 596 705 596 727 q 580 667 596 682 q 542 651 564 651 q 503 666 520 651 l 379 791 l 379 -162 "},"D":{"x_min":54.265625,"x_max":868.125,"ha":922,"o":"m 325 108 q 632 235 505 108 q 759 542 759 362 q 632 849 759 722 q 325 976 505 976 l 162 976 l 162 108 l 325 108 m 325 1085 q 709 926 550 1085 q 868 542 868 767 q 709 159 868 318 q 325 0 550 0 l 108 0 q 70 15 86 0 q 54 54 54 31 l 54 1030 q 70 1069 54 1053 q 108 1085 86 1085 l 325 1085 "},"ł":{"x_min":16.953125,"x_max":434.0625,"ha":488,"o":"m 162 567 l 162 1030 q 178 1069 162 1053 q 217 1085 194 1085 q 255 1069 239 1085 q 271 1030 271 1053 l 271 674 l 341 744 q 380 759 357 760 q 418 744 402 759 q 434 705 434 727 q 418 667 434 682 l 271 521 l 271 108 l 325 108 q 363 92 347 108 q 379 54 379 76 q 363 15 379 31 q 325 0 347 0 l 217 0 q 178 15 194 0 q 162 54 162 31 l 162 414 l 109 361 q 70 345 93 345 q 32 361 48 345 q 16 400 16 377 q 32 438 16 422 l 162 567 "},"ĺ":{"x_min":27.8125,"x_max":299.09375,"ha":326,"o":"m 54 1030 q 70 1069 54 1053 q 108 1085 86 1085 q 146 1069 130 1085 q 162 1030 162 1053 l 162 108 l 217 108 q 255 92 239 108 q 271 54 271 76 q 255 15 271 31 q 217 0 239 0 l 108 0 q 70 15 86 0 q 54 54 54 31 l 54 1030 m 284 1318 l 119 1153 q 82 1139 103 1139 q 43 1155 59 1139 q 27 1193 27 1171 q 41 1230 27 1214 l 206 1395 q 244 1410 222 1410 q 283 1394 267 1410 q 299 1356 299 1378 q 284 1318 299 1334 "},"ц":{"x_min":54.265625,"x_max":868.125,"ha":922,"o":"m 759 108 l 813 108 q 852 92 836 108 q 868 54 868 76 q 816 -180 868 -73 q 803 -200 812 -191 q 765 -217 787 -217 q 726 -201 742 -217 q 710 -162 710 -185 q 716 -137 710 -148 q 756 0 748 -73 l 705 0 q 667 15 682 0 q 651 54 651 31 l 651 98 q 406 0 549 0 q 157 103 261 0 q 54 352 54 206 l 54 705 q 70 743 54 727 q 108 759 86 759 q 146 743 130 759 q 162 705 162 727 l 162 352 q 234 180 162 251 q 406 108 305 108 q 579 180 507 108 q 651 352 651 251 l 651 705 q 667 743 651 727 q 705 759 682 759 q 743 743 727 759 q 759 705 759 727 l 759 108 "},"Л":{"x_min":54.265625,"x_max":922.390625,"ha":977,"o":"m 158 33 q 147 16 154 23 q 108 0 130 0 q 70 15 86 0 q 54 54 54 31 q 59 77 54 67 l 436 1047 q 450 1069 440 1059 q 488 1085 465 1085 q 526 1069 510 1085 q 540 1047 536 1059 l 917 77 q 922 54 922 67 q 906 15 922 31 q 868 0 890 0 q 830 16 845 0 q 817 33 822 23 l 488 881 l 158 33 "},"$":{"x_min":54.265625,"x_max":664.65625,"ha":719,"o":"m 325 0 q 311 1 318 0 q 90 115 177 12 q 65 148 76 130 q 54 181 54 162 q 70 219 54 203 q 108 235 86 235 q 154 210 137 235 q 173 185 162 197 q 325 109 231 116 l 325 545 q 172 636 234 563 q 108 834 99 722 q 203 1019 118 946 q 325 1079 259 1066 l 325 1139 q 341 1177 325 1161 q 379 1193 357 1193 q 418 1177 402 1193 q 434 1139 434 1161 l 434 1078 q 585 988 524 1060 q 612 951 600 970 q 620 922 620 938 q 604 884 620 900 q 566 868 588 868 q 528 884 543 868 q 518 895 522 889 q 503 917 512 906 q 434 965 473 952 l 434 637 q 588 536 523 611 q 664 330 664 445 q 663 299 664 314 q 550 78 652 164 q 434 13 496 32 l 434 -54 q 418 -92 434 -76 q 379 -108 402 -108 q 341 -92 357 -108 q 325 -54 325 -76 l 325 0 m 325 966 q 274 936 297 956 q 217 826 222 892 q 255 707 211 758 q 325 658 284 672 l 325 966 m 434 130 q 479 160 457 141 q 555 307 548 218 q 505 466 562 398 q 434 521 474 502 l 434 130 "},"w":{"x_min":54.265625,"x_max":1030.90625,"ha":1085,"o":"m 504 744 q 542 759 520 759 q 581 744 564 759 q 595 718 591 733 l 759 225 l 927 728 q 938 744 931 736 q 976 759 954 759 q 1014 743 999 759 q 1030 705 1030 727 q 1026 684 1030 694 l 810 34 q 798 14 806 24 q 759 0 781 0 q 721 14 737 0 q 708 34 712 24 l 542 533 l 376 34 q 364 14 372 24 q 325 0 347 0 q 287 14 303 0 q 274 34 278 24 l 58 684 q 54 705 54 694 q 70 743 54 727 q 108 759 86 759 q 147 744 130 759 q 158 728 153 736 l 325 225 l 489 718 q 504 744 494 733 "},"о":{"x_min":54.265625,"x_max":813.875,"ha":868,"o":"m 813 379 q 702 111 813 222 q 434 0 591 0 q 165 111 276 0 q 54 379 54 222 q 165 648 54 537 q 434 759 276 759 q 702 648 591 759 q 813 379 813 537 m 434 651 q 242 571 321 651 q 162 379 162 492 q 242 187 162 267 q 434 108 321 108 q 626 187 546 108 q 705 379 705 267 q 626 571 705 492 q 434 651 546 651 "},"Д":{"x_min":54.265625,"x_max":1030.90625,"ha":1085,"o":"m 242 108 l 843 108 l 542 881 l 242 108 m 976 108 q 1014 92 999 108 q 1030 54 1030 76 l 1030 -162 q 1014 -201 1030 -185 q 976 -217 999 -217 q 938 -201 954 -217 q 922 -162 922 -185 l 922 0 l 162 0 l 162 -162 q 146 -201 162 -185 q 108 -217 130 -217 q 70 -201 86 -217 q 54 -162 54 -185 l 54 54 q 70 92 54 76 q 108 108 86 108 l 125 108 l 490 1047 q 504 1069 494 1059 q 542 1085 520 1085 q 581 1069 564 1085 q 594 1047 590 1059 l 959 108 l 976 108 "},"Ç":{"x_min":54.265625,"x_max":957.65625,"ha":1004,"o":"m 899 212 q 937 197 921 212 q 953 158 953 181 q 937 120 953 136 q 596 0 786 0 q 213 159 372 0 q 54 542 54 318 q 213 926 54 767 q 596 1085 372 1085 q 942 961 790 1085 q 957 922 957 944 q 941 884 957 900 q 903 868 925 868 q 864 884 881 868 q 596 976 750 976 q 289 849 417 976 q 162 542 162 722 q 289 235 162 362 q 596 108 417 108 q 868 203 752 108 q 899 212 881 212 m 495 38 q 533 54 510 54 q 571 38 555 54 q 587 0 587 22 q 585 -12 587 -6 l 574 -53 q 621 -81 599 -63 q 668 -183 668 -122 q 620 -284 668 -243 q 505 -325 573 -325 q 428 -305 465 -325 l 366 -269 q 343 -223 343 -249 q 359 -185 343 -201 q 397 -169 375 -169 q 426 -177 413 -169 l 479 -210 q 505 -217 492 -217 q 544 -207 528 -217 q 560 -183 560 -198 q 544 -158 560 -167 q 505 -149 528 -149 q 467 -133 483 -149 q 451 -94 451 -117 q 454 -77 451 -85 l 480 15 q 495 38 484 28 "},"Ŝ":{"x_min":54.265625,"x_max":664.65625,"ha":719,"o":"m 65 148 q 54 181 54 162 q 70 219 54 203 q 108 235 86 235 q 154 210 137 235 q 173 185 162 197 q 321 109 231 116 q 479 160 411 102 q 555 307 548 218 q 504 466 562 398 q 356 541 446 534 q 172 636 244 551 q 108 834 99 722 q 203 1019 118 946 q 379 1085 280 1085 q 585 988 497 1085 q 612 951 600 970 q 620 922 620 938 q 604 884 620 900 q 566 868 588 868 q 528 884 540 868 q 503 917 516 900 q 392 974 459 969 q 274 936 325 980 q 217 826 222 892 q 255 707 211 758 q 365 650 299 655 q 588 536 500 638 q 664 330 664 445 q 663 299 664 314 q 550 78 652 164 q 341 0 458 0 q 90 115 196 0 q 65 148 76 130 m 394 1376 l 556 1268 q 583 1220 583 1247 q 567 1182 583 1198 q 529 1166 551 1166 q 495 1178 509 1166 l 366 1263 l 237 1178 q 203 1166 223 1166 q 165 1182 181 1166 q 149 1220 149 1198 q 176 1268 149 1247 l 338 1376 q 366 1383 350 1383 q 394 1376 381 1383 "},"C":{"x_min":54.265625,"x_max":957.65625,"ha":1004,"o":"m 899 212 q 937 197 921 212 q 953 158 953 181 q 937 120 953 136 q 596 0 786 0 q 213 159 372 0 q 54 542 54 318 q 213 926 54 767 q 596 1085 372 1085 q 942 961 790 1085 q 957 922 957 944 q 941 884 957 900 q 903 868 925 868 q 864 884 881 868 q 596 976 750 976 q 289 849 417 976 q 162 542 162 722 q 289 235 162 362 q 596 108 417 108 q 868 203 752 108 q 899 212 881 212 "},"Ĵ":{"x_min":54.265625,"x_max":868.140625,"ha":814,"o":"m 54 325 q 70 363 54 347 q 108 379 86 379 q 146 363 130 379 q 162 325 162 347 q 226 171 162 235 q 379 108 289 108 q 533 171 470 108 q 596 325 596 235 l 596 1030 q 612 1069 596 1053 q 651 1085 628 1085 q 689 1069 673 1085 q 705 1030 705 1053 l 705 325 q 610 95 705 190 q 379 0 514 0 q 149 95 244 0 q 54 325 54 190 m 678 1376 l 841 1268 q 868 1220 868 1247 q 852 1182 868 1198 q 813 1166 836 1166 q 779 1178 794 1166 l 651 1263 l 522 1178 q 488 1166 508 1166 q 450 1182 465 1166 q 434 1220 434 1198 q 461 1268 434 1247 l 623 1376 q 651 1383 635 1383 q 678 1376 666 1383 "},"È":{"x_min":54.9375,"x_max":814.546875,"ha":868,"o":"m 109 1085 l 760 1085 q 798 1069 782 1085 q 814 1030 814 1053 q 798 992 814 1008 q 760 976 782 976 l 163 976 l 163 596 l 597 596 q 635 580 619 596 q 651 542 651 564 q 635 504 651 520 q 597 488 619 488 l 163 488 l 163 108 l 760 108 q 798 92 782 108 q 814 54 814 76 q 798 15 814 31 q 760 0 782 0 l 109 0 q 70 15 86 0 q 54 54 54 31 l 54 1030 q 70 1069 54 1053 q 109 1085 86 1085 m 254 1356 q 270 1394 254 1378 q 308 1410 286 1410 q 347 1395 330 1410 l 512 1230 q 525 1193 525 1214 q 509 1155 525 1171 q 471 1139 493 1139 q 434 1153 449 1139 l 269 1318 q 254 1356 254 1334 "},"ﬁ":{"x_min":54.265625,"x_max":718.921875,"ha":760,"o":"m 596 705 q 612 743 596 727 q 651 759 628 759 q 689 743 673 759 q 705 705 705 727 l 705 54 q 689 15 705 31 q 651 0 673 0 q 612 15 628 0 q 596 54 596 31 l 596 705 m 461 976 q 271 759 271 976 l 271 718 l 434 718 q 473 702 457 718 q 489 664 489 687 q 473 626 489 642 q 434 610 457 610 l 271 610 l 271 54 q 255 15 271 31 q 217 0 239 0 q 178 15 194 0 q 162 54 162 31 l 162 610 l 108 610 q 70 626 86 610 q 54 664 54 642 q 70 702 54 687 q 108 718 86 718 l 162 718 l 162 759 q 461 1085 162 1085 q 718 922 718 1085 q 698 874 718 894 q 651 854 678 854 q 603 874 623 854 q 583 922 583 894 q 461 976 583 976 "},"X":{"x_min":54.265625,"x_max":922.390625,"ha":977,"o":"m 488 631 l 823 1062 q 868 1085 842 1085 q 906 1069 890 1085 q 922 1030 922 1053 q 912 999 922 1013 l 557 542 l 910 88 q 922 54 922 73 q 906 15 922 31 q 868 0 890 0 q 826 18 842 0 l 488 453 l 149 18 q 108 0 134 0 q 70 15 86 0 q 54 54 54 31 q 65 88 54 73 l 419 542 l 63 999 q 54 1030 54 1013 q 70 1069 54 1053 q 108 1085 86 1085 q 153 1062 134 1085 l 488 631 "},"ô":{"x_min":54.265625,"x_max":813.875,"ha":868,"o":"m 813 379 q 702 111 813 222 q 434 0 591 0 q 165 111 276 0 q 54 379 54 222 q 165 648 54 537 q 434 759 276 759 q 702 648 591 759 q 813 379 813 537 m 434 651 q 242 571 321 651 q 162 379 162 492 q 242 187 162 267 q 434 108 321 108 q 626 187 546 108 q 705 379 705 267 q 626 571 705 492 q 434 651 546 651 m 461 1050 l 623 942 q 651 895 651 922 q 635 856 651 872 q 596 841 619 841 q 562 852 577 841 l 434 937 l 305 852 q 271 841 290 841 q 232 856 248 841 q 217 895 217 872 q 244 942 217 922 l 406 1050 q 434 1058 418 1058 q 461 1050 449 1058 "},"ҝ":{"x_min":54.265625,"x_max":651.09375,"ha":705,"o":"m 244 284 l 214 310 l 162 266 l 162 54 q 146 15 162 31 q 108 0 130 0 q 70 15 86 0 q 54 54 54 31 l 54 705 q 70 743 54 727 q 108 759 86 759 q 146 743 130 759 q 162 705 162 727 l 162 408 l 244 478 l 244 651 q 260 689 244 673 q 298 705 276 705 q 336 689 320 705 q 352 651 352 673 l 352 569 l 560 746 q 596 759 575 759 q 635 743 619 759 q 651 705 651 727 q 635 667 651 682 l 352 427 l 352 335 l 635 92 q 651 54 651 76 q 635 15 651 31 q 596 0 619 0 q 561 12 576 0 l 352 191 l 352 108 q 336 70 352 86 q 298 54 320 54 q 260 70 276 54 q 244 108 244 86 l 244 284 "},"Ė":{"x_min":54.265625,"x_max":813.875,"ha":868,"o":"m 108 1085 l 759 1085 q 797 1069 781 1085 q 813 1030 813 1053 q 797 992 813 1008 q 759 976 781 976 l 162 976 l 162 596 l 596 596 q 635 580 619 596 q 651 542 651 564 q 635 504 651 520 q 596 488 619 488 l 162 488 l 162 108 l 759 108 q 797 92 781 108 q 813 54 813 76 q 797 15 813 31 q 759 0 781 0 l 108 0 q 70 15 86 0 q 54 54 54 31 l 54 1030 q 70 1069 54 1053 q 108 1085 86 1085 m 516 1248 q 492 1190 516 1214 q 434 1167 468 1167 q 377 1190 400 1167 q 353 1248 353 1214 q 377 1306 353 1282 q 434 1330 400 1330 q 492 1306 468 1330 q 516 1248 516 1282 "},"г":{"x_min":54.265625,"x_max":542.578125,"ha":597,"o":"m 162 54 q 146 15 162 31 q 108 0 130 0 q 70 15 86 0 q 54 54 54 31 l 54 542 q 117 696 54 632 q 271 759 181 759 l 488 759 q 526 743 510 759 q 542 705 542 727 q 526 667 542 682 q 488 651 510 651 l 271 651 q 194 619 226 651 q 162 542 162 587 l 162 54 "},"Ŀ":{"x_min":54.265625,"x_max":759.609375,"ha":814,"o":"m 54 1030 q 70 1069 54 1053 q 108 1085 86 1085 q 146 1069 130 1085 q 162 1030 162 1053 l 162 108 l 705 108 q 743 92 727 108 q 759 54 759 76 q 743 15 759 31 q 705 0 727 0 l 108 0 q 70 15 86 0 q 54 54 54 31 l 54 1030 m 543 542 q 519 484 543 508 q 461 461 495 461 q 404 484 427 461 q 380 542 380 508 q 404 600 380 576 q 461 623 427 623 q 519 600 495 623 q 543 542 543 576 "},"х":{"x_min":54.265625,"x_max":705.359375,"ha":760,"o":"m 309 380 l 67 670 q 54 705 54 685 q 70 743 54 727 q 108 759 86 759 q 148 742 130 759 l 379 465 l 611 742 q 651 759 628 759 q 689 743 673 759 q 705 705 705 727 q 692 670 705 685 l 450 380 l 694 87 q 705 54 705 73 q 689 15 705 31 q 651 0 673 0 q 613 16 628 0 l 379 295 l 146 16 q 108 0 130 0 q 70 15 86 0 q 54 54 54 31 q 65 87 54 73 l 309 380 "},"ŋ":{"x_min":54.265625,"x_max":759.609375,"ha":814,"o":"m 651 -108 l 651 406 q 579 579 651 507 q 406 651 507 651 q 234 579 305 651 q 162 406 162 507 l 162 54 q 146 15 162 31 q 108 0 130 0 q 70 15 86 0 q 54 54 54 31 l 54 705 q 70 743 54 727 q 108 759 86 759 q 146 743 130 759 q 162 705 162 727 l 162 661 q 406 759 264 759 q 656 656 552 759 q 759 406 759 552 l 759 -108 q 696 -262 759 -198 q 542 -325 632 -325 q 444 -302 489 -325 q 419 -256 419 -286 q 435 -218 419 -233 q 473 -202 451 -202 q 493 -206 484 -202 q 542 -217 516 -217 q 619 -185 587 -217 q 651 -108 651 -153 "},"Ч":{"x_min":54.265625,"x_max":813.875,"ha":868,"o":"m 813 54 q 797 15 813 31 q 759 0 781 0 q 721 15 737 0 q 705 54 705 31 l 705 493 q 702 491 704 492 q 434 379 591 379 q 165 491 276 379 q 54 759 54 602 l 54 1030 q 70 1069 54 1053 q 108 1085 86 1085 q 146 1069 130 1085 q 162 1030 162 1053 l 162 759 q 242 567 162 647 q 434 488 321 488 q 626 567 546 488 q 705 759 705 647 l 705 1030 q 721 1069 705 1053 q 759 1085 737 1085 q 797 1069 781 1085 q 813 1030 813 1053 l 813 54 "},"∟":{"x_min":54.265625,"x_max":922.390625,"ha":977,"o":"m 108 0 q 70 15 86 0 q 54 54 54 31 l 54 813 q 70 852 54 836 q 108 868 86 868 q 146 852 130 868 q 162 813 162 836 l 162 108 l 868 108 q 906 92 890 108 q 922 54 922 76 q 906 15 922 31 q 868 0 890 0 l 108 0 "},"ü":{"x_min":54.265625,"x_max":759.609375,"ha":814,"o":"m 759 54 q 743 15 759 31 q 705 0 727 0 q 667 15 682 0 q 651 54 651 31 l 651 98 q 406 0 549 0 q 157 103 261 0 q 54 352 54 206 l 54 705 q 70 743 54 727 q 108 759 86 759 q 146 743 130 759 q 162 705 162 727 l 162 352 q 234 180 162 251 q 406 108 305 108 q 579 180 507 108 q 651 352 651 251 l 651 705 q 667 743 651 727 q 705 759 682 759 q 743 743 727 759 q 759 705 759 727 l 759 54 m 311 922 q 291 874 311 894 q 244 854 271 854 q 196 874 216 854 q 176 922 176 894 q 196 970 176 950 q 244 990 216 990 q 291 970 271 990 q 311 922 311 950 m 637 922 q 617 874 637 894 q 569 854 597 854 q 521 874 541 854 q 501 922 501 894 q 521 970 501 950 q 569 990 541 990 q 617 970 597 990 q 637 922 637 950 "},"ь":{"x_min":54.265625,"x_max":623.96875,"ha":678,"o":"m 406 108 q 483 140 451 108 q 515 217 515 172 q 483 293 515 261 q 406 325 451 325 l 162 325 l 162 108 l 406 108 m 162 705 l 162 434 l 406 434 q 560 370 497 434 q 623 217 623 307 q 560 63 623 126 q 406 0 497 0 l 108 0 q 70 15 86 0 q 54 54 54 31 l 54 706 q 70 744 54 728 q 108 759 86 759 q 146 743 130 759 q 162 705 162 727 "},"Җ":{"x_min":54.265625,"x_max":1356.453125,"ha":1411,"o":"m 1247 37 l 881 533 l 759 411 l 759 54 q 743 15 759 31 q 705 0 727 0 q 667 15 682 0 q 651 54 651 31 l 651 411 l 529 533 l 153 23 q 115 0 138 3 q 76 10 94 -2 q 54 46 58 23 q 54 56 54 51 q 64 86 54 72 l 451 611 l 69 992 q 54 1030 54 1008 q 70 1069 54 1053 q 108 1085 86 1085 q 148 1068 130 1085 l 651 565 l 651 1030 q 667 1069 651 1053 q 705 1085 682 1085 q 743 1069 727 1085 q 759 1030 759 1053 l 759 565 l 1262 1068 q 1302 1085 1279 1085 q 1340 1069 1324 1085 q 1356 1030 1356 1053 q 1340 992 1356 1008 l 959 611 l 1346 86 q 1356 56 1356 72 l 1356 50 q 1304 -180 1355 -75 q 1292 -200 1300 -191 q 1253 -217 1275 -217 q 1215 -201 1230 -217 q 1199 -162 1199 -185 q 1205 -137 1199 -148 q 1247 37 1243 -66 "},"Ÿ":{"x_min":54.265625,"x_max":813.875,"ha":868,"o":"m 488 54 q 472 15 488 31 q 434 0 456 0 q 395 15 411 0 q 379 54 379 31 l 379 526 l 63 1000 q 54 1030 54 1013 q 70 1069 54 1053 q 108 1085 86 1085 q 152 1062 136 1085 l 434 640 l 715 1062 q 759 1085 731 1085 q 797 1069 781 1085 q 813 1030 813 1053 q 805 1000 813 1013 l 488 526 l 488 54 m 339 1247 q 319 1200 339 1220 q 271 1180 299 1180 q 223 1200 243 1180 q 203 1247 203 1220 q 223 1295 203 1275 q 271 1315 243 1315 q 319 1295 299 1315 q 339 1247 339 1275 m 664 1247 q 644 1200 664 1220 q 596 1180 624 1180 q 549 1200 569 1180 q 529 1247 529 1220 q 549 1295 529 1275 q 596 1315 569 1315 q 644 1295 624 1315 q 664 1247 664 1275 "},"€":{"x_min":54.265625,"x_max":957.65625,"ha":1004,"o":"m 813 705 q 852 689 836 705 q 868 651 868 673 q 852 612 868 628 q 813 596 836 596 l 165 596 q 162 542 162 570 q 165 488 162 514 l 813 488 q 852 472 836 488 q 868 434 868 456 q 852 395 868 411 q 813 379 836 379 l 193 379 q 290 236 224 301 q 596 108 417 108 q 868 203 752 108 q 899 212 881 212 q 937 197 921 212 q 953 158 953 181 q 937 120 953 136 q 596 0 786 0 q 213 159 372 0 q 54 542 54 318 q 213 926 54 767 q 596 1085 372 1085 q 942 961 790 1085 q 957 922 957 944 q 941 884 957 900 q 903 868 925 868 q 864 884 881 868 q 596 976 750 976 q 290 849 417 976 q 193 705 224 784 l 813 705 "},"в":{"x_min":54.265625,"x_max":651.09375,"ha":705,"o":"m 379 434 q 456 465 424 434 q 488 542 488 497 q 456 619 488 587 q 379 651 424 651 l 162 651 l 162 434 l 379 434 m 434 108 q 510 140 478 108 q 542 217 542 172 q 510 293 542 261 q 434 325 478 325 l 162 325 l 162 108 l 434 108 m 108 759 l 379 759 q 533 696 470 759 q 596 542 596 632 q 546 403 596 462 q 588 370 568 389 q 651 217 651 307 q 587 63 651 126 q 434 0 524 0 l 108 0 q 70 15 86 0 q 54 54 54 31 l 54 705 q 70 743 54 727 q 108 759 86 759 "},"Η":{"x_min":54.265625,"x_max":813.875,"ha":868,"o":"m 54 1030 q 70 1069 54 1053 q 108 1085 86 1085 q 146 1069 130 1085 q 162 1030 162 1053 l 162 596 l 705 596 l 705 1030 q 721 1069 705 1053 q 759 1085 737 1085 q 797 1069 781 1085 q 813 1030 813 1053 l 813 54 q 797 15 813 31 q 759 0 781 0 q 721 15 737 0 q 705 54 705 31 l 705 488 l 162 488 l 162 54 q 146 15 162 31 q 108 0 130 0 q 70 15 86 0 q 54 54 54 31 l 54 1030 "},"С":{"x_min":54.265625,"x_max":957.65625,"ha":1004,"o":"m 899 212 q 937 197 921 212 q 953 158 953 181 q 937 120 953 136 q 596 0 786 0 q 213 159 372 0 q 54 542 54 318 q 213 926 54 767 q 596 1085 372 1085 q 942 961 790 1085 q 957 922 957 944 q 941 884 957 900 q 903 868 925 868 q 864 884 881 868 q 596 976 750 976 q 289 849 417 976 q 162 542 162 722 q 289 235 162 362 q 596 108 417 108 q 868 203 752 108 q 899 212 881 212 "},"ß":{"x_min":54.265625,"x_max":705.359375,"ha":760,"o":"m 162 54 q 146 15 162 31 q 108 0 130 0 q 70 15 86 0 q 54 54 54 31 l 54 813 q 133 1005 54 926 q 325 1085 212 1085 q 517 1005 438 1085 q 596 813 596 926 q 534 640 596 714 q 517 588 517 617 q 555 514 517 535 q 626 463 593 495 q 705 271 705 383 q 626 79 705 158 q 434 0 546 0 q 242 79 321 0 q 224 119 224 96 q 240 157 224 141 q 278 173 256 173 q 319 156 301 173 q 434 108 366 108 q 549 156 501 108 q 596 271 596 204 q 549 386 596 338 q 506 418 529 405 q 463 452 484 431 q 406 588 406 508 q 455 716 406 661 q 488 813 488 758 q 440 928 488 881 q 325 976 392 976 q 210 929 258 976 q 162 813 162 881 l 162 54 "},"њ":{"x_min":54.265625,"x_max":1140.09375,"ha":1194,"o":"m 678 325 l 678 108 l 923 108 q 999 140 967 108 q 1031 217 1031 172 q 999 293 1031 261 q 923 325 967 325 l 678 325 m 678 434 l 923 434 q 1076 370 1013 434 q 1140 217 1140 307 q 1076 63 1140 126 q 923 0 1013 0 l 623 0 q 585 15 601 0 q 569 54 569 31 l 569 325 l 162 325 l 162 54 q 146 15 162 31 q 108 0 130 0 q 70 15 86 0 q 54 54 54 31 l 54 705 q 70 743 54 727 q 108 759 86 759 q 146 743 130 759 q 162 705 162 727 l 162 434 l 569 434 l 569 705 q 585 743 569 727 q 623 759 601 759 q 662 743 646 759 q 678 705 678 727 l 678 434 "},"Ű":{"x_min":54.265625,"x_max":813.875,"ha":868,"o":"m 54 1030 q 70 1069 54 1053 q 108 1085 86 1085 q 146 1069 130 1085 q 162 1030 162 1053 l 162 379 q 242 187 162 267 q 434 108 321 108 q 626 187 546 108 q 705 379 705 267 l 705 1030 q 721 1069 705 1053 q 759 1085 737 1085 q 797 1069 781 1085 q 813 1030 813 1053 l 813 379 q 702 111 813 222 q 434 0 591 0 q 165 111 276 0 q 54 379 54 222 l 54 1030 m 322 1152 q 284 1126 311 1127 q 247 1150 259 1126 q 244 1167 244 1159 q 246 1182 244 1174 l 308 1376 q 337 1406 316 1397 q 358 1410 348 1410 q 379 1407 368 1410 q 408 1378 400 1399 q 409 1336 417 1357 l 322 1152 m 533 1152 q 495 1126 521 1127 q 457 1150 470 1126 q 454 1167 454 1159 q 457 1182 454 1174 l 518 1376 q 548 1406 526 1397 q 569 1410 558 1410 q 589 1407 579 1410 q 619 1378 610 1399 q 619 1336 628 1357 l 533 1152 "},"c":{"x_min":54.265625,"x_max":700.609375,"ha":760,"o":"m 644 185 q 682 169 666 185 q 698 131 698 153 q 681 91 698 109 q 434 0 576 0 q 165 111 276 0 q 54 379 54 222 q 165 648 54 537 q 434 759 276 759 q 681 668 576 759 q 700 626 700 651 q 684 587 700 603 q 646 571 668 571 q 611 583 626 571 q 434 651 535 651 q 242 571 321 651 q 162 379 162 492 q 242 187 162 267 q 434 108 321 108 q 611 174 535 108 q 644 185 625 185 "},"¶":{"x_min":54.265625,"x_max":705.359375,"ha":760,"o":"m 651 54 q 635 15 651 31 q 596 0 619 0 q 558 15 574 0 q 542 54 542 31 l 542 976 l 434 976 l 434 54 q 418 15 434 31 q 379 0 402 0 q 341 15 357 0 q 325 54 325 31 l 325 542 q 133 621 212 542 q 54 813 54 701 q 133 1005 54 926 q 325 1085 212 1085 l 651 1085 q 689 1069 673 1085 q 705 1030 705 1053 q 689 992 705 1008 q 651 976 673 976 l 651 54 "},"Ή":{"x_min":-27.125,"x_max":1058.03125,"ha":1112,"o":"m 229 992 l 64 828 q 27 813 48 813 q -11 829 4 813 q -27 868 -27 845 q -13 904 -27 889 l 151 1069 q 189 1085 167 1085 q 228 1069 212 1085 q 244 1030 244 1053 q 229 992 244 1009 m 298 1030 q 314 1069 298 1053 q 352 1085 330 1085 q 391 1069 375 1085 q 406 1030 406 1053 l 406 596 l 949 596 l 949 1030 q 965 1069 949 1053 q 1003 1085 981 1085 q 1042 1069 1026 1085 q 1058 1030 1058 1053 l 1058 54 q 1042 15 1058 31 q 1003 0 1026 0 q 965 15 981 0 q 949 54 949 31 l 949 488 l 406 488 l 406 54 q 391 15 406 31 q 352 0 375 0 q 314 15 330 0 q 298 54 298 31 l 298 1030 "},"γ":{"x_min":54.265625,"x_max":759.609375,"ha":814,"o":"m 352 43 l 58 684 q 54 705 54 693 q 70 743 54 727 q 108 759 86 759 q 147 744 130 759 q 157 729 152 738 l 406 184 l 656 729 q 667 744 661 738 q 705 759 682 759 q 743 743 727 759 q 759 705 759 727 q 755 684 759 693 l 461 43 l 461 -271 q 445 -309 461 -293 q 406 -325 429 -325 q 368 -309 384 -325 q 352 -271 352 -293 l 352 43 "},"­":{"x_min":54.265625,"x_max":488.328125,"ha":543,"o":"m 108 325 q 70 341 86 325 q 54 379 54 357 q 70 418 54 402 q 108 434 86 434 l 434 434 q 472 418 456 434 q 488 379 488 402 q 472 341 488 357 q 434 325 456 325 l 108 325 "},":":{"x_min":54.265625,"x_max":217.03125,"ha":271,"o":"m 217 81 q 193 23 217 47 q 135 0 169 0 q 78 23 101 0 q 54 81 54 47 q 78 139 54 115 q 135 162 101 162 q 193 139 169 162 q 217 81 217 115 m 217 678 q 193 621 217 644 q 135 597 169 597 q 78 621 101 597 q 54 678 54 644 q 78 736 54 712 q 135 760 101 760 q 193 736 169 760 q 217 678 217 712 "},"ś":{"x_min":54.265625,"x_max":664.65625,"ha":719,"o":"m 188 379 q 102 427 126 402 q 54 542 54 475 q 104 659 54 609 q 359 759 202 759 q 651 623 529 759 q 661 591 661 610 q 645 553 661 569 q 607 537 629 537 q 571 551 584 537 q 551 571 557 565 q 359 651 472 651 q 179 580 246 651 q 163 533 163 560 q 196 490 165 501 l 530 379 q 616 331 592 356 q 664 217 664 284 q 614 99 664 149 q 359 0 516 0 q 67 136 188 0 q 57 168 57 150 q 73 206 57 190 q 111 222 89 222 q 147 208 134 222 q 167 187 161 193 q 359 108 246 108 q 539 179 472 108 q 555 225 555 198 q 522 269 553 257 l 188 379 m 499 992 l 335 828 q 297 813 319 813 q 259 829 275 813 q 243 868 243 845 q 257 904 243 889 l 421 1069 q 460 1085 438 1085 q 498 1069 482 1085 q 514 1030 514 1053 q 499 992 514 1009 "}," ":{"x_min":0,"x_max":0,"ha":380},"У":{"x_min":54.265625,"x_max":922.390625,"ha":975,"o":"m 488 440 l 822 1059 q 868 1085 835 1085 q 906 1069 890 1085 q 922 1030 922 1053 q 914 1003 922 1015 l 435 112 q 398 63 420 86 q 244 0 334 0 q 118 39 172 0 q 92 85 92 59 q 108 123 92 107 q 147 139 124 139 q 178 129 164 139 q 244 108 207 108 q 320 140 288 108 q 341 168 333 153 l 426 326 l 61 1003 q 54 1030 54 1015 q 70 1069 54 1053 q 108 1085 86 1085 q 154 1059 139 1085 l 488 440 "},"ү":{"x_min":54.265625,"x_max":759.609375,"ha":814,"o":"m 352 43 l 58 684 q 54 705 54 693 q 70 743 54 727 q 108 759 86 759 q 147 744 130 759 q 157 729 152 738 l 406 184 l 656 729 q 667 744 661 738 q 705 759 682 759 q 743 743 727 759 q 759 705 759 727 q 755 684 759 693 l 461 43 l 461 -271 q 445 -309 461 -293 q 406 -325 429 -325 q 368 -309 384 -325 q 352 -271 352 -293 l 352 43 "},"¾":{"x_min":54.265625,"x_max":1030.90625,"ha":1085,"o":"m 922 1085 q 960 1069 944 1085 q 976 1030 976 1053 q 968 1001 976 1014 l 318 27 q 271 0 300 0 q 232 15 248 0 q 217 54 217 31 q 225 83 217 70 l 878 1064 q 922 1085 893 1085 m 868 227 l 868 514 l 670 227 l 868 227 m 607 162 q 584 172 594 162 q 575 195 575 181 q 581 214 575 206 l 874 637 q 877 641 875 639 q 900 651 887 651 q 923 641 914 651 q 933 618 933 632 l 933 227 l 998 227 q 1021 218 1011 227 q 1030 195 1030 208 q 1021 172 1030 181 q 998 162 1011 162 l 933 162 l 933 32 q 923 9 933 18 q 900 0 914 0 q 877 9 887 0 q 868 32 868 18 l 868 162 l 607 162 m 248 758 q 225 768 235 758 q 216 791 216 777 q 225 813 216 804 q 248 823 235 823 q 317 852 288 823 q 346 921 346 881 q 317 989 346 961 q 248 1018 288 1018 q 180 989 208 1018 q 151 921 151 961 q 142 897 151 907 q 119 888 132 888 q 96 897 105 888 q 86 921 86 907 q 134 1035 86 988 q 248 1083 181 1083 q 363 1035 316 1083 q 411 921 411 988 q 363 806 411 853 q 351 794 357 800 q 386 767 370 783 q 443 628 443 709 q 386 491 443 548 q 248 434 329 434 q 111 491 168 434 q 54 628 54 548 q 63 651 54 642 q 86 661 73 661 q 109 651 100 661 q 119 628 119 642 q 157 537 119 575 q 248 499 194 499 q 340 537 303 499 q 378 628 378 575 q 340 720 378 682 q 248 758 303 758 "},"Ί":{"x_min":-27.125,"x_max":407.609375,"ha":515,"o":"m 229 992 l 64 828 q 27 813 48 813 q -11 829 4 813 q -27 868 -27 845 q -13 904 -27 889 l 151 1069 q 189 1085 167 1085 q 228 1069 212 1085 q 244 1030 244 1053 q 229 992 244 1009 m 299 1030 q 315 1069 299 1053 q 353 1085 330 1085 q 391 1069 375 1085 q 407 1030 407 1053 l 407 54 q 391 15 407 31 q 353 0 375 0 q 315 15 330 0 q 299 54 299 31 l 299 1030 "},"ŉ":{"x_min":56.296875,"x_max":923.0625,"ha":977,"o":"m 217 705 q 233 743 217 727 q 271 759 249 759 q 310 743 294 759 q 326 705 326 727 l 326 661 q 570 759 427 759 q 819 656 716 759 q 923 406 923 552 l 923 54 q 907 15 923 31 q 868 0 891 0 q 830 15 846 0 q 814 54 814 31 l 814 406 q 742 579 814 507 q 570 651 671 651 q 397 579 469 651 q 326 406 326 507 l 326 54 q 310 15 326 31 q 271 0 294 0 q 233 15 249 0 q 217 54 217 31 l 217 705 m 56 1017 q 76 1065 56 1045 q 124 1085 96 1085 q 185 1045 166 1085 q 227 891 227 969 q 124 649 227 773 q 96 637 113 637 q 68 649 80 637 q 56 677 56 661 q 59 695 56 687 q 61 990 126 855 q 56 1017 56 1002 "},"Ģ":{"x_min":54.265625,"x_max":957.65625,"ha":1017,"o":"m 953 158 q 937 120 953 136 q 596 0 786 0 q 213 159 372 0 q 54 542 54 318 q 213 926 54 767 q 596 1085 372 1085 q 942 961 790 1085 q 957 922 957 944 q 941 884 957 900 q 903 868 925 868 q 864 884 881 868 q 596 976 750 976 q 289 849 417 976 q 162 542 162 722 q 289 235 162 362 q 596 108 417 108 q 845 185 737 108 l 845 434 l 630 434 q 592 450 608 434 q 576 488 576 465 q 592 526 576 510 q 630 542 608 542 l 900 542 q 937 526 921 542 q 953 488 953 510 l 953 158 m 712 -84 q 759 -182 759 -122 q 711 -283 759 -242 q 596 -324 663 -324 q 519 -305 556 -324 l 457 -268 q 434 -223 434 -248 q 450 -184 434 -200 q 488 -168 465 -168 q 517 -177 504 -168 l 570 -209 q 596 -216 583 -216 q 635 -207 619 -216 q 651 -182 651 -198 q 635 -157 651 -166 q 596 -148 619 -148 q 558 -132 574 -148 q 542 -94 542 -116 q 555 -67 542 -80 q 620 -50 575 -50 q 712 -84 670 -53 "},"m":{"x_min":54.265625,"x_max":1139.421875,"ha":1194,"o":"m 162 54 q 146 15 162 31 q 108 0 130 0 q 70 15 86 0 q 54 54 54 31 l 54 705 q 70 743 54 727 q 108 759 86 759 q 146 743 130 759 q 162 705 162 727 l 162 691 q 352 759 243 759 q 563 672 476 759 q 596 633 581 653 q 630 672 611 653 q 841 759 717 759 q 1051 672 964 759 q 1139 461 1139 584 l 1139 54 q 1123 15 1139 31 q 1085 0 1107 0 q 1046 15 1062 0 q 1030 54 1030 31 l 1030 461 q 975 595 1030 539 q 841 651 919 651 q 706 595 762 651 q 651 461 651 539 l 651 54 q 635 15 651 31 q 596 0 619 0 q 558 15 574 0 q 542 54 542 31 l 542 461 q 486 595 542 539 q 352 651 431 651 q 218 595 274 651 q 162 461 162 539 l 162 54 "},"Е":{"x_min":54.265625,"x_max":813.875,"ha":868,"o":"m 108 1085 l 759 1085 q 797 1069 781 1085 q 813 1030 813 1053 q 797 992 813 1008 q 759 976 781 976 l 162 976 l 162 596 l 596 596 q 635 580 619 596 q 651 542 651 564 q 635 504 651 520 q 596 488 619 488 l 162 488 l 162 108 l 759 108 q 797 92 781 108 q 813 54 813 76 q 797 15 813 31 q 759 0 781 0 l 108 0 q 70 15 86 0 q 54 54 54 31 l 54 1030 q 70 1069 54 1053 q 108 1085 86 1085 "},"ž":{"x_min":54.265625,"x_max":705.359375,"ha":760,"o":"m 651 108 q 689 92 673 108 q 705 54 705 76 q 689 15 705 31 q 651 0 673 0 l 108 0 q 70 15 86 0 q 54 54 54 31 q 65 87 54 73 l 535 651 l 108 651 q 70 667 86 651 q 54 705 54 682 q 70 743 54 727 q 108 759 86 759 l 651 759 q 689 743 673 759 q 705 705 705 727 q 692 670 705 685 l 223 108 l 651 108 m 379 841 q 352 848 364 841 l 189 956 q 162 1003 162 976 q 178 1042 162 1026 q 217 1058 194 1058 q 250 1046 236 1058 l 379 961 l 508 1046 q 542 1058 522 1058 q 580 1042 564 1058 q 596 1003 596 1026 q 569 956 596 976 l 407 848 q 379 841 395 841 "},"á":{"x_min":54.265625,"x_max":813.875,"ha":868,"o":"m 434 651 q 242 571 321 651 q 162 379 162 492 q 242 187 162 267 q 434 108 321 108 q 626 187 546 108 q 705 379 705 267 q 626 571 705 492 q 434 651 546 651 m 705 113 q 434 0 591 0 q 165 111 276 0 q 54 379 54 222 q 165 648 54 537 q 434 759 276 759 q 702 648 591 759 q 813 379 813 537 l 813 54 q 797 15 813 31 q 759 0 781 0 q 721 15 737 0 q 705 54 705 31 l 705 113 m 581 992 l 417 828 q 379 813 401 813 q 341 829 357 813 q 325 868 325 845 q 339 904 325 889 l 503 1069 q 542 1085 520 1085 q 580 1069 564 1085 q 596 1030 596 1053 q 581 992 596 1009 "},"×":{"x_min":54.265625,"x_max":596.84375,"ha":651,"o":"m 248 488 l 69 667 q 54 705 54 683 q 70 743 54 727 q 108 759 86 759 q 147 743 130 759 l 325 565 l 503 743 q 542 759 520 759 q 580 743 564 759 q 596 705 596 727 q 581 667 596 683 l 402 488 l 581 309 q 596 271 596 293 q 580 232 596 248 q 542 217 564 217 q 505 231 520 217 l 325 411 l 145 231 q 108 217 130 217 q 70 232 86 217 q 54 271 54 248 q 69 309 54 293 l 248 488 "},"п":{"x_min":54.265625,"x_max":759.609375,"ha":814,"o":"m 54 705 q 70 743 54 727 q 108 759 86 759 q 146 743 130 759 q 162 705 162 727 l 162 661 q 406 759 264 759 q 656 656 552 759 q 759 406 759 552 l 759 54 q 743 15 759 31 q 705 0 727 0 q 667 15 682 0 q 651 54 651 31 l 651 406 q 579 579 651 507 q 406 651 507 651 q 234 579 305 651 q 162 406 162 507 l 162 54 q 146 15 162 31 q 108 0 130 0 q 70 15 86 0 q 54 54 54 31 l 54 705 "},"Ǻ":{"x_min":54.265625,"x_max":922.390625,"ha":977,"o":"m 640 488 l 488 881 l 335 488 l 640 488 m 487 1222 q 439 1202 459 1222 q 419 1154 419 1182 q 439 1105 419 1125 q 487 1085 459 1085 q 535 1105 515 1085 q 555 1154 555 1125 q 535 1202 555 1182 q 487 1222 515 1222 m 547 1030 l 917 77 q 922 54 922 67 q 906 15 922 31 q 868 0 890 0 q 830 16 845 0 q 817 33 822 23 l 682 379 l 293 379 l 158 33 q 147 16 154 23 q 108 0 130 0 q 70 15 86 0 q 54 54 54 31 q 59 77 54 67 l 429 1029 q 390 1057 408 1039 q 350 1154 350 1097 q 400 1259 350 1213 q 379 1302 379 1279 q 393 1338 379 1323 l 449 1395 q 488 1410 465 1410 q 526 1394 510 1410 q 542 1356 542 1378 q 527 1318 542 1334 l 499 1289 q 583 1250 548 1286 q 623 1154 623 1210 q 583 1057 623 1097 q 547 1030 567 1040 "},"K":{"x_min":54.265625,"x_max":759.609375,"ha":814,"o":"m 54 1030 q 70 1069 54 1053 q 108 1085 86 1085 q 146 1069 130 1085 q 162 1030 162 1053 l 162 565 l 665 1068 q 705 1085 682 1085 q 743 1069 727 1085 q 759 1030 759 1053 q 744 992 759 1008 l 362 611 l 749 86 q 759 56 759 72 q 737 10 759 27 q 706 0 722 0 q 660 23 676 0 l 284 533 l 162 411 l 162 54 q 146 15 162 31 q 108 0 130 0 q 70 15 86 0 q 54 54 54 31 l 54 1030 "},"7":{"x_min":54.265625,"x_max":705.359375,"ha":760,"o":"m 147 16 q 108 0 130 0 q 70 15 86 0 q 54 54 54 31 q 65 86 54 70 l 559 976 l 108 976 q 70 992 86 976 q 54 1030 54 1008 q 70 1069 54 1053 q 108 1085 86 1085 l 651 1085 q 689 1069 673 1085 q 705 1030 705 1053 q 697 1001 705 1014 l 157 30 q 147 16 152 21 "},"¨":{"x_min":94.265625,"x_max":555.46875,"ha":651,"o":"m 229 922 q 209 874 229 894 q 162 854 189 854 q 114 874 134 854 q 94 922 94 894 q 114 970 94 950 q 162 990 134 990 q 209 970 189 990 q 229 922 229 950 m 555 922 q 535 874 555 894 q 487 854 515 854 q 439 874 459 854 q 419 922 419 894 q 439 970 419 950 q 487 990 459 990 q 535 970 515 990 q 555 922 555 950 "},"Y":{"x_min":54.265625,"x_max":813.875,"ha":868,"o":"m 488 54 q 472 15 488 31 q 434 0 456 0 q 395 15 411 0 q 379 54 379 31 l 379 526 l 63 1000 q 54 1030 54 1013 q 70 1069 54 1053 q 108 1085 86 1085 q 152 1062 136 1085 l 434 640 l 715 1062 q 759 1085 731 1085 q 797 1069 781 1085 q 813 1030 813 1053 q 805 1000 813 1013 l 488 526 l 488 54 "},"E":{"x_min":54.265625,"x_max":813.875,"ha":868,"o":"m 108 1085 l 759 1085 q 797 1069 781 1085 q 813 1030 813 1053 q 797 992 813 1008 q 759 976 781 976 l 162 976 l 162 596 l 596 596 q 635 580 619 596 q 651 542 651 564 q 635 504 651 520 q 596 488 619 488 l 162 488 l 162 108 l 759 108 q 797 92 781 108 q 813 54 813 76 q 797 15 813 31 q 759 0 781 0 l 108 0 q 70 15 86 0 q 54 54 54 31 l 54 1030 q 70 1069 54 1053 q 108 1085 86 1085 "},"Ô":{"x_min":54.265625,"x_max":1139.421875,"ha":1194,"o":"m 596 976 q 289 849 417 976 q 162 542 162 722 q 289 235 162 362 q 596 108 417 108 q 903 235 776 108 q 1030 542 1030 362 q 903 849 1030 722 q 596 976 776 976 m 1139 542 q 980 159 1139 318 q 596 0 821 0 q 213 159 372 0 q 54 542 54 318 q 213 926 54 767 q 596 1085 372 1085 q 980 926 821 1085 q 1139 542 1139 767 m 624 1376 l 786 1268 q 813 1220 813 1247 q 797 1182 813 1198 q 759 1166 781 1166 q 725 1178 739 1166 l 596 1263 l 467 1178 q 434 1166 453 1166 q 395 1182 411 1166 q 379 1220 379 1198 q 406 1268 379 1247 l 569 1376 q 596 1383 581 1383 q 624 1376 612 1383 "},"Є":{"x_min":54.265625,"x_max":957.65625,"ha":1004,"o":"m 165 488 q 290 236 182 343 q 596 108 417 108 q 868 203 752 108 q 899 212 881 212 q 937 197 921 212 q 953 158 953 181 q 937 120 953 136 q 596 0 786 0 q 213 159 372 0 q 54 542 54 318 q 213 926 54 767 q 596 1085 372 1085 q 942 961 790 1085 q 957 922 957 944 q 941 884 957 900 q 903 868 925 868 q 864 884 881 868 q 596 976 750 976 q 290 849 417 976 q 165 596 182 741 l 651 596 q 689 580 673 596 q 705 542 705 564 q 689 504 705 520 q 651 488 673 488 l 165 488 "},"Ï":{"x_min":-67.15625,"x_max":394.046875,"ha":326,"o":"m 108 1030 q 124 1069 108 1053 q 162 1085 140 1085 q 201 1069 185 1085 q 217 1030 217 1053 l 217 54 q 201 15 217 31 q 162 0 185 0 q 124 15 140 0 q 108 54 108 31 l 108 1030 m 68 1247 q 48 1200 68 1220 q 0 1180 28 1180 q -47 1200 -27 1180 q -67 1247 -67 1220 q -47 1295 -67 1275 q 0 1315 -27 1315 q 48 1295 28 1315 q 68 1247 68 1275 m 394 1247 q 374 1200 394 1220 q 326 1180 354 1180 q 278 1200 298 1180 q 258 1247 258 1220 q 278 1295 258 1275 q 326 1315 298 1315 q 374 1295 354 1315 q 394 1247 394 1275 "},"ġ":{"x_min":54.265625,"x_max":813.875,"ha":868,"o":"m 434 651 q 242 571 321 651 q 162 379 162 492 q 242 187 162 267 q 434 108 321 108 q 626 187 546 108 q 705 379 705 267 q 626 571 705 492 q 434 651 546 651 m 705 113 q 702 111 704 112 q 434 0 591 0 q 165 111 276 0 q 54 379 54 222 q 165 648 54 537 q 434 759 276 759 q 702 648 591 759 q 813 379 813 537 l 813 0 q 728 -206 813 -118 q 440 -325 609 -325 q 152 -206 271 -325 q 80 -111 108 -162 q 72 -83 72 -99 q 88 -45 72 -61 q 126 -29 104 -29 q 165 -44 149 -29 q 177 -61 172 -52 q 229 -129 197 -97 q 440 -217 316 -217 q 651 -129 563 -217 q 705 0 705 -64 l 705 113 m 515 923 q 491 865 515 889 q 434 841 467 841 q 376 865 400 841 q 352 923 352 889 q 376 980 352 956 q 434 1004 400 1004 q 491 980 467 1004 q 515 923 515 956 "},"έ":{"x_min":54.265625,"x_max":556.828125,"ha":597,"o":"m 271 759 q 539 648 428 759 q 556 608 556 630 q 540 570 556 585 q 502 554 524 554 q 459 575 480 554 q 271 651 381 651 q 194 619 226 651 q 162 542 162 587 q 194 465 162 497 q 271 434 226 434 l 325 434 q 363 418 347 434 q 379 379 379 402 q 363 341 379 357 q 325 325 347 325 l 271 325 q 194 293 226 325 q 162 217 162 261 q 194 140 162 172 q 271 108 226 108 q 459 183 381 108 q 502 205 480 205 q 540 189 524 205 q 556 151 556 173 q 539 111 556 128 q 271 0 428 0 q 117 63 181 0 q 54 217 54 126 q 127 379 54 314 q 54 542 54 445 q 117 696 54 632 q 271 759 181 759 m 471 992 l 306 828 q 269 813 290 813 q 230 829 246 813 q 215 868 215 845 q 228 904 215 889 l 393 1069 q 432 1085 409 1085 q 470 1069 454 1085 q 486 1030 486 1053 q 471 992 486 1009 "},"ϋ":{"x_min":54.265625,"x_max":759.609375,"ha":814,"o":"m 406 0 q 157 103 261 0 q 54 352 54 206 l 54 705 q 70 743 54 727 q 108 759 86 759 q 146 743 130 759 q 162 705 162 727 l 162 352 q 234 180 162 251 q 406 108 305 108 q 579 180 507 108 q 651 352 651 251 l 651 705 q 667 743 651 727 q 705 759 682 759 q 743 743 727 759 q 759 705 759 727 l 759 352 q 656 103 759 206 q 406 0 552 0 m 311 922 q 291 874 311 894 q 244 854 271 854 q 196 874 216 854 q 176 922 176 894 q 196 970 176 950 q 244 990 216 990 q 291 970 271 990 q 311 922 311 950 m 637 922 q 617 874 637 894 q 569 854 597 854 q 521 874 541 854 q 501 922 501 894 q 521 970 501 950 q 569 990 541 990 q 617 970 597 990 q 637 922 637 950 "},"җ":{"x_min":54.265625,"x_max":1139.421875,"ha":1194,"o":"m 1029 30 l 702 310 l 651 266 l 651 54 q 635 15 651 31 q 596 0 619 0 q 558 15 574 0 q 542 54 542 31 l 542 266 l 491 310 l 143 12 q 108 0 128 0 q 70 15 86 0 q 54 54 54 31 q 69 92 54 76 l 406 381 l 69 667 q 54 705 54 682 q 70 743 54 727 q 108 759 86 759 q 144 746 129 759 l 542 408 l 542 705 q 558 743 542 727 q 596 759 574 759 q 635 743 619 759 q 651 705 651 727 l 651 408 l 1049 746 q 1085 759 1064 759 q 1123 743 1107 759 q 1139 705 1139 727 q 1123 667 1139 682 l 786 381 l 1123 92 q 1139 54 1139 76 q 1087 -180 1139 -73 q 1074 -200 1083 -191 q 1036 -217 1058 -217 q 998 -201 1013 -217 q 982 -162 982 -185 q 988 -137 982 -148 q 1029 30 1022 -73 "},"й":{"x_min":54.265625,"x_max":759.609375,"ha":814,"o":"m 759 54 q 743 15 759 31 q 705 0 727 0 q 667 15 682 0 q 651 54 651 31 l 651 98 q 406 0 549 0 q 157 103 261 0 q 54 352 54 206 l 54 705 q 70 743 54 727 q 108 759 86 759 q 146 743 130 759 q 162 705 162 727 l 162 352 q 234 180 162 251 q 406 108 305 108 q 579 180 507 108 q 651 352 651 251 l 651 705 q 667 743 651 727 q 705 759 682 759 q 743 743 727 759 q 759 705 759 727 l 759 54 m 193 1003 q 209 1042 193 1026 q 248 1058 225 1058 q 286 1042 270 1058 q 302 1003 302 1026 q 334 965 302 981 q 411 949 366 949 q 487 965 455 949 q 520 1003 520 981 q 536 1042 520 1026 q 574 1058 552 1058 q 612 1042 596 1058 q 628 1003 628 1026 q 564 889 625 932 q 411 841 501 841 q 257 888 320 841 q 193 1003 193 936 "},"b":{"x_min":54.265625,"x_max":813.875,"ha":868,"o":"m 434 108 q 626 187 546 108 q 705 379 705 267 q 626 571 705 492 q 434 651 546 651 q 242 571 321 651 q 162 379 162 492 q 242 187 162 267 q 434 108 321 108 m 162 645 q 165 648 164 647 q 434 759 276 759 q 702 648 591 759 q 813 379 813 537 q 702 111 813 222 q 434 0 591 0 q 165 111 276 0 q 54 379 54 222 l 54 1032 q 70 1070 54 1054 q 108 1086 86 1086 q 146 1070 130 1086 q 162 1032 162 1054 l 162 645 "},"ύ":{"x_min":54.265625,"x_max":759.609375,"ha":814,"o":"m 406 0 q 157 103 261 0 q 54 352 54 206 l 54 705 q 70 743 54 727 q 108 759 86 759 q 146 743 130 759 q 162 705 162 727 l 162 352 q 234 180 162 251 q 406 108 305 108 q 579 180 507 108 q 651 352 651 251 l 651 705 q 667 743 651 727 q 705 759 682 759 q 743 743 727 759 q 759 705 759 727 l 759 352 q 656 103 759 206 q 406 0 552 0 m 573 992 l 408 828 q 370 813 392 813 q 332 829 348 813 q 316 868 316 845 q 330 904 316 889 l 495 1069 q 533 1085 511 1085 q 572 1069 556 1085 q 588 1030 588 1053 q 573 992 588 1009 "},"ﬂ":{"x_min":54.265625,"x_max":759.609375,"ha":814,"o":"m 542 922 q 488 976 542 976 q 271 759 271 976 l 271 718 l 434 718 q 473 702 457 718 q 489 664 489 687 q 473 626 489 642 q 434 610 457 610 l 271 610 l 271 54 q 255 15 271 31 q 217 0 239 0 q 178 15 194 0 q 162 54 162 31 l 162 610 l 108 610 q 70 626 86 610 q 54 664 54 642 q 70 702 54 687 q 108 718 86 718 l 162 718 l 162 759 q 488 1085 162 1085 q 651 922 651 1085 l 651 108 l 705 108 q 743 92 727 108 q 759 54 759 76 q 743 15 759 31 q 705 0 727 0 l 596 0 q 558 15 574 0 q 542 54 542 31 l 542 922 "},"ф":{"x_min":54.265625,"x_max":1247.9375,"ha":1302,"o":"m 379 651 q 226 571 289 651 q 162 379 162 492 q 226 187 162 267 q 379 108 289 108 q 533 187 470 108 q 596 379 596 267 q 533 571 596 492 q 379 651 470 651 m 922 651 q 768 571 832 651 q 705 379 705 492 q 768 187 705 267 q 922 108 832 108 q 1076 187 1012 108 q 1139 379 1139 267 q 1076 571 1139 492 q 922 651 1012 651 m 596 1030 q 612 1069 596 1053 q 651 1085 628 1085 q 689 1069 673 1085 q 705 1030 705 1053 l 705 663 q 922 759 796 759 q 1152 648 1057 759 q 1247 379 1247 537 q 1152 111 1247 222 q 922 0 1057 0 q 705 96 796 0 l 705 -271 q 689 -309 705 -293 q 651 -325 673 -325 q 612 -309 628 -325 q 596 -271 596 -293 l 596 96 q 379 0 505 0 q 149 111 244 0 q 54 379 54 222 q 149 648 54 537 q 379 759 244 759 q 596 663 505 759 l 596 1030 "},"Ŋ":{"x_min":54.265625,"x_max":922.390625,"ha":977,"o":"m 162 54 q 146 15 162 31 q 108 0 130 0 q 70 15 86 0 q 54 54 54 31 l 54 1030 q 70 1069 54 1053 q 108 1085 86 1085 q 146 1069 130 1085 q 162 1030 162 1053 l 162 937 q 181 958 171 948 q 488 1085 308 1085 q 795 957 668 1085 q 922 651 922 830 l 922 325 q 827 95 922 190 q 596 0 731 0 q 366 96 461 0 q 350 134 350 111 q 366 172 350 156 q 404 188 382 188 q 443 172 427 188 q 596 108 506 108 q 750 171 687 108 q 813 325 813 235 l 813 651 q 718 881 813 786 q 488 976 623 976 q 258 881 353 976 q 162 651 162 786 l 162 54 "},"Ũ":{"x_min":54.265625,"x_max":813.875,"ha":868,"o":"m 54 1030 q 70 1069 54 1053 q 108 1085 86 1085 q 146 1069 130 1085 q 162 1030 162 1053 l 162 379 q 242 187 162 267 q 434 108 321 108 q 626 187 546 108 q 705 379 705 267 l 705 1030 q 721 1069 705 1053 q 759 1085 737 1085 q 797 1069 781 1085 q 813 1030 813 1053 l 813 379 q 702 111 813 222 q 434 0 591 0 q 165 111 276 0 q 54 379 54 222 l 54 1030 m 472 1221 q 328 1167 411 1167 q 174 1230 238 1167 q 159 1268 159 1247 q 175 1307 159 1291 q 213 1323 191 1323 q 251 1308 235 1323 q 328 1275 283 1275 q 396 1299 366 1275 q 539 1353 456 1353 q 693 1289 630 1353 q 708 1252 708 1273 q 692 1213 708 1229 q 654 1197 676 1197 q 616 1212 632 1197 q 539 1245 584 1245 q 472 1221 501 1245 "},"Щ":{"x_min":54.265625,"x_max":1139.421875,"ha":1194,"o":"m 108 0 q 70 15 86 0 q 54 54 54 31 l 54 1030 q 70 1069 54 1053 q 108 1085 86 1085 q 146 1069 130 1085 q 162 1030 162 1053 l 162 108 l 488 108 l 488 1030 q 504 1069 488 1053 q 542 1085 520 1085 q 580 1069 564 1085 q 596 1030 596 1053 l 596 108 l 922 108 l 922 1030 q 938 1069 922 1053 q 976 1085 954 1085 q 1014 1069 999 1085 q 1030 1030 1030 1053 l 1030 108 l 1085 108 q 1123 92 1107 108 q 1139 54 1139 76 q 1087 -180 1139 -73 q 1074 -200 1083 -191 q 1036 -217 1058 -217 q 998 -201 1013 -217 q 982 -162 982 -185 q 988 -137 982 -148 q 1024 0 1014 -88 l 108 0 "},"L":{"x_min":54.265625,"x_max":759.609375,"ha":814,"o":"m 54 1030 q 70 1069 54 1053 q 108 1085 86 1085 q 146 1069 130 1085 q 162 1030 162 1053 l 162 108 l 705 108 q 743 92 727 108 q 759 54 759 76 q 743 15 759 31 q 705 0 727 0 l 108 0 q 70 15 86 0 q 54 54 54 31 l 54 1030 "},";":{"x_min":54.265625,"x_max":217.03125,"ha":271,"o":"m 217 678 q 193 621 217 644 q 135 597 169 597 q 78 621 101 597 q 54 678 54 644 q 78 736 54 712 q 135 760 101 760 q 193 736 169 760 q 217 678 217 712 m 78 23 q 54 81 54 47 q 78 139 54 115 q 135 162 101 162 q 193 139 169 162 q 217 81 217 115 q 158 -141 217 -51 q 122 -162 143 -162 q 93 -150 105 -162 q 81 -122 81 -139 q 92 -93 81 -105 q 78 23 140 -40 "},"ď":{"x_min":54.265625,"x_max":1039.71875,"ha":1085,"o":"m 705 379 q 626 571 705 492 q 434 651 546 651 q 242 571 321 651 q 162 379 162 492 q 242 187 162 267 q 434 108 321 108 q 626 187 546 108 q 705 379 705 267 m 705 1032 q 721 1070 705 1054 q 759 1086 737 1086 q 797 1070 781 1086 q 813 1032 813 1054 l 813 379 q 702 111 813 222 q 434 0 591 0 q 165 111 276 0 q 54 379 54 222 q 165 648 54 537 q 434 759 276 759 q 702 648 591 759 q 705 645 704 647 l 705 1032 m 868 1017 q 888 1065 868 1045 q 935 1085 908 1085 q 996 1045 978 1085 q 1039 891 1039 969 q 936 649 1039 773 q 908 637 925 637 q 879 649 891 637 q 868 677 868 661 q 871 695 868 687 q 873 990 937 855 q 868 1017 868 1002 "},"Ο":{"x_min":54.265625,"x_max":1139.421875,"ha":1194,"o":"m 596 976 q 289 849 417 976 q 162 542 162 722 q 289 235 162 362 q 596 108 417 108 q 903 235 776 108 q 1030 542 1030 362 q 903 849 1030 722 q 596 976 776 976 m 1139 542 q 980 159 1139 318 q 596 0 821 0 q 213 159 372 0 q 54 542 54 318 q 213 926 54 767 q 596 1085 372 1085 q 980 926 821 1085 q 1139 542 1139 767 "},"Ĭ":{"x_min":-53.578125,"x_max":381.15625,"ha":326,"o":"m 105 1030 q 121 1069 105 1053 q 160 1085 137 1085 q 198 1069 182 1085 q 214 1030 214 1053 l 214 54 q 198 15 214 31 q 160 0 182 0 q 121 15 137 0 q 105 54 105 31 l 105 1030 m -53 1329 q -37 1367 -53 1351 q 0 1383 -21 1383 q 38 1367 23 1383 q 54 1329 54 1351 q 86 1291 54 1306 q 163 1275 118 1275 q 240 1291 208 1275 q 272 1329 272 1306 q 288 1367 272 1351 q 326 1383 304 1383 q 365 1367 349 1383 q 381 1329 381 1351 q 317 1214 377 1258 q 163 1166 253 1166 q 9 1214 73 1166 q -53 1329 -53 1262 "},"ŧ":{"x_min":53.578125,"x_max":488.328125,"ha":543,"o":"m 271 379 l 271 271 q 434 108 271 108 q 472 92 456 108 q 488 54 488 76 q 472 15 488 31 q 434 0 456 0 q 162 271 162 0 l 162 379 l 107 379 q 69 395 85 379 q 53 434 53 411 q 69 472 53 456 q 107 488 85 488 l 162 488 l 162 651 l 108 651 q 70 667 86 651 q 54 705 54 682 q 70 743 54 727 q 108 759 86 759 l 162 759 l 162 1030 q 178 1069 162 1053 q 217 1085 194 1085 q 255 1069 239 1085 q 271 1030 271 1053 l 271 759 l 380 759 q 418 743 402 759 q 434 705 434 727 q 418 667 434 682 q 380 651 402 651 l 271 651 l 271 488 l 379 488 q 418 472 402 488 q 434 434 434 456 q 418 395 434 411 q 379 379 402 379 l 271 379 "},"À":{"x_min":54.265625,"x_max":922.390625,"ha":977,"o":"m 293 379 l 158 33 q 147 15 154 23 q 108 0 130 0 q 70 15 86 0 q 54 54 54 31 q 59 77 54 67 l 436 1047 q 450 1069 440 1059 q 488 1085 465 1085 q 526 1069 510 1085 q 540 1047 536 1059 l 917 77 q 922 54 922 67 q 906 15 922 31 q 868 0 890 0 q 830 15 845 0 q 817 33 822 23 l 682 379 l 293 379 m 640 488 l 488 881 l 335 488 l 640 488 m 307 1356 q 323 1394 307 1378 q 361 1410 339 1410 q 400 1395 383 1410 l 564 1230 q 578 1193 578 1214 q 562 1155 578 1171 q 524 1139 546 1139 q 486 1153 502 1139 l 322 1318 q 307 1356 307 1334 "},"Ϊ":{"x_min":-67.828125,"x_max":393.375,"ha":326,"o":"m 108 1030 q 124 1069 108 1053 q 162 1085 140 1085 q 201 1069 185 1085 q 217 1030 217 1053 l 217 54 q 201 15 217 31 q 162 0 185 0 q 124 15 140 0 q 108 54 108 31 l 108 1030 m 67 1247 q 47 1200 67 1220 q 0 1180 27 1180 q -47 1200 -27 1180 q -67 1247 -67 1220 q -47 1295 -67 1275 q 0 1315 -27 1315 q 47 1295 27 1315 q 67 1247 67 1275 m 393 1247 q 373 1200 393 1220 q 325 1180 353 1180 q 277 1200 297 1180 q 257 1247 257 1220 q 277 1295 257 1275 q 325 1315 297 1315 q 373 1295 353 1315 q 393 1247 393 1275 "},"½":{"x_min":54.265625,"x_max":1030.90625,"ha":1085,"o":"m 813 1085 q 852 1069 836 1085 q 868 1030 868 1053 q 859 1001 868 1014 l 210 27 q 162 0 191 0 q 124 15 140 0 q 108 54 108 31 q 116 83 108 70 l 770 1064 q 813 1085 784 1085 m 217 466 q 207 443 217 453 q 184 434 198 434 q 161 443 170 434 q 151 466 151 453 l 151 1007 l 99 990 q 86 988 93 988 q 63 997 73 988 q 54 1020 54 1007 q 63 1043 54 1034 q 75 1051 69 1048 l 172 1083 q 184 1085 178 1085 q 207 1076 198 1085 q 217 1053 217 1066 l 217 466 m 998 65 q 1021 55 1011 65 q 1030 32 1030 46 q 1021 9 1030 18 q 998 0 1011 0 l 672 0 q 649 9 658 0 q 639 32 639 18 q 649 55 639 46 l 927 363 q 965 456 965 402 q 927 548 965 510 q 834 586 889 586 q 742 548 780 586 q 704 456 704 510 q 695 433 704 442 q 672 423 685 423 q 649 433 658 423 q 639 456 639 442 q 696 594 639 537 q 834 651 754 651 q 973 594 916 651 q 1030 456 1030 537 q 973 317 1030 375 l 746 65 l 998 65 "},"'":{"x_min":54.265625,"x_max":162.78125,"ha":217,"o":"m 149 827 q 137 798 149 810 q 108 786 125 786 q 79 798 91 786 q 67 827 67 810 l 54 1025 l 54 1030 q 70 1069 54 1053 q 108 1085 86 1085 q 146 1069 130 1085 q 162 1030 162 1053 l 162 1025 l 149 827 "},"ĳ":{"x_min":94.953125,"x_max":501.890625,"ha":597,"o":"m 230 922 q 210 874 230 894 q 162 854 190 854 q 114 874 134 854 q 94 922 94 894 q 114 970 94 950 q 162 990 134 990 q 210 970 190 990 q 230 922 230 950 m 108 705 q 124 743 108 727 q 162 759 140 759 q 201 743 185 759 q 217 705 217 727 l 217 54 q 201 15 217 31 q 162 0 185 0 q 124 15 140 0 q 108 54 108 31 l 108 705 m 501 922 q 481 874 501 894 q 434 854 461 854 q 386 874 406 854 q 366 922 366 894 q 386 970 366 950 q 434 990 406 990 q 481 970 461 990 q 501 922 501 950 m 379 0 l 379 705 q 395 743 379 727 q 434 759 411 759 q 472 743 456 759 q 488 705 488 727 l 488 0 q 393 -230 488 -134 q 162 -325 297 -325 q 124 -309 140 -325 q 108 -271 108 -293 q 124 -232 108 -248 q 162 -217 140 -217 q 316 -153 252 -217 q 379 0 379 -90 "},"Р":{"x_min":54.265625,"x_max":678.21875,"ha":732,"o":"m 162 976 l 162 488 l 325 488 q 498 559 426 488 q 569 732 569 631 q 498 905 569 833 q 325 976 426 976 l 162 976 m 108 1085 l 325 1085 q 574 981 471 1085 q 678 732 678 878 q 574 483 678 586 q 325 379 471 379 l 162 379 l 162 54 q 146 15 162 31 q 108 0 130 0 q 70 15 86 0 q 54 54 54 31 l 54 1030 q 70 1069 54 1053 q 108 1085 86 1085 "},"˛":{"x_min":54.265625,"x_max":379.8125,"ha":434,"o":"m 169 24 q 217 52 183 51 q 255 36 239 52 q 271 0 270 21 q 269 -15 271 -8 q 186 -118 259 -65 q 162 -162 162 -137 q 178 -201 162 -185 q 217 -217 194 -217 q 246 -208 233 -217 l 293 -173 q 325 -162 307 -162 q 363 -178 347 -162 q 379 -217 379 -194 q 360 -259 379 -244 l 306 -297 q 217 -325 265 -325 q 102 -277 149 -325 q 54 -162 54 -229 q 123 -29 54 -84 q 169 24 159 0 "},"Ć":{"x_min":54.265625,"x_max":957.65625,"ha":1004,"o":"m 899 212 q 937 197 921 212 q 953 158 953 181 q 937 120 953 136 q 596 0 786 0 q 213 159 372 0 q 54 542 54 318 q 213 926 54 767 q 596 1085 372 1085 q 942 961 790 1085 q 957 922 957 944 q 941 884 957 900 q 903 868 925 868 q 864 884 881 868 q 596 976 750 976 q 289 849 417 976 q 162 542 162 722 q 289 235 162 362 q 596 108 417 108 q 868 203 752 108 q 899 212 881 212 m 745 1318 l 580 1153 q 543 1139 564 1139 q 504 1155 520 1139 q 489 1193 489 1171 q 502 1230 489 1214 l 667 1395 q 706 1410 683 1410 q 744 1394 728 1410 q 760 1356 760 1378 q 745 1318 760 1334 "},"Т":{"x_min":54.265625,"x_max":868.125,"ha":922,"o":"m 108 976 q 70 992 86 976 q 54 1030 54 1008 q 70 1069 54 1053 q 108 1085 86 1085 l 813 1085 q 852 1069 836 1085 q 868 1030 868 1053 q 852 992 868 1008 q 813 976 836 976 l 515 976 l 515 54 q 499 15 515 31 q 461 0 483 0 q 422 15 438 0 q 406 54 406 31 l 406 976 l 108 976 "},"£":{"x_min":54.265625,"x_max":651.09375,"ha":705,"o":"m 162 0 q 124 15 140 0 q 108 54 108 31 q 112 75 108 65 q 189 434 191 261 l 108 434 q 70 450 86 434 q 54 488 54 465 q 70 526 54 510 q 108 542 86 542 l 179 542 q 128 712 164 628 l 129 712 q 108 813 108 763 q 187 1005 108 926 q 379 1085 267 1085 q 571 1005 492 1085 q 606 964 591 986 q 617 930 617 949 q 601 892 617 908 q 562 876 585 876 q 524 892 537 876 q 495 929 513 909 q 379 976 446 976 q 264 928 312 976 q 217 813 217 881 q 229 752 217 783 q 289 542 274 650 l 488 542 q 526 526 510 542 q 542 488 542 510 q 526 450 542 465 q 488 434 510 434 l 297 434 q 241 108 299 276 l 508 108 l 549 189 q 596 217 563 217 q 635 201 619 217 q 651 162 651 185 q 644 137 651 148 l 592 32 q 581 16 588 23 q 542 0 564 0 l 162 0 "},"ů":{"x_min":54.265625,"x_max":759.609375,"ha":814,"o":"m 759 54 q 743 15 759 31 q 705 0 727 0 q 667 15 682 0 q 651 54 651 31 l 651 98 q 406 0 549 0 q 157 103 261 0 q 54 352 54 206 l 54 705 q 70 743 54 727 q 108 759 86 759 q 146 743 130 759 q 162 705 162 727 l 162 352 q 234 180 162 251 q 406 108 305 108 q 579 180 507 108 q 651 352 651 251 l 651 705 q 667 743 651 727 q 705 759 682 759 q 743 743 727 759 q 759 705 759 727 l 759 54 m 543 948 q 503 851 543 891 q 407 811 463 811 q 310 851 350 811 q 270 948 270 891 q 310 1045 270 1005 q 407 1085 350 1085 q 503 1045 463 1085 q 543 948 543 1005 m 407 1016 q 359 996 379 1016 q 339 948 339 976 q 359 900 339 920 q 407 880 379 880 q 455 900 435 880 q 475 948 475 920 q 455 996 475 976 q 407 1016 435 1016 "},"Ō":{"x_min":54.265625,"x_max":1139.421875,"ha":1194,"o":"m 596 976 q 289 849 417 976 q 162 542 162 722 q 289 235 162 362 q 596 108 417 108 q 903 235 776 108 q 1030 542 1030 362 q 903 849 1030 722 q 596 976 776 976 m 1139 542 q 980 159 1139 318 q 596 0 821 0 q 213 159 372 0 q 54 542 54 318 q 213 926 54 767 q 596 1085 372 1085 q 980 926 821 1085 q 1139 542 1139 767 m 434 1193 q 395 1209 411 1193 q 379 1247 379 1225 q 395 1286 379 1270 q 434 1302 411 1302 l 759 1302 q 797 1286 781 1302 q 813 1247 813 1270 q 797 1209 813 1225 q 759 1193 781 1193 l 434 1193 "},"а":{"x_min":54.265625,"x_max":813.875,"ha":868,"o":"m 434 651 q 242 571 321 651 q 162 379 162 492 q 242 187 162 267 q 434 108 321 108 q 626 187 546 108 q 705 379 705 267 q 626 571 705 492 q 434 651 546 651 m 705 113 q 434 0 591 0 q 165 111 276 0 q 54 379 54 222 q 165 648 54 537 q 434 759 276 759 q 702 648 591 759 q 813 379 813 537 l 813 54 q 797 15 813 31 q 759 0 781 0 q 721 15 737 0 q 705 54 705 31 l 705 113 "},"Ğ":{"x_min":54.265625,"x_max":957.65625,"ha":1017,"o":"m 953 158 q 937 120 953 136 q 596 0 786 0 q 213 159 372 0 q 54 542 54 318 q 213 926 54 767 q 596 1085 372 1085 q 942 961 790 1085 q 957 922 957 944 q 941 884 957 900 q 903 868 925 868 q 864 884 881 868 q 596 976 750 976 q 289 849 417 976 q 162 542 162 722 q 289 235 162 362 q 596 108 417 108 q 845 185 737 108 l 845 434 l 630 434 q 592 450 608 434 q 576 488 576 465 q 592 526 576 510 q 630 542 608 542 l 900 542 q 937 526 921 542 q 953 488 953 510 l 953 158 m 383 1329 q 399 1367 383 1351 q 437 1383 415 1383 q 475 1367 459 1383 q 491 1329 491 1351 q 523 1291 491 1306 q 600 1275 555 1275 q 677 1291 644 1275 q 709 1329 709 1306 q 725 1367 709 1351 q 763 1383 741 1383 q 802 1367 786 1383 q 817 1329 817 1351 q 754 1214 814 1258 q 600 1166 690 1166 q 446 1214 510 1166 q 383 1329 383 1262 "},"ә":{"x_min":54.296875,"x_max":813.859375,"ha":868,"o":"m 167 325 q 242 187 182 247 q 434 108 321 108 q 626 187 546 108 q 700 325 685 247 l 167 325 m 225 575 q 186 591 202 575 q 170 629 170 607 q 186 668 170 651 q 434 759 291 759 q 702 648 591 759 q 813 379 813 537 q 702 111 813 222 q 434 0 591 0 q 165 111 276 0 q 54 379 54 222 q 70 418 54 402 q 108 434 86 434 l 700 434 q 626 571 685 512 q 434 651 546 651 q 259 586 332 651 q 225 575 244 575 "},"v":{"x_min":54.265625,"x_max":759.609375,"ha":814,"o":"m 445 14 q 406 0 430 0 q 368 15 383 0 q 359 28 363 19 l 58 684 q 54 705 54 693 q 70 743 54 727 q 108 759 86 759 q 147 744 130 759 q 157 729 152 738 l 406 184 l 656 729 q 667 744 661 738 q 705 759 682 759 q 743 743 727 759 q 759 705 759 727 q 755 684 759 693 l 454 28 q 445 14 450 19 "},"Ї":{"x_min":-67.15625,"x_max":394.046875,"ha":326,"o":"m 108 1030 q 124 1069 108 1053 q 162 1085 140 1085 q 201 1069 185 1085 q 217 1030 217 1053 l 217 54 q 201 15 217 31 q 162 0 185 0 q 124 15 140 0 q 108 54 108 31 l 108 1030 m 68 1247 q 48 1200 68 1220 q 0 1180 28 1180 q -47 1200 -27 1180 q -67 1247 -67 1220 q -47 1295 -67 1275 q 0 1315 -27 1315 q 48 1295 28 1315 q 68 1247 68 1275 m 394 1247 q 374 1200 394 1220 q 326 1180 354 1180 q 278 1200 298 1180 q 258 1247 258 1220 q 278 1295 258 1275 q 326 1315 298 1315 q 374 1295 354 1315 q 394 1247 394 1275 "},"û":{"x_min":54.265625,"x_max":759.609375,"ha":814,"o":"m 759 54 q 743 15 759 31 q 705 0 727 0 q 667 15 682 0 q 651 54 651 31 l 651 98 q 406 0 549 0 q 157 103 261 0 q 54 352 54 206 l 54 705 q 70 743 54 727 q 108 759 86 759 q 146 743 130 759 q 162 705 162 727 l 162 352 q 234 180 162 251 q 406 108 305 108 q 579 180 507 108 q 651 352 651 251 l 651 705 q 667 743 651 727 q 705 759 682 759 q 743 743 727 759 q 759 705 759 727 l 759 54 m 434 1050 l 596 942 q 623 895 623 922 q 608 856 623 872 q 569 841 592 841 q 535 852 550 841 l 406 937 l 278 852 q 244 841 263 841 q 205 856 221 841 q 189 895 189 872 q 217 942 189 922 l 379 1050 q 406 1058 391 1058 q 434 1050 422 1058 "},"Ź":{"x_min":54.265625,"x_max":922.390625,"ha":977,"o":"m 108 976 q 70 992 86 976 q 54 1030 54 1008 q 70 1069 54 1053 q 108 1085 86 1085 l 868 1085 q 906 1069 890 1085 q 922 1030 922 1053 q 912 999 922 1013 l 219 108 l 868 108 q 906 92 890 108 q 922 54 922 76 q 906 15 922 31 q 868 0 890 0 l 108 0 q 70 15 86 0 q 54 54 54 31 q 65 88 54 73 l 756 976 l 108 976 m 654 1318 l 489 1153 q 452 1139 474 1139 q 414 1155 430 1139 q 398 1193 398 1171 q 411 1230 398 1214 l 576 1395 q 615 1410 592 1410 q 653 1394 637 1410 q 669 1356 669 1378 q 654 1318 669 1334 "},"ˉ":{"x_min":54.265625,"x_max":488.328125,"ha":543,"o":"m 108 868 q 70 884 86 868 q 54 922 54 900 q 70 960 54 944 q 108 976 86 976 l 434 976 q 472 960 456 976 q 488 922 488 944 q 472 884 488 900 q 434 868 456 868 l 108 868 "},"Ĺ":{"x_min":54.265625,"x_max":759.609375,"ha":814,"o":"m 54 1030 q 70 1069 54 1053 q 108 1085 86 1085 q 146 1069 130 1085 q 162 1030 162 1053 l 162 108 l 705 108 q 743 92 727 108 q 759 54 759 76 q 743 15 759 31 q 705 0 727 0 l 108 0 q 70 15 86 0 q 54 54 54 31 l 54 1030 m 419 1318 l 255 1153 q 217 1139 239 1139 q 179 1155 195 1139 q 163 1193 163 1171 q 177 1230 163 1214 l 341 1395 q 380 1410 358 1410 q 418 1394 402 1410 q 434 1356 434 1378 q 419 1318 434 1334 "},"₤":{"x_min":54.265625,"x_max":651.09375,"ha":705,"o":"m 155 630 q 128 712 144 676 l 129 712 q 108 813 108 763 q 187 1005 108 926 q 379 1085 267 1085 q 571 1005 492 1085 q 606 964 591 986 q 617 930 617 949 q 601 892 617 908 q 562 876 585 876 q 524 892 540 876 q 495 929 506 916 q 379 976 446 976 q 264 928 312 976 q 217 813 217 881 q 229 752 217 783 q 267 630 252 699 l 488 630 q 526 614 510 630 q 542 576 542 598 q 526 538 542 554 q 488 522 510 522 l 286 522 q 289 488 288 505 q 291 454 290 471 l 488 454 q 526 438 510 454 q 542 400 542 422 q 526 361 542 377 q 488 345 510 345 l 290 345 q 241 108 283 217 l 508 108 l 549 189 q 596 217 564 217 q 635 201 619 217 q 651 162 651 185 q 644 137 651 148 l 592 32 q 581 16 588 23 q 542 0 564 0 l 162 0 q 124 15 140 0 q 108 54 108 31 q 112 75 108 65 q 181 345 170 201 l 108 345 q 70 361 86 345 q 54 400 54 377 q 70 438 54 422 q 108 454 86 454 l 181 454 q 179 488 181 471 q 175 522 177 505 l 108 522 q 70 538 86 522 q 54 576 54 554 q 70 614 54 598 q 108 630 86 630 l 155 630 "},"Č":{"x_min":54.265625,"x_max":957.65625,"ha":1004,"o":"m 899 212 q 937 197 921 212 q 953 158 953 181 q 937 120 953 136 q 596 0 786 0 q 213 159 372 0 q 54 542 54 318 q 213 926 54 767 q 596 1085 372 1085 q 942 961 790 1085 q 957 922 957 944 q 941 884 957 900 q 903 868 925 868 q 864 884 881 868 q 596 976 750 976 q 289 849 417 976 q 162 542 162 722 q 289 235 162 362 q 596 108 417 108 q 868 203 752 108 q 899 212 881 212 m 596 1166 q 568 1174 580 1166 l 406 1281 q 379 1329 379 1302 q 395 1367 379 1351 q 433 1383 411 1383 q 467 1372 453 1383 l 596 1286 l 725 1372 q 758 1383 739 1383 q 797 1367 781 1383 q 813 1329 813 1351 q 786 1281 813 1302 l 623 1174 q 596 1166 611 1166 "},"x":{"x_min":54.265625,"x_max":705.359375,"ha":760,"o":"m 309 380 l 67 670 q 54 705 54 685 q 70 743 54 727 q 108 759 86 759 q 148 742 130 759 l 379 465 l 611 742 q 651 759 628 759 q 689 743 673 759 q 705 705 705 727 q 692 670 705 685 l 450 380 l 694 87 q 705 54 705 73 q 689 15 705 31 q 651 0 673 0 q 613 16 628 0 l 379 295 l 146 16 q 108 0 130 0 q 70 15 86 0 q 54 54 54 31 q 65 87 54 73 l 309 380 "},"è":{"x_min":54.265625,"x_max":813.875,"ha":868,"o":"m 700 434 q 626 571 685 512 q 434 651 546 651 q 242 571 321 651 q 167 434 182 512 l 700 434 m 642 184 q 681 168 665 184 q 697 130 697 152 q 681 91 697 107 q 434 0 576 0 q 165 111 276 0 q 54 379 54 222 q 165 648 54 537 q 434 759 276 759 q 702 648 591 759 q 813 379 813 537 q 797 341 813 357 q 759 325 781 325 l 167 325 q 242 187 182 247 q 434 108 321 108 q 609 172 535 108 q 642 184 623 184 m 271 1030 q 287 1069 271 1053 q 325 1085 303 1085 q 364 1069 347 1085 l 529 904 q 542 868 542 889 q 526 829 542 845 q 488 813 510 813 q 451 828 466 813 l 286 992 q 271 1030 271 1009 "},"Ń":{"x_min":54.265625,"x_max":922.390625,"ha":977,"o":"m 162 54 q 146 15 162 31 q 108 0 130 0 q 70 15 86 0 q 54 54 54 31 l 54 1030 q 70 1069 54 1053 q 108 1085 86 1085 q 150 1065 132 1085 l 813 212 l 813 1030 q 829 1069 813 1053 q 868 1085 845 1085 q 906 1069 890 1085 q 922 1030 922 1053 l 922 54 q 906 15 922 31 q 868 0 890 0 q 827 17 844 0 l 162 872 l 162 54 m 654 1318 l 489 1153 q 452 1139 474 1139 q 414 1155 430 1139 q 398 1193 398 1171 q 411 1230 398 1214 l 576 1395 q 615 1410 592 1410 q 653 1394 637 1410 q 669 1356 669 1378 q 654 1318 669 1334 "},"μ":{"x_min":54.265625,"x_max":759.609375,"ha":813,"o":"m 162 352 q 234 180 162 251 q 406 108 305 108 q 579 180 507 108 q 651 352 651 251 l 651 705 q 667 743 651 727 q 705 759 682 759 q 743 743 727 759 q 759 705 759 727 l 759 54 q 743 15 759 31 q 705 0 727 0 q 667 15 682 0 q 651 54 651 31 l 651 98 q 406 0 549 0 q 162 98 264 0 l 162 -271 q 146 -309 162 -293 q 108 -325 130 -325 q 70 -309 86 -325 q 54 -271 54 -293 l 54 705 q 70 743 54 727 q 108 759 86 759 q 146 743 130 759 q 162 705 162 727 l 162 352 "},".":{"x_min":54.265625,"x_max":217.03125,"ha":271,"o":"m 217 81 q 193 23 217 47 q 135 0 169 0 q 78 23 101 0 q 54 81 54 47 q 78 139 54 115 q 135 162 101 162 q 193 139 169 162 q 217 81 217 115 "},"‘":{"x_min":81.390625,"x_max":252.984375,"ha":326,"o":"m 252 705 q 232 657 252 677 q 185 637 212 637 q 124 676 143 637 q 81 830 81 752 q 184 1073 81 949 q 212 1085 196 1085 q 241 1073 229 1085 q 252 1045 252 1061 q 249 1027 252 1035 q 247 732 183 866 q 252 705 252 720 "},"π":{"x_min":54.265625,"x_max":813.875,"ha":868,"o":"m 108 651 q 70 667 86 651 q 54 705 54 682 q 70 743 54 727 q 108 759 86 759 l 759 759 q 797 743 781 759 q 813 705 813 727 q 797 667 813 682 q 759 651 781 651 l 705 651 l 705 54 q 689 15 705 31 q 651 0 673 0 q 612 15 628 0 q 596 54 596 31 l 596 651 l 271 651 l 271 54 q 255 15 271 31 q 217 0 239 0 q 178 15 194 0 q 162 54 162 31 l 162 651 l 108 651 "},"9":{"x_min":54.265625,"x_max":705.359375,"ha":760,"o":"m 440 439 q 379 434 411 434 q 149 529 244 434 q 54 759 54 624 q 149 989 54 894 q 379 1085 244 1085 q 610 989 514 1085 q 705 759 705 894 q 653 581 705 659 l 320 29 q 309 16 316 22 q 271 0 293 0 q 232 15 248 0 q 217 54 217 31 q 224 82 217 69 l 440 439 m 162 759 q 226 605 162 669 q 379 542 289 542 q 533 605 470 542 q 596 759 596 669 q 533 913 596 849 q 379 976 470 976 q 226 913 289 976 q 162 759 162 849 "},"l":{"x_min":54.265625,"x_max":271.296875,"ha":326,"o":"m 54 1030 q 70 1069 54 1053 q 108 1085 86 1085 q 146 1069 130 1085 q 162 1030 162 1053 l 162 108 l 217 108 q 255 92 239 108 q 271 54 271 76 q 255 15 271 31 q 217 0 239 0 l 108 0 q 70 15 86 0 q 54 54 54 31 l 54 1030 "},"":{"x_min":54.265625,"x_max":718.921875,"ha":760,"o":"m 596 705 q 612 743 596 727 q 651 759 628 759 q 689 743 673 759 q 705 705 705 727 l 705 54 q 689 15 705 31 q 651 0 673 0 q 612 15 628 0 q 596 54 596 31 l 596 705 m 461 976 q 271 759 271 976 l 271 718 l 434 718 q 473 702 457 718 q 489 664 489 687 q 473 626 489 642 q 434 610 457 610 l 271 610 l 271 54 q 255 15 271 31 q 217 0 239 0 q 178 15 194 0 q 162 54 162 31 l 162 610 l 108 610 q 70 626 86 610 q 54 664 54 642 q 70 702 54 687 q 108 718 86 718 l 162 718 l 162 759 q 461 1085 162 1085 q 718 922 718 1085 q 698 874 718 894 q 651 854 678 854 q 603 874 623 854 q 583 922 583 894 q 461 976 583 976 "},"Ъ":{"x_min":0,"x_max":868.125,"ha":922,"o":"m 569 108 q 703 164 648 108 q 759 298 759 219 q 703 432 759 377 q 569 488 648 488 l 325 488 l 325 108 l 569 108 m 271 1085 q 309 1069 293 1085 q 325 1030 325 1053 l 325 596 l 569 596 q 780 509 693 596 q 868 298 868 421 q 780 87 868 174 q 569 0 693 0 l 271 0 q 232 15 248 0 q 217 54 217 31 l 217 976 l 54 976 q 15 992 31 976 q 0 1030 0 1008 q 15 1069 0 1053 q 54 1085 31 1085 l 271 1085 "},"Ś":{"x_min":54.265625,"x_max":664.65625,"ha":719,"o":"m 65 148 q 54 181 54 162 q 70 219 54 203 q 108 235 86 235 q 154 210 137 235 q 173 185 162 197 q 321 109 231 116 q 479 160 411 102 q 555 307 548 218 q 504 466 562 398 q 356 541 446 534 q 172 636 244 551 q 108 834 99 722 q 203 1019 118 946 q 379 1085 280 1085 q 585 988 497 1085 q 612 951 600 970 q 620 922 620 938 q 604 884 620 900 q 566 868 588 868 q 528 884 540 868 q 503 917 516 900 q 392 974 459 969 q 274 936 325 980 q 217 826 222 892 q 255 707 211 758 q 365 650 299 655 q 588 536 500 638 q 664 330 664 445 q 663 299 664 314 q 550 78 652 164 q 341 0 458 0 q 90 115 196 0 q 65 148 76 130 m 525 1318 l 360 1153 q 323 1139 345 1139 q 285 1155 301 1139 q 269 1193 269 1171 q 282 1230 269 1214 l 447 1395 q 486 1410 463 1410 q 524 1394 508 1410 q 540 1356 540 1378 q 525 1318 540 1334 "},"Ü":{"x_min":54.265625,"x_max":813.875,"ha":868,"o":"m 54 1030 q 70 1069 54 1053 q 108 1085 86 1085 q 146 1069 130 1085 q 162 1030 162 1053 l 162 379 q 242 187 162 267 q 434 108 321 108 q 626 187 546 108 q 705 379 705 267 l 705 1030 q 721 1069 705 1053 q 759 1085 737 1085 q 797 1069 781 1085 q 813 1030 813 1053 l 813 379 q 702 111 813 222 q 434 0 591 0 q 165 111 276 0 q 54 379 54 222 l 54 1030 m 339 1247 q 319 1200 339 1220 q 271 1180 299 1180 q 223 1200 243 1180 q 203 1247 203 1220 q 223 1295 203 1275 q 271 1315 243 1315 q 319 1295 299 1315 q 339 1247 339 1275 m 664 1247 q 644 1200 664 1220 q 596 1180 624 1180 q 549 1200 569 1180 q 529 1247 529 1220 q 549 1295 529 1275 q 596 1315 569 1315 q 644 1295 624 1315 q 664 1247 664 1275 "},"à":{"x_min":54.265625,"x_max":813.875,"ha":868,"o":"m 434 651 q 242 571 321 651 q 162 379 162 492 q 242 187 162 267 q 434 108 321 108 q 626 187 546 108 q 705 379 705 267 q 626 571 705 492 q 434 651 546 651 m 705 113 q 434 0 591 0 q 165 111 276 0 q 54 379 54 222 q 165 648 54 537 q 434 759 276 759 q 702 648 591 759 q 813 379 813 537 l 813 54 q 797 15 813 31 q 759 0 781 0 q 721 15 737 0 q 705 54 705 31 l 705 113 m 271 1030 q 287 1069 271 1053 q 325 1085 303 1085 q 364 1069 347 1085 l 529 904 q 542 868 542 889 q 526 829 542 845 q 488 813 510 813 q 451 828 466 813 l 286 992 q 271 1030 271 1009 "},"η":{"x_min":54.265625,"x_max":759.609375,"ha":814,"o":"m 651 406 q 579 579 651 507 q 406 651 507 651 q 234 579 305 651 q 162 406 162 507 l 162 54 q 146 15 162 31 q 108 0 130 0 q 70 15 86 0 q 54 54 54 31 l 54 705 q 70 743 54 727 q 108 759 86 759 q 146 743 130 759 q 162 705 162 727 l 162 661 q 406 759 264 759 q 656 656 552 759 q 759 406 759 552 l 759 -271 q 743 -309 759 -293 q 705 -325 727 -325 q 667 -309 682 -325 q 651 -271 651 -293 l 651 406 "},"ó":{"x_min":54.265625,"x_max":813.875,"ha":868,"o":"m 813 379 q 702 111 813 222 q 434 0 591 0 q 165 111 276 0 q 54 379 54 222 q 165 648 54 537 q 434 759 276 759 q 702 648 591 759 q 813 379 813 537 m 434 651 q 242 571 321 651 q 162 379 162 492 q 242 187 162 267 q 434 108 321 108 q 626 187 546 108 q 705 379 705 267 q 626 571 705 492 q 434 651 546 651 m 581 992 l 417 828 q 379 813 401 813 q 341 829 357 813 q 325 868 325 845 q 339 904 325 889 l 503 1069 q 542 1085 520 1085 q 580 1069 564 1085 q 596 1030 596 1053 q 581 992 596 1009 "},"¦":{"x_min":108.515625,"x_max":217.03125,"ha":326,"o":"m 108 1139 q 124 1177 108 1161 q 162 1193 140 1193 q 201 1177 185 1193 q 217 1139 217 1161 l 217 651 q 201 612 217 628 q 162 596 185 596 q 124 612 140 596 q 108 651 108 628 l 108 1139 m 217 -271 q 201 -309 217 -293 q 162 -325 185 -325 q 124 -309 140 -325 q 108 -271 108 -293 l 108 217 q 124 255 108 239 q 162 271 140 271 q 201 255 185 271 q 217 217 217 239 l 217 -271 "},"Ő":{"x_min":54.265625,"x_max":1139.421875,"ha":1194,"o":"m 596 976 q 289 849 417 976 q 162 542 162 722 q 289 235 162 362 q 596 108 417 108 q 903 235 776 108 q 1030 542 1030 362 q 903 849 1030 722 q 596 976 776 976 m 1139 542 q 980 159 1139 318 q 596 0 821 0 q 213 159 372 0 q 54 542 54 318 q 213 926 54 767 q 596 1085 372 1085 q 980 926 821 1085 q 1139 542 1139 767 m 485 1151 q 447 1125 474 1127 q 410 1150 422 1125 q 406 1166 406 1158 q 409 1181 406 1174 l 471 1376 q 500 1405 479 1396 q 521 1410 511 1410 q 541 1406 531 1410 q 571 1377 562 1398 q 572 1336 580 1357 l 485 1151 m 695 1151 q 657 1125 684 1127 q 620 1150 632 1125 q 617 1166 617 1158 q 619 1181 617 1174 l 681 1376 q 710 1405 689 1396 q 731 1410 721 1410 q 752 1406 741 1410 q 781 1377 773 1398 q 782 1336 790 1357 l 695 1151 "},"Ž":{"x_min":54.265625,"x_max":922.390625,"ha":977,"o":"m 108 976 q 70 992 86 976 q 54 1030 54 1008 q 70 1069 54 1053 q 108 1085 86 1085 l 868 1085 q 906 1069 890 1085 q 922 1030 922 1053 q 912 999 922 1013 l 219 108 l 868 108 q 906 92 890 108 q 922 54 922 76 q 906 15 922 31 q 868 0 890 0 l 108 0 q 70 15 86 0 q 54 54 54 31 q 65 88 54 73 l 756 976 l 108 976 m 488 1166 q 460 1174 472 1166 l 298 1281 q 271 1329 271 1302 q 287 1367 271 1351 q 325 1383 303 1383 q 359 1372 345 1383 l 488 1286 l 617 1372 q 651 1383 631 1383 q 689 1367 673 1383 q 705 1329 705 1351 q 678 1281 705 1302 l 516 1174 q 488 1166 503 1166 "},"е":{"x_min":54.265625,"x_max":813.875,"ha":868,"o":"m 700 434 q 626 571 685 512 q 434 651 546 651 q 242 571 321 651 q 167 434 182 512 l 700 434 m 642 184 q 681 168 665 184 q 697 130 697 152 q 681 91 697 107 q 434 0 576 0 q 165 111 276 0 q 54 379 54 222 q 165 648 54 537 q 434 759 276 759 q 702 648 591 759 q 813 379 813 537 q 797 341 813 357 q 759 325 781 325 l 167 325 q 242 187 182 247 q 434 108 321 108 q 609 172 535 108 q 642 184 623 184 "},"Î":{"x_min":-53.578125,"x_max":380.484375,"ha":326,"o":"m 108 1030 q 124 1069 108 1053 q 162 1085 140 1085 q 201 1069 185 1085 q 217 1030 217 1053 l 217 54 q 201 15 217 31 q 162 0 185 0 q 124 15 140 0 q 108 54 108 31 l 108 1030 m 191 1376 l 353 1268 q 380 1220 380 1247 q 364 1182 380 1198 q 326 1166 348 1166 q 292 1178 306 1166 l 163 1263 l 34 1178 q 0 1166 20 1166 q -37 1182 -21 1166 q -53 1220 -53 1198 q -26 1268 -53 1247 l 135 1376 q 163 1383 147 1383 q 191 1376 179 1383 "},"e":{"x_min":54.265625,"x_max":813.875,"ha":868,"o":"m 700 434 q 626 571 685 512 q 434 651 546 651 q 242 571 321 651 q 167 434 182 512 l 700 434 m 642 184 q 681 168 665 184 q 697 130 697 152 q 681 91 697 107 q 434 0 576 0 q 165 111 276 0 q 54 379 54 222 q 165 648 54 537 q 434 759 276 759 q 702 648 591 759 q 813 379 813 537 q 797 341 813 357 q 759 325 781 325 l 167 325 q 242 187 182 247 q 434 108 321 108 q 609 172 535 108 q 642 184 623 184 "},"ό":{"x_min":54.265625,"x_max":813.875,"ha":868,"o":"m 813 379 q 702 111 813 222 q 434 0 591 0 q 165 111 276 0 q 54 379 54 222 q 165 648 54 537 q 434 759 276 759 q 702 648 591 759 q 813 379 813 537 m 434 651 q 242 571 321 651 q 162 379 162 492 q 242 187 162 267 q 434 108 321 108 q 626 187 546 108 q 705 379 705 267 q 626 571 705 492 q 434 651 546 651 m 600 992 l 435 828 q 398 813 419 813 q 359 829 375 813 q 343 868 343 845 q 357 904 343 889 l 522 1069 q 560 1085 538 1085 q 599 1069 583 1085 q 615 1030 615 1053 q 600 992 615 1009 "},"Ĕ":{"x_min":54.265625,"x_max":813.875,"ha":868,"o":"m 108 1085 l 759 1085 q 797 1069 781 1085 q 813 1030 813 1053 q 797 992 813 1008 q 759 976 781 976 l 162 976 l 162 596 l 596 596 q 635 580 619 596 q 651 542 651 564 q 635 504 651 520 q 596 488 619 488 l 162 488 l 162 108 l 759 108 q 797 92 781 108 q 813 54 813 76 q 797 15 813 31 q 759 0 781 0 l 108 0 q 70 15 86 0 q 54 54 54 31 l 54 1030 q 70 1069 54 1053 q 108 1085 86 1085 m 221 1329 q 237 1367 221 1351 q 275 1383 252 1383 q 313 1367 297 1383 q 329 1329 329 1351 q 361 1291 329 1306 q 438 1275 393 1275 q 515 1291 482 1275 q 547 1329 547 1306 q 563 1367 547 1351 q 601 1383 579 1383 q 639 1367 623 1383 q 655 1329 655 1351 q 592 1214 652 1258 q 438 1166 528 1166 q 284 1214 347 1166 q 221 1329 221 1262 "},"ļ":{"x_min":0.671875,"x_max":326.21875,"ha":326,"o":"m 54 1030 q 70 1069 54 1053 q 108 1085 86 1085 q 146 1069 130 1085 q 162 1030 162 1053 l 162 108 l 217 108 q 255 92 239 108 q 271 54 271 76 q 255 15 271 31 q 217 0 239 0 l 108 0 q 70 15 86 0 q 54 54 54 31 l 54 1030 m 279 -57 q 326 -155 326 -95 q 278 -257 326 -216 q 163 -298 230 -298 q 86 -278 123 -298 l 24 -242 q 0 -196 0 -222 q 16 -158 0 -174 q 54 -142 32 -142 q 84 -150 71 -142 l 137 -183 q 163 -189 149 -189 q 201 -180 185 -189 q 217 -155 217 -171 q 201 -131 217 -140 q 163 -122 185 -122 q 125 -106 141 -122 q 109 -67 109 -90 q 122 -41 109 -54 q 187 -24 141 -24 q 279 -57 237 -27 "},"Ѓ":{"x_min":54.265625,"x_max":759.609375,"ha":814,"o":"m 54 63 l 54 1030 q 70 1069 54 1053 q 109 1085 86 1085 l 705 1085 q 743 1069 727 1085 q 759 1030 759 1053 q 743 992 759 1008 q 705 976 727 976 l 163 976 l 163 53 l 162 53 q 147 16 162 31 q 108 0 130 0 q 70 15 86 0 q 54 54 54 31 q 54 63 54 59 m 600 1318 l 435 1153 q 398 1139 419 1139 q 359 1155 375 1139 q 343 1193 343 1171 q 357 1230 343 1214 l 522 1395 q 560 1410 538 1410 q 599 1394 583 1410 q 615 1356 615 1378 q 600 1318 615 1334 "},"ò":{"x_min":54.265625,"x_max":813.875,"ha":868,"o":"m 813 379 q 702 111 813 222 q 434 0 591 0 q 165 111 276 0 q 54 379 54 222 q 165 648 54 537 q 434 759 276 759 q 702 648 591 759 q 813 379 813 537 m 434 651 q 242 571 321 651 q 162 379 162 492 q 242 187 162 267 q 434 108 321 108 q 626 187 546 108 q 705 379 705 267 q 626 571 705 492 q 434 651 546 651 m 271 1030 q 287 1069 271 1053 q 325 1085 303 1085 q 364 1069 347 1085 l 529 904 q 542 868 542 889 q 526 829 542 845 q 488 813 510 813 q 451 828 466 813 l 286 992 q 271 1030 271 1009 "},"^":{"x_min":54.265625,"x_max":596.84375,"ha":651,"o":"m 325 932 l 151 672 q 108 651 135 651 q 70 667 86 651 q 54 705 54 682 q 61 733 54 720 l 281 1062 q 325 1085 296 1085 q 369 1062 354 1085 l 589 733 q 596 705 596 720 q 580 667 596 682 q 542 651 564 651 q 499 672 515 651 l 325 932 "},"∙":{"x_min":54.265625,"x_max":217.03125,"ha":271,"o":"m 217 515 q 193 457 217 481 q 135 434 169 434 q 78 457 101 434 q 54 515 54 481 q 78 573 54 549 q 135 596 101 596 q 193 573 169 596 q 217 515 217 549 "},"ⁿ":{"x_min":54.265625,"x_max":406.9375,"ha":461,"o":"m 54 895 q 62 914 54 906 q 81 922 70 922 q 100 914 92 922 q 108 895 108 906 l 108 873 q 230 922 159 922 q 355 870 303 922 q 406 746 406 818 l 406 569 q 398 550 406 558 q 379 542 391 542 q 360 550 368 542 q 352 569 352 558 l 352 746 q 316 832 352 796 q 230 868 281 868 q 144 832 180 868 q 108 746 108 796 l 108 569 q 100 550 108 558 q 81 542 92 542 q 62 550 70 542 q 54 569 54 558 l 54 895 "},"к":{"x_min":54.265625,"x_max":651.09375,"ha":705,"o":"m 54 705 q 70 743 54 727 q 108 759 86 759 q 146 743 130 759 q 162 705 162 727 l 162 408 l 560 746 q 596 759 575 759 q 635 743 619 759 q 651 705 651 727 q 635 667 651 682 l 298 381 l 635 92 q 651 54 651 76 q 635 15 651 31 q 596 0 619 0 q 561 12 576 0 l 214 310 l 162 266 l 162 54 q 146 15 162 31 q 108 0 130 0 q 70 15 86 0 q 54 54 54 31 l 54 705 "},"ū":{"x_min":54.265625,"x_max":759.609375,"ha":814,"o":"m 759 54 q 743 15 759 31 q 705 0 727 0 q 667 15 682 0 q 651 54 651 31 l 651 98 q 406 0 549 0 q 157 103 261 0 q 54 352 54 206 l 54 705 q 70 743 54 727 q 108 759 86 759 q 146 743 130 759 q 162 705 162 727 l 162 352 q 234 180 162 251 q 406 108 305 108 q 579 180 507 108 q 651 352 651 251 l 651 705 q 667 743 651 727 q 705 759 682 759 q 743 743 727 759 q 759 705 759 727 l 759 54 m 244 868 q 205 884 221 868 q 189 922 189 900 q 205 960 189 944 q 244 976 221 976 l 569 976 q 608 960 592 976 q 623 922 623 944 q 608 884 623 900 q 569 868 592 868 l 244 868 "},"ˆ":{"x_min":54.265625,"x_max":488.328125,"ha":543,"o":"m 299 1050 l 461 942 q 488 895 488 922 q 472 856 488 872 q 434 841 456 841 q 400 852 414 841 l 271 937 l 142 852 q 108 841 128 841 q 70 856 86 841 q 54 895 54 872 q 81 942 54 922 l 243 1050 q 271 1058 255 1058 q 299 1050 286 1058 "},"Ẅ":{"x_min":54.265625,"x_max":1247.9375,"ha":1302,"o":"m 613 1069 q 651 1085 628 1085 q 689 1069 673 1085 q 702 1049 698 1060 l 922 257 l 1142 1049 q 1155 1069 1146 1060 q 1193 1085 1171 1085 q 1231 1069 1216 1085 q 1247 1030 1247 1053 q 1243 1007 1247 1019 l 978 45 q 961 16 972 28 q 922 0 944 0 q 884 16 900 0 q 867 44 872 28 l 651 826 l 435 45 q 418 16 430 28 q 379 0 402 0 q 341 16 357 0 q 324 44 329 28 l 58 1007 q 54 1030 54 1019 q 70 1069 54 1053 q 108 1085 86 1085 q 147 1069 130 1085 q 160 1049 155 1060 l 379 257 l 599 1049 q 613 1069 602 1059 m 556 1247 q 536 1200 556 1220 q 488 1180 516 1180 q 440 1200 460 1180 q 420 1247 420 1220 q 440 1295 420 1275 q 488 1315 460 1315 q 536 1295 516 1315 q 556 1247 556 1275 m 881 1247 q 861 1200 881 1220 q 813 1180 841 1180 q 766 1200 786 1180 q 746 1247 746 1220 q 766 1295 746 1275 q 813 1315 786 1315 q 861 1295 841 1315 q 881 1247 881 1275 "},"č":{"x_min":54.265625,"x_max":700.609375,"ha":760,"o":"m 644 185 q 682 169 666 185 q 698 131 698 153 q 681 91 698 109 q 434 0 576 0 q 165 111 276 0 q 54 379 54 222 q 165 648 54 537 q 434 759 276 759 q 681 668 576 759 q 700 626 700 651 q 684 587 700 603 q 646 571 668 571 q 611 583 626 571 q 434 651 535 651 q 242 571 321 651 q 162 379 162 492 q 242 187 162 267 q 434 108 321 108 q 611 174 535 108 q 644 185 625 185 m 432 841 q 404 848 416 841 l 242 956 q 215 1003 215 976 q 230 1042 215 1026 q 269 1058 246 1058 q 303 1046 288 1058 l 432 961 l 560 1046 q 594 1058 575 1058 q 633 1042 617 1058 q 649 1003 649 1026 q 621 956 649 976 l 459 848 q 432 841 447 841 "},"’":{"x_min":81.390625,"x_max":252.984375,"ha":326,"o":"m 81 1017 q 101 1065 81 1045 q 149 1085 121 1085 q 210 1045 191 1085 q 252 891 252 969 q 149 649 252 773 q 121 637 138 637 q 93 649 105 637 q 81 677 81 661 q 84 695 81 687 q 86 990 151 855 q 81 1017 81 1002 "},"Ν":{"x_min":54.265625,"x_max":922.390625,"ha":977,"o":"m 162 54 q 146 15 162 31 q 108 0 130 0 q 70 15 86 0 q 54 54 54 31 l 54 1030 q 70 1069 54 1053 q 108 1085 86 1085 q 150 1065 132 1085 l 813 212 l 813 1030 q 829 1069 813 1053 q 868 1085 845 1085 q 906 1069 890 1085 q 922 1030 922 1053 l 922 54 q 906 15 922 31 q 868 0 890 0 q 827 17 844 0 l 162 872 l 162 54 "},"-":{"x_min":54.265625,"x_max":488.328125,"ha":543,"o":"m 108 325 q 70 341 86 325 q 54 379 54 357 q 70 418 54 402 q 108 434 86 434 l 434 434 q 472 418 456 434 q 488 379 488 402 q 472 341 488 357 q 434 325 456 325 l 108 325 "},"Q":{"x_min":54.265625,"x_max":1139.421875,"ha":1194,"o":"m 940 122 q 596 0 793 0 q 213 159 372 0 q 54 542 54 318 q 213 926 54 767 q 596 1085 372 1085 q 980 926 821 1085 q 1139 542 1139 767 q 1017 199 1139 345 l 1124 92 q 1139 54 1139 75 q 1123 15 1139 31 q 1085 0 1107 0 q 1045 16 1062 0 l 940 122 m 862 199 l 748 314 q 732 352 732 330 q 748 391 732 375 q 786 406 764 406 q 825 391 809 406 l 940 276 q 1030 542 1030 390 q 903 849 1030 722 q 596 976 776 976 q 289 849 417 976 q 162 542 162 722 q 289 235 162 362 q 596 108 417 108 q 862 199 748 108 "},"ј":{"x_min":0,"x_max":393.375,"ha":445,"o":"m 393 922 q 373 874 393 894 q 325 854 353 854 q 277 874 297 854 q 257 922 257 894 q 277 970 257 950 q 325 990 297 990 q 373 970 353 990 q 393 922 393 950 m 271 0 l 271 705 q 287 743 271 727 q 325 759 303 759 q 363 743 347 759 q 379 705 379 727 l 379 0 q 284 -230 379 -134 q 54 -325 189 -325 q 15 -309 31 -325 q 0 -271 0 -293 q 15 -232 0 -248 q 54 -217 31 -217 q 207 -153 144 -217 q 271 0 271 -90 "},"ě":{"x_min":54.265625,"x_max":813.875,"ha":868,"o":"m 700 434 q 626 571 685 512 q 434 651 546 651 q 242 571 321 651 q 167 434 182 512 l 700 434 m 642 184 q 681 168 665 184 q 697 130 697 152 q 681 91 697 107 q 434 0 576 0 q 165 111 276 0 q 54 379 54 222 q 165 648 54 537 q 434 759 276 759 q 702 648 591 759 q 813 379 813 537 q 797 341 813 357 q 759 325 781 325 l 167 325 q 242 187 182 247 q 434 108 321 108 q 609 172 535 108 q 642 184 623 184 m 434 841 q 406 848 418 841 l 244 956 q 217 1003 217 976 q 232 1042 217 1026 q 271 1058 248 1058 q 305 1046 290 1058 l 434 961 l 562 1046 q 596 1058 577 1058 q 635 1042 619 1058 q 651 1003 651 1026 q 623 956 651 976 l 461 848 q 434 841 449 841 "},"œ":{"x_min":54.265625,"x_max":1464.96875,"ha":1519,"o":"m 434 651 q 242 571 321 651 q 162 379 162 492 q 242 187 162 267 q 434 108 321 108 q 626 187 546 108 q 705 379 705 267 q 626 571 705 492 q 434 651 546 651 m 1351 434 q 1277 571 1336 512 q 1085 651 1197 651 q 893 571 972 651 q 818 434 833 512 l 1351 434 m 759 182 q 702 111 735 144 q 434 0 591 0 q 165 111 276 0 q 54 379 54 222 q 165 648 54 537 q 434 759 276 759 q 702 648 591 759 q 759 577 735 615 q 816 648 783 615 q 1085 759 927 759 q 1353 648 1242 759 q 1464 379 1464 537 q 1449 341 1464 357 q 1410 325 1433 325 l 818 325 q 893 187 833 247 q 1085 108 972 108 q 1260 172 1186 108 q 1294 184 1275 184 q 1332 168 1316 184 q 1348 130 1348 152 q 1332 91 1348 107 q 1085 0 1227 0 q 816 111 927 0 q 759 182 783 144 "},"#":{"x_min":49.515625,"x_max":813.1875,"ha":868,"o":"m 263 54 q 241 15 259 31 q 200 0 222 0 q 164 15 177 0 q 155 54 151 31 l 203 325 l 94 325 q 59 341 72 325 q 49 369 49 353 q 50 379 49 374 q 72 418 54 402 q 113 434 91 434 l 222 434 l 260 651 l 151 651 q 116 667 129 651 q 107 705 103 682 q 130 743 111 727 q 171 759 149 759 l 280 759 l 327 1030 q 350 1069 331 1053 q 391 1085 368 1085 q 426 1069 413 1085 q 436 1030 440 1053 l 388 759 l 551 759 l 598 1030 q 621 1069 602 1053 q 662 1085 640 1085 q 698 1069 685 1085 q 707 1030 711 1053 l 659 759 l 768 759 q 803 744 790 759 q 813 715 813 731 q 812 705 813 710 q 790 667 809 682 q 748 651 771 651 l 640 651 l 602 434 l 710 434 q 746 418 733 434 q 755 379 759 402 q 732 341 751 357 q 691 325 714 325 l 583 325 l 535 54 q 512 15 531 31 q 471 0 493 0 q 435 15 448 0 q 426 54 422 31 l 474 325 l 311 325 l 263 54 m 368 651 l 330 434 l 493 434 l 531 651 l 368 651 "},"Џ":{"x_min":54.265625,"x_max":813.875,"ha":868,"o":"m 488 -162 q 472 -201 488 -185 q 434 -217 456 -217 q 395 -201 411 -217 q 379 -162 379 -185 l 379 0 l 108 0 q 70 15 86 0 q 54 54 54 31 l 54 1030 q 70 1069 54 1053 q 108 1085 86 1085 q 146 1069 130 1085 q 162 1030 162 1053 l 162 108 l 705 108 l 705 1030 q 721 1069 705 1053 q 759 1085 737 1085 q 797 1069 781 1085 q 813 1030 813 1053 l 813 54 q 797 15 813 31 q 759 0 781 0 l 488 0 l 488 -162 "},"Å":{"x_min":54.265625,"x_max":922.390625,"ha":977,"o":"m 293 379 l 158 33 q 147 15 154 23 q 108 0 130 0 q 70 15 86 0 q 54 54 54 31 q 59 77 54 67 l 436 1047 q 450 1069 440 1059 q 488 1085 465 1085 q 526 1069 510 1085 q 540 1047 536 1059 l 917 77 q 922 54 922 67 q 906 15 922 31 q 868 0 890 0 q 830 15 845 0 q 817 33 822 23 l 682 379 l 293 379 m 640 488 l 488 881 l 335 488 l 640 488 m 624 1274 q 584 1177 624 1217 q 488 1137 544 1137 q 391 1177 431 1137 q 351 1274 351 1217 q 391 1370 351 1330 q 488 1410 431 1410 q 584 1370 544 1410 q 624 1274 624 1330 m 488 1342 q 439 1322 459 1342 q 419 1274 419 1302 q 439 1225 419 1245 q 488 1205 459 1205 q 536 1225 516 1205 q 556 1274 556 1245 q 536 1322 556 1302 q 488 1342 516 1342 "},"Ә":{"x_min":54.265625,"x_max":1139.421875,"ha":1194,"o":"m 108 596 l 1028 596 q 904 849 1011 741 q 596 976 776 976 q 274 832 417 976 q 235 816 257 816 q 197 832 212 816 q 181 870 181 848 q 195 907 181 891 q 596 1085 372 1085 q 980 926 821 1085 q 1139 542 1139 767 q 980 159 1139 318 q 596 0 821 0 q 213 159 372 0 q 54 542 54 318 q 70 580 54 564 q 108 596 86 596 m 1028 488 l 165 488 q 290 236 182 343 q 596 108 417 108 q 904 236 776 108 q 1028 488 1011 343 "},"¸":{"x_min":54.265625,"x_max":379.8125,"ha":434,"o":"m 206 38 q 244 54 221 54 q 282 38 266 54 q 298 0 298 22 q 297 -12 298 -6 l 285 -53 q 332 -81 310 -63 q 379 -183 379 -122 q 331 -284 379 -243 q 217 -325 284 -325 q 139 -305 177 -325 l 78 -269 q 54 -223 54 -249 q 70 -185 54 -201 q 108 -169 86 -169 q 137 -177 124 -169 l 190 -210 q 217 -217 203 -217 q 255 -207 239 -217 q 271 -183 271 -198 q 255 -158 271 -167 q 217 -149 239 -149 q 178 -133 194 -149 q 162 -94 162 -117 q 165 -77 162 -85 l 191 15 q 206 38 196 28 "},"=":{"x_min":54.265625,"x_max":651.09375,"ha":705,"o":"m 108 596 q 70 612 86 596 q 54 651 54 628 q 70 689 54 673 q 108 705 86 705 l 596 705 q 635 689 619 705 q 651 651 651 673 q 635 612 651 628 q 596 596 619 596 l 108 596 m 596 379 q 635 363 619 379 q 651 325 651 347 q 635 287 651 303 q 596 270 619 271 l 108 270 q 70 287 86 271 q 54 325 54 303 q 70 363 54 347 q 108 379 86 379 l 596 379 "},"ρ":{"x_min":54.265625,"x_max":813.875,"ha":868,"o":"m 162 379 q 242 187 162 267 q 434 108 321 108 q 626 187 546 108 q 705 379 705 267 q 626 571 705 492 q 434 651 546 651 q 242 571 321 651 q 162 379 162 492 m 162 -271 q 146 -309 162 -293 q 108 -325 130 -325 q 70 -309 86 -325 q 54 -271 54 -293 l 54 379 q 165 648 54 537 q 434 759 276 759 q 702 648 591 759 q 813 379 813 537 q 702 111 813 222 q 434 0 591 0 q 165 111 276 0 q 162 113 164 112 l 162 -271 "},"Ћ":{"x_min":54.265625,"x_max":1058.03125,"ha":1112,"o":"m 949 325 q 886 479 949 415 q 732 542 822 542 q 579 479 642 542 q 515 326 515 415 l 515 54 q 499 15 515 31 q 461 0 483 0 q 422 15 438 0 q 406 54 406 31 l 406 976 l 108 976 q 70 992 86 976 q 54 1030 54 1008 q 70 1069 54 1053 q 108 1085 86 1085 l 813 1085 q 852 1069 836 1085 q 868 1030 868 1053 q 852 992 868 1008 q 813 976 836 976 l 515 976 l 515 568 q 732 651 607 651 q 962 555 867 651 q 1058 325 1058 460 l 1058 54 q 1042 15 1058 31 q 1003 0 1026 0 q 965 15 981 0 q 949 54 949 31 l 949 325 "},"ú":{"x_min":54.265625,"x_max":759.609375,"ha":814,"o":"m 759 54 q 743 15 759 31 q 705 0 727 0 q 667 15 682 0 q 651 54 651 31 l 651 98 q 406 0 549 0 q 157 103 261 0 q 54 352 54 206 l 54 705 q 70 743 54 727 q 108 759 86 759 q 146 743 130 759 q 162 705 162 727 l 162 352 q 234 180 162 251 q 406 108 305 108 q 579 180 507 108 q 651 352 651 251 l 651 705 q 667 743 651 727 q 705 759 682 759 q 743 743 727 759 q 759 705 759 727 l 759 54 m 527 992 l 362 828 q 325 813 347 813 q 287 829 303 813 q 271 868 271 845 q 284 904 271 889 l 449 1069 q 488 1085 465 1085 q 526 1069 510 1085 q 542 1030 542 1053 q 527 992 542 1009 "},"˚":{"x_min":54.265625,"x_max":327.578125,"ha":380,"o":"m 327 948 q 287 851 327 891 q 191 811 247 811 q 94 851 134 811 q 54 948 54 891 q 94 1045 54 1005 q 191 1085 134 1085 q 287 1045 247 1085 q 327 948 327 1005 m 191 1016 q 142 996 162 1016 q 122 948 122 976 q 142 900 122 920 q 191 880 162 880 q 239 900 219 880 q 259 948 259 920 q 239 996 259 976 q 191 1016 219 1016 "},"д":{"x_min":54.265625,"x_max":813.875,"ha":868,"o":"m 434 651 q 242 571 321 651 q 162 379 162 492 q 242 187 162 267 q 434 108 321 108 q 626 187 546 108 q 705 379 705 267 q 626 571 705 492 q 434 651 546 651 m 705 113 q 702 111 704 112 q 434 0 591 0 q 165 111 276 0 q 54 379 54 222 q 165 648 54 537 q 434 759 276 759 q 702 648 591 759 q 813 379 813 537 l 813 0 q 728 -206 813 -118 q 440 -325 609 -325 q 152 -206 271 -325 q 80 -111 108 -162 q 72 -83 72 -99 q 88 -45 72 -61 q 126 -29 104 -29 q 165 -44 149 -29 q 177 -61 172 -52 q 229 -129 197 -97 q 440 -217 316 -217 q 651 -129 563 -217 q 705 0 705 -64 l 705 113 "},"¯":{"x_min":54.265625,"x_max":705.359375,"ha":760,"o":"m 108 1193 q 70 1209 86 1193 q 54 1247 54 1225 q 70 1286 54 1270 q 108 1302 86 1302 l 651 1302 q 689 1286 673 1302 q 705 1247 705 1270 q 689 1209 705 1225 q 651 1193 673 1193 l 108 1193 "},"u":{"x_min":54.265625,"x_max":759.609375,"ha":814,"o":"m 759 54 q 743 15 759 31 q 705 0 727 0 q 667 15 682 0 q 651 54 651 31 l 651 98 q 406 0 549 0 q 157 103 261 0 q 54 352 54 206 l 54 705 q 70 743 54 727 q 108 759 86 759 q 146 743 130 759 q 162 705 162 727 l 162 352 q 234 180 162 251 q 406 108 305 108 q 579 180 507 108 q 651 352 651 251 l 651 705 q 667 743 651 727 q 705 759 682 759 q 743 743 727 759 q 759 705 759 727 l 759 54 "},"З":{"x_min":54.265625,"x_max":678.21875,"ha":732,"o":"m 366 515 q 327 531 343 515 q 311 569 311 547 q 327 608 311 592 q 366 623 343 623 q 491 675 439 623 q 542 800 542 727 q 491 925 542 873 q 366 976 439 976 q 241 925 293 976 q 189 800 189 873 q 173 761 189 777 q 135 746 158 746 q 97 761 113 746 q 81 800 81 777 q 164 1001 81 918 q 366 1085 248 1085 q 567 1001 484 1085 q 651 800 651 918 q 567 598 651 682 q 538 573 553 584 q 587 533 563 556 q 678 311 678 441 q 587 91 678 182 q 366 0 495 0 q 145 91 236 0 q 54 311 54 182 q 70 350 54 334 q 108 366 86 366 q 146 350 130 366 q 162 311 162 334 q 222 168 162 227 q 366 108 282 108 q 510 168 450 108 q 569 311 569 227 q 510 455 569 396 q 366 515 450 515 "},"Α":{"x_min":54.265625,"x_max":922.390625,"ha":977,"o":"m 293 379 l 158 33 q 147 15 154 23 q 108 0 130 0 q 70 15 86 0 q 54 54 54 31 q 59 77 54 67 l 436 1047 q 450 1069 440 1059 q 488 1085 465 1085 q 526 1069 510 1085 q 540 1047 536 1059 l 917 77 q 922 54 922 67 q 906 15 922 31 q 868 0 890 0 q 830 15 845 0 q 817 33 822 23 l 682 379 l 293 379 m 640 488 l 488 881 l 335 488 l 640 488 "},"⅝":{"x_min":54.265625,"x_max":1204.53125,"ha":1248,"o":"m 976 1085 q 1014 1069 999 1085 q 1030 1030 1030 1053 q 1022 1001 1030 1014 l 373 27 q 325 0 354 0 q 287 15 303 0 q 271 54 271 31 q 279 83 271 70 l 933 1064 q 976 1085 947 1085 m 1009 585 q 940 557 969 585 q 911 488 911 529 q 940 419 911 448 q 1009 390 969 390 q 1078 419 1049 390 q 1106 488 1106 448 q 1078 557 1106 529 q 1009 585 1049 585 m 1009 325 q 916 287 954 325 q 878 195 878 249 q 916 103 878 141 q 1009 65 954 65 q 1101 103 1063 65 q 1139 195 1139 141 q 1101 287 1139 249 q 1009 325 1063 325 m 906 362 q 893 373 900 367 q 846 488 846 421 q 893 603 846 556 q 1009 651 941 651 q 1124 603 1077 651 q 1171 488 1171 556 q 1124 373 1171 421 q 1112 362 1118 367 q 1147 333 1130 349 q 1204 195 1204 276 q 1147 57 1204 114 q 1009 0 1089 0 q 871 57 928 0 q 813 195 813 114 q 871 333 813 276 q 906 362 887 349 m 411 1083 q 434 1073 424 1083 q 443 1050 443 1064 q 434 1027 443 1037 q 411 1018 424 1018 l 151 1018 l 151 855 l 265 855 q 414 794 352 855 q 476 644 476 732 q 414 495 476 557 q 265 434 352 434 q 115 495 177 434 q 54 644 54 557 q 63 668 54 658 q 86 677 73 677 q 109 668 100 677 q 119 644 119 658 q 162 541 119 584 q 265 499 204 499 q 368 541 325 499 q 411 644 411 584 q 368 748 411 705 q 265 790 325 790 l 119 790 q 96 800 105 790 q 86 823 86 809 l 86 1050 q 96 1073 86 1064 q 119 1083 105 1083 l 411 1083 "},"é":{"x_min":54.265625,"x_max":813.875,"ha":868,"o":"m 700 434 q 626 571 685 512 q 434 651 546 651 q 242 571 321 651 q 167 434 182 512 l 700 434 m 642 184 q 681 168 665 184 q 697 130 697 152 q 681 91 697 107 q 434 0 576 0 q 165 111 276 0 q 54 379 54 222 q 165 648 54 537 q 434 759 276 759 q 702 648 591 759 q 813 379 813 537 q 797 341 813 357 q 759 325 781 325 l 167 325 q 242 187 182 247 q 434 108 321 108 q 609 172 535 108 q 642 184 623 184 m 581 992 l 417 828 q 379 813 401 813 q 341 829 357 813 q 325 868 325 845 q 339 904 325 889 l 503 1069 q 542 1085 520 1085 q 580 1069 564 1085 q 596 1030 596 1053 q 581 992 596 1009 "},"Ş":{"x_min":54.265625,"x_max":664.65625,"ha":719,"o":"m 65 148 q 54 181 54 162 q 70 219 54 203 q 108 235 86 235 q 154 210 137 235 q 173 185 162 197 q 321 109 231 116 q 479 160 411 102 q 555 307 548 218 q 504 466 562 398 q 356 541 446 534 q 172 636 244 551 q 108 834 99 722 q 203 1019 118 946 q 379 1085 280 1085 q 585 988 497 1085 q 612 951 600 970 q 620 922 620 938 q 604 884 620 900 q 566 868 588 868 q 528 884 540 868 q 503 917 516 900 q 392 974 459 969 q 274 936 325 980 q 217 826 222 892 q 255 707 211 758 q 365 650 299 655 q 588 536 500 638 q 664 330 664 445 q 663 299 664 314 q 550 78 652 164 q 341 0 458 0 q 90 115 196 0 q 65 148 76 130 m 307 38 q 345 54 323 54 q 384 38 368 54 q 400 0 400 22 q 398 -12 400 -6 l 387 -53 q 434 -81 412 -63 q 481 -183 481 -122 q 433 -284 481 -243 q 318 -325 385 -325 q 241 -305 278 -325 l 179 -269 q 156 -223 156 -249 q 171 -185 156 -201 q 210 -169 187 -169 q 239 -177 226 -169 l 292 -210 q 318 -217 305 -217 q 357 -207 341 -217 q 373 -183 373 -198 q 357 -158 373 -167 q 318 -149 341 -149 q 280 -133 296 -149 q 264 -94 264 -117 q 267 -77 264 -85 l 293 15 q 307 38 297 28 "},"↓":{"x_min":54.265625,"x_max":596.84375,"ha":651,"o":"m 379 -31 l 503 92 q 542 108 520 108 q 580 92 564 108 q 596 54 596 76 q 581 16 596 32 l 362 -202 q 325 -217 347 -217 q 288 -202 303 -217 l 69 16 q 54 54 54 32 q 70 92 54 76 q 108 108 86 108 q 147 92 130 108 l 271 -31 l 271 922 q 287 960 271 944 q 325 976 303 976 q 363 960 347 976 q 379 922 379 944 l 379 -31 "},"B":{"x_min":54.265625,"x_max":705.359375,"ha":760,"o":"m 162 976 l 162 651 l 325 651 q 440 698 392 651 q 488 813 488 746 q 440 928 488 881 q 325 976 392 976 l 162 976 m 162 542 l 162 108 l 379 108 q 533 171 470 108 q 596 325 596 235 q 533 479 596 415 q 379 542 470 542 l 162 542 m 108 1085 l 325 1085 q 517 1005 438 1085 q 596 813 596 926 q 517 621 596 701 q 610 556 567 598 q 705 325 705 460 q 610 95 705 190 q 379 0 514 0 l 108 0 q 70 15 86 0 q 54 54 54 31 l 54 1030 q 70 1069 54 1053 q 108 1085 86 1085 "},"…":{"x_min":54.265625,"x_max":868.125,"ha":977,"o":"m 217 81 q 193 23 217 47 q 135 0 169 0 q 78 23 101 0 q 54 81 54 47 q 78 139 54 115 q 135 162 101 162 q 193 139 169 162 q 217 81 217 115 m 868 81 q 844 23 868 47 q 786 0 820 0 q 729 23 752 0 q 705 81 705 47 q 729 139 705 115 q 786 162 752 162 q 844 139 820 162 q 868 81 868 115 m 542 81 q 518 23 542 47 q 461 0 495 0 q 403 23 427 0 q 379 81 379 47 q 403 139 379 115 q 461 162 427 162 q 518 139 495 162 q 542 81 542 115 "},"H":{"x_min":54.265625,"x_max":813.875,"ha":868,"o":"m 54 1030 q 70 1069 54 1053 q 108 1085 86 1085 q 146 1069 130 1085 q 162 1030 162 1053 l 162 596 l 705 596 l 705 1030 q 721 1069 705 1053 q 759 1085 737 1085 q 797 1069 781 1085 q 813 1030 813 1053 l 813 54 q 797 15 813 31 q 759 0 781 0 q 721 15 737 0 q 705 54 705 31 l 705 488 l 162 488 l 162 54 q 146 15 162 31 q 108 0 130 0 q 70 15 86 0 q 54 54 54 31 l 54 1030 "},"î":{"x_min":-26.4375,"x_max":407.625,"ha":380,"o":"m 136 705 q 152 743 136 727 q 190 759 168 759 q 228 743 212 759 q 244 705 244 727 l 244 54 q 228 15 244 31 q 190 0 212 0 q 152 15 168 0 q 136 54 136 31 l 136 705 m 218 1050 l 380 942 q 407 895 407 922 q 391 856 407 872 q 353 841 375 841 q 319 852 333 841 l 190 937 l 61 852 q 27 841 47 841 q -10 856 5 841 q -26 895 -26 872 q 0 942 -26 922 l 162 1050 q 190 1058 174 1058 q 218 1050 206 1058 "},"ν":{"x_min":54.265625,"x_max":759.609375,"ha":814,"o":"m 445 14 q 406 0 430 0 q 368 15 383 0 q 359 28 363 19 l 58 684 q 54 705 54 693 q 70 743 54 727 q 108 759 86 759 q 147 744 130 759 q 157 729 152 738 l 406 184 l 656 729 q 667 744 661 738 q 705 759 682 759 q 743 743 727 759 q 759 705 759 727 q 755 684 759 693 l 454 28 q 445 14 450 19 "},"Ό":{"x_min":-27.125,"x_max":1166.546875,"ha":1221,"o":"m 229 992 l 64 828 q 27 813 48 813 q -11 829 4 813 q -27 868 -27 845 q -13 904 -27 889 l 151 1069 q 189 1085 167 1085 q 228 1069 212 1085 q 244 1030 244 1053 q 229 992 244 1009 m 623 976 q 317 849 444 976 q 189 542 189 722 q 317 235 189 362 q 623 108 444 108 q 930 235 803 108 q 1058 542 1058 362 q 930 849 1058 722 q 623 976 803 976 m 1166 542 q 1007 159 1166 318 q 623 0 848 0 q 240 159 399 0 q 81 542 81 318 q 240 926 81 767 q 623 1085 399 1085 q 1007 926 848 1085 q 1166 542 1166 767 "},"−":{"x_min":54.265625,"x_max":705.359375,"ha":760,"o":"m 108 434 q 70 450 86 434 q 54 488 54 465 q 70 526 54 510 q 108 542 86 542 l 651 542 q 689 526 673 542 q 705 488 705 510 q 689 450 705 465 q 651 434 673 434 l 108 434 "},"⅜":{"x_min":54.265625,"x_max":1150.265625,"ha":1194,"o":"m 922 1085 q 960 1069 944 1085 q 976 1030 976 1053 q 968 1001 976 1014 l 318 27 q 271 0 300 0 q 232 15 248 0 q 217 54 217 31 q 225 83 217 70 l 878 1064 q 922 1085 893 1085 m 954 585 q 886 557 914 585 q 857 488 857 529 q 886 419 857 448 q 954 390 914 390 q 1023 419 994 390 q 1052 488 1052 448 q 1023 557 1052 529 q 954 585 994 585 m 954 325 q 862 287 900 325 q 824 195 824 249 q 862 103 824 141 q 954 65 900 65 q 1047 103 1009 65 q 1085 195 1085 141 q 1047 287 1085 249 q 954 325 1009 325 m 851 362 q 839 373 845 367 q 792 488 792 421 q 839 603 792 556 q 954 651 887 651 q 1070 603 1022 651 q 1117 488 1117 556 q 1070 373 1117 421 q 1058 362 1064 367 q 1093 333 1076 349 q 1150 195 1150 276 q 1092 57 1150 114 q 954 0 1035 0 q 816 57 874 0 q 759 195 759 114 q 817 333 759 276 q 851 362 833 349 m 248 758 q 225 768 235 758 q 216 791 216 777 q 225 813 216 804 q 248 823 235 823 q 317 852 288 823 q 346 921 346 881 q 317 989 346 961 q 248 1018 288 1018 q 180 989 208 1018 q 151 921 151 961 q 142 897 151 907 q 119 888 132 888 q 96 897 105 888 q 86 921 86 907 q 134 1035 86 988 q 248 1083 181 1083 q 363 1035 316 1083 q 411 921 411 988 q 363 806 411 853 q 351 794 357 800 q 386 767 370 783 q 443 628 443 709 q 386 491 443 548 q 248 434 329 434 q 111 491 168 434 q 54 628 54 548 q 63 651 54 642 q 86 661 73 661 q 109 651 100 661 q 119 628 119 642 q 157 537 119 575 q 248 499 194 499 q 340 537 303 499 q 378 628 378 575 q 340 720 378 682 q 248 758 303 758 "},"ā":{"x_min":54.265625,"x_max":813.875,"ha":868,"o":"m 434 651 q 242 571 321 651 q 162 379 162 492 q 242 187 162 267 q 434 108 321 108 q 626 187 546 108 q 705 379 705 267 q 626 571 705 492 q 434 651 546 651 m 705 113 q 434 0 591 0 q 165 111 276 0 q 54 379 54 222 q 165 648 54 537 q 434 759 276 759 q 702 648 591 759 q 813 379 813 537 l 813 54 q 797 15 813 31 q 759 0 781 0 q 721 15 737 0 q 705 54 705 31 l 705 113 m 271 868 q 232 884 248 868 q 217 922 217 900 q 232 960 217 944 q 271 976 248 976 l 596 976 q 635 960 619 976 q 651 922 651 944 q 635 884 651 900 q 596 868 619 868 l 271 868 "},"ĵ":{"x_min":0,"x_max":543.25,"ha":515,"o":"m 271 0 l 271 705 q 287 743 271 727 q 325 759 303 759 q 363 743 347 759 q 379 705 379 727 l 379 0 q 284 -230 379 -134 q 54 -325 189 -325 q 15 -309 31 -325 q 0 -271 0 -293 q 15 -232 0 -248 q 54 -217 31 -217 q 207 -153 144 -217 q 271 0 271 -90 m 354 1043 l 516 935 q 527 927 521 932 q 543 888 543 910 q 527 850 543 866 q 489 834 511 834 q 455 845 469 834 l 326 931 l 197 845 q 163 834 183 834 q 125 850 141 834 q 109 888 109 866 q 125 927 109 910 q 136 935 130 932 l 298 1043 q 326 1051 310 1051 q 354 1043 341 1051 "},"Ĩ":{"x_min":-56.96875,"x_max":492.390625,"ha":434,"o":"m 162 1030 q 178 1069 162 1053 q 217 1085 194 1085 q 255 1069 239 1085 q 271 1030 271 1053 l 271 54 q 255 15 271 31 q 217 0 239 0 q 178 15 194 0 q 162 54 162 31 l 162 1030 m 255 1221 q 111 1167 194 1167 q -42 1230 21 1167 q -56 1268 -56 1247 q -41 1307 -56 1291 q -2 1323 -25 1323 q 35 1308 18 1323 q 111 1275 67 1275 q 179 1299 149 1275 q 323 1353 240 1353 q 477 1289 413 1353 q 492 1252 492 1273 q 476 1213 492 1229 q 438 1197 460 1197 q 400 1212 416 1197 q 323 1245 368 1245 q 255 1221 284 1245 "},"←":{"x_min":54.265625,"x_max":1247.9375,"ha":1304,"o":"m 1193 434 q 1231 418 1216 434 q 1247 379 1247 402 q 1231 341 1247 357 q 1193 325 1216 325 l 239 325 l 364 201 q 379 162 379 185 q 363 124 379 140 q 325 108 347 108 q 288 124 303 108 l 69 343 q 54 379 54 358 q 69 416 54 401 l 288 635 q 325 651 303 651 q 363 635 347 651 q 379 596 379 619 q 364 558 379 574 l 239 434 l 1193 434 "},"*":{"x_min":57.65625,"x_max":473.40625,"ha":529,"o":"m 244 862 l 112 867 q 94 870 103 868 q 63 898 73 878 q 57 922 57 910 q 61 940 57 931 q 88 971 68 961 q 130 973 109 980 q 146 964 139 969 l 252 885 l 213 1012 q 210 1030 210 1021 q 226 1069 210 1053 q 265 1085 242 1085 q 303 1069 287 1085 q 319 1030 319 1053 q 316 1012 319 1021 l 277 884 l 384 964 q 400 973 392 969 q 442 971 421 980 q 470 940 462 961 q 473 921 473 930 q 467 898 473 910 q 437 870 458 878 q 419 867 427 868 l 286 862 l 395 786 q 408 773 402 781 q 419 733 422 755 q 399 697 417 710 q 359 686 384 685 q 323 706 337 689 q 314 722 317 714 l 265 845 l 216 722 q 207 706 213 714 q 164 685 193 685 q 131 697 146 685 q 111 733 113 710 q 122 773 108 755 q 135 786 128 781 l 244 862 "},"ă":{"x_min":54.265625,"x_max":813.875,"ha":868,"o":"m 434 651 q 242 571 321 651 q 162 379 162 492 q 242 187 162 267 q 434 108 321 108 q 626 187 546 108 q 705 379 705 267 q 626 571 705 492 q 434 651 546 651 m 705 113 q 434 0 591 0 q 165 111 276 0 q 54 379 54 222 q 165 648 54 537 q 434 759 276 759 q 702 648 591 759 q 813 379 813 537 l 813 54 q 797 15 813 31 q 759 0 781 0 q 721 15 737 0 q 705 54 705 31 l 705 113 m 221 1003 q 237 1042 221 1026 q 275 1058 252 1058 q 313 1042 297 1058 q 329 1003 329 1026 q 361 965 329 981 q 438 949 393 949 q 515 965 482 949 q 547 1003 547 981 q 563 1042 547 1026 q 601 1058 579 1058 q 639 1042 623 1058 q 655 1003 655 1026 q 592 889 652 932 q 438 841 528 841 q 284 888 347 841 q 221 1003 221 936 "},"Χ":{"x_min":54.265625,"x_max":922.390625,"ha":977,"o":"m 488 631 l 823 1062 q 868 1085 842 1085 q 906 1069 890 1085 q 922 1030 922 1053 q 912 999 922 1013 l 557 542 l 910 88 q 922 54 922 73 q 906 15 922 31 q 868 0 890 0 q 826 18 842 0 l 488 453 l 149 18 q 108 0 134 0 q 70 15 86 0 q 54 54 54 31 q 65 88 54 73 l 419 542 l 63 999 q 54 1030 54 1013 q 70 1069 54 1053 q 108 1085 86 1085 q 153 1062 134 1085 l 488 631 "},"†":{"x_min":54.265625,"x_max":705.359375,"ha":760,"o":"m 108 651 q 70 667 86 651 q 54 705 54 682 q 70 743 54 727 q 108 759 86 759 l 325 759 l 325 1030 q 341 1069 325 1053 q 379 1085 357 1085 q 418 1069 402 1085 q 434 1030 434 1053 l 434 759 l 651 759 q 689 743 673 759 q 705 705 705 727 q 689 667 705 682 q 651 651 673 651 l 434 651 l 434 -271 q 418 -308 434 -293 q 379 -324 402 -324 q 341 -308 357 -324 q 325 -271 325 -293 l 325 651 l 108 651 "},"°":{"x_min":54.265625,"x_max":596.84375,"ha":651,"o":"m 596 813 q 517 621 596 701 q 325 542 438 542 q 133 621 212 542 q 54 813 54 701 q 133 1005 54 926 q 325 1085 212 1085 q 517 1005 438 1085 q 596 813 596 926 m 325 976 q 210 928 258 976 q 162 813 162 881 q 210 698 162 746 q 325 651 258 651 q 440 698 392 651 q 488 813 488 746 q 440 928 488 881 q 325 976 392 976 "},"↨":{"x_min":54.265625,"x_max":596.84375,"ha":651,"o":"m 271 791 l 147 666 q 108 651 130 651 q 70 667 86 651 q 54 705 54 682 q 69 742 54 727 l 288 961 q 325 976 303 976 q 362 961 347 976 l 581 742 q 596 705 596 727 q 580 667 596 682 q 542 651 564 651 q 503 666 520 651 l 379 791 l 379 130 l 503 255 q 542 271 520 271 q 580 255 564 271 q 596 217 596 239 q 581 179 596 195 l 362 -39 q 325 -54 347 -54 q 288 -39 303 -54 l 69 179 q 54 217 54 195 q 70 255 54 239 q 108 271 86 271 q 147 255 130 271 l 271 130 l 271 791 m 108 -217 q 70 -201 86 -217 q 54 -162 54 -185 q 70 -124 54 -140 q 108 -108 86 -108 l 542 -108 q 580 -124 564 -108 q 596 -162 596 -140 q 580 -201 596 -185 q 542 -217 564 -217 l 108 -217 "},"Ξ":{"x_min":54.265625,"x_max":813.875,"ha":868,"o":"m 759 1085 q 797 1069 781 1085 q 813 1030 813 1053 q 797 992 813 1008 q 759 976 781 976 l 108 976 q 70 992 86 976 q 54 1030 54 1008 q 70 1069 54 1053 q 108 1085 86 1085 l 759 1085 m 759 108 q 797 92 781 108 q 813 54 813 76 q 797 15 813 31 q 759 0 781 0 l 108 0 q 70 15 86 0 q 54 54 54 31 q 70 92 54 76 q 108 108 86 108 l 759 108 m 705 596 q 743 580 727 596 q 759 542 759 564 q 743 504 759 520 q 705 488 727 488 l 162 488 q 126 504 141 489 q 109 542 109 520 q 126 581 109 564 q 162 596 141 596 l 705 596 "},"Ķ":{"x_min":54.265625,"x_max":759.609375,"ha":814,"o":"m 54 1030 q 70 1069 54 1053 q 108 1085 86 1085 q 146 1069 130 1085 q 162 1030 162 1053 l 162 565 l 665 1068 q 705 1085 682 1085 q 743 1069 727 1085 q 759 1030 759 1053 q 744 992 759 1008 l 362 611 l 749 86 q 759 56 759 72 q 737 10 759 27 q 706 0 722 0 q 660 23 676 0 l 284 533 l 162 411 l 162 54 q 146 15 162 31 q 108 0 130 0 q 70 15 86 0 q 54 54 54 31 l 54 1030 m 497 -57 q 543 -155 543 -95 q 496 -257 543 -216 q 381 -298 448 -298 q 303 -278 341 -298 l 242 -242 q 218 -196 218 -222 q 234 -158 218 -174 q 272 -142 250 -142 q 301 -150 288 -142 l 354 -183 q 381 -189 367 -189 q 419 -180 403 -189 q 435 -155 435 -171 q 419 -131 435 -140 q 381 -122 403 -122 q 342 -106 358 -122 q 326 -67 326 -90 q 339 -41 326 -54 q 404 -24 359 -24 q 497 -57 455 -27 "},"ŵ":{"x_min":54.265625,"x_max":1030.90625,"ha":1085,"o":"m 504 744 q 542 759 520 759 q 581 744 564 759 q 595 718 591 733 l 759 225 l 927 728 q 938 744 931 736 q 976 759 954 759 q 1014 743 999 759 q 1030 705 1030 727 q 1026 684 1030 694 l 810 34 q 798 14 806 24 q 759 0 781 0 q 721 14 737 0 q 708 34 712 24 l 542 533 l 376 34 q 364 14 372 24 q 325 0 347 0 q 287 14 303 0 q 274 34 278 24 l 58 684 q 54 705 54 694 q 70 743 54 727 q 108 759 86 759 q 147 744 130 759 q 158 728 153 736 l 325 225 l 489 718 q 504 744 494 733 m 570 1050 l 732 942 q 759 895 759 922 q 743 856 759 872 q 705 841 727 841 q 671 852 685 841 l 542 937 l 413 852 q 379 841 399 841 q 341 856 357 841 q 325 895 325 872 q 352 942 325 922 l 514 1050 q 542 1058 526 1058 q 570 1050 558 1058 "},"΄":{"x_min":54.265625,"x_max":325.546875,"ha":380,"o":"m 310 992 l 145 828 q 108 813 130 813 q 70 829 86 813 q 54 868 54 845 q 67 904 54 889 l 232 1069 q 271 1085 248 1085 q 309 1069 293 1085 q 325 1030 325 1053 q 310 992 325 1009 "},"ǽ":{"x_min":54.265625,"x_max":1464.96875,"ha":1519,"o":"m 434 651 q 242 571 321 651 q 162 379 162 492 q 242 187 162 267 q 434 108 321 108 q 626 187 546 108 q 705 379 705 267 q 626 571 705 492 q 434 651 546 651 m 1351 434 q 1277 571 1336 512 q 1085 651 1197 651 q 893 571 972 651 q 818 434 833 512 l 1351 434 m 813 113 l 813 54 q 797 15 813 31 q 759 0 781 0 q 721 15 737 0 q 705 54 705 31 l 705 113 q 434 0 591 0 q 165 111 276 0 q 54 379 54 222 q 165 648 54 537 q 434 759 276 759 q 702 648 591 759 q 759 577 735 615 q 816 648 783 615 q 1085 759 927 759 q 1353 648 1242 759 q 1464 379 1464 537 q 1449 341 1464 357 q 1410 325 1433 325 l 818 325 q 893 187 833 247 q 1085 108 972 108 q 1260 172 1186 108 q 1294 184 1275 184 q 1332 168 1316 184 q 1348 130 1348 152 q 1332 91 1348 107 q 1085 0 1227 0 q 813 113 927 0 m 925 992 l 760 828 q 723 813 745 813 q 685 829 701 813 q 669 868 669 845 q 682 904 669 889 l 847 1069 q 886 1085 864 1085 q 924 1069 908 1085 q 940 1030 940 1053 q 925 992 940 1009 "},"Β":{"x_min":54.265625,"x_max":705.359375,"ha":760,"o":"m 162 976 l 162 651 l 325 651 q 440 698 392 651 q 488 813 488 746 q 440 928 488 881 q 325 976 392 976 l 162 976 m 162 542 l 162 108 l 379 108 q 533 171 470 108 q 596 325 596 235 q 533 479 596 415 q 379 542 470 542 l 162 542 m 108 1085 l 325 1085 q 517 1005 438 1085 q 596 813 596 926 q 517 621 596 701 q 610 556 567 598 q 705 325 705 460 q 610 95 705 190 q 379 0 514 0 l 108 0 q 70 15 86 0 q 54 54 54 31 l 54 1030 q 70 1069 54 1053 q 108 1085 86 1085 "},"Ļ":{"x_min":54.265625,"x_max":759.609375,"ha":814,"o":"m 54 1030 q 70 1069 54 1053 q 108 1085 86 1085 q 146 1069 130 1085 q 162 1030 162 1053 l 162 108 l 705 108 q 743 92 727 108 q 759 54 759 76 q 743 15 759 31 q 705 0 727 0 l 108 0 q 70 15 86 0 q 54 54 54 31 l 54 1030 m 523 -57 q 570 -155 570 -95 q 522 -257 570 -216 q 407 -298 474 -298 q 330 -278 367 -298 l 268 -242 q 244 -196 244 -222 q 260 -158 244 -174 q 299 -142 276 -142 q 328 -150 315 -142 l 381 -183 q 407 -189 394 -189 q 445 -180 430 -189 q 461 -155 461 -171 q 445 -131 461 -140 q 407 -122 430 -122 q 369 -106 385 -122 q 353 -67 353 -90 q 366 -41 353 -54 q 431 -24 385 -24 q 523 -57 481 -27 "},"Õ":{"x_min":54.265625,"x_max":1139.421875,"ha":1194,"o":"m 596 976 q 289 849 417 976 q 162 542 162 722 q 289 235 162 362 q 596 108 417 108 q 903 235 776 108 q 1030 542 1030 362 q 903 849 1030 722 q 596 976 776 976 m 1139 542 q 980 159 1139 318 q 596 0 821 0 q 213 159 372 0 q 54 542 54 318 q 213 926 54 767 q 596 1085 372 1085 q 980 926 821 1085 q 1139 542 1139 767 m 630 1221 q 486 1167 569 1167 q 332 1230 396 1167 q 317 1268 317 1247 q 333 1307 317 1291 q 371 1323 349 1323 q 409 1308 393 1323 q 486 1275 441 1275 q 554 1299 524 1275 q 697 1353 614 1353 q 851 1289 788 1353 q 866 1252 866 1273 q 850 1213 866 1229 q 812 1197 834 1197 q 774 1212 790 1197 q 697 1245 742 1245 q 630 1221 659 1245 "},"№":{"x_min":54.265625,"x_max":1573.484375,"ha":1628,"o":"m 162 54 q 146 15 162 31 q 108 0 130 0 q 70 15 86 0 q 54 54 54 31 l 54 1030 q 70 1069 54 1053 q 108 1085 86 1085 q 150 1065 132 1085 l 813 212 l 813 1030 q 829 1069 813 1053 q 868 1085 845 1085 q 906 1069 890 1085 q 922 1030 922 1053 l 922 54 q 906 15 922 31 q 868 0 890 0 q 827 17 844 0 l 162 872 l 162 54 m 1573 813 q 1494 621 1573 701 q 1302 542 1414 542 q 1110 621 1189 542 q 1030 813 1030 701 q 1110 1005 1030 926 q 1302 1085 1189 1085 q 1494 1005 1414 1085 q 1573 813 1573 926 m 1302 976 q 1187 928 1235 976 q 1139 813 1139 881 q 1187 698 1139 746 q 1302 651 1235 651 q 1417 698 1369 651 q 1464 813 1464 746 q 1417 928 1464 881 q 1302 976 1369 976 m 1085 379 q 1046 395 1062 379 q 1030 434 1030 411 q 1046 472 1030 456 q 1085 488 1062 488 l 1519 488 q 1557 472 1541 488 q 1573 434 1573 456 q 1557 395 1573 411 q 1519 379 1541 379 l 1085 379 "},"χ":{"x_min":54.265625,"x_max":705.359375,"ha":760,"o":"m 317 217 l 60 679 q 54 705 54 691 q 70 743 54 727 q 108 759 86 759 q 154 734 140 759 l 379 329 l 604 734 q 651 759 619 759 q 689 743 673 759 q 705 705 705 727 q 699 679 705 691 l 442 217 l 699 -245 q 705 -271 705 -257 q 689 -309 705 -293 q 651 -325 673 -325 q 605 -301 619 -325 l 379 104 l 153 -301 q 108 -325 139 -325 q 70 -309 86 -325 q 54 -271 54 -293 q 60 -245 54 -257 l 317 217 "},"ί":{"x_min":54.265625,"x_max":325.546875,"ha":326,"o":"m 108 705 q 124 743 108 727 q 162 759 140 759 q 201 743 185 759 q 217 705 217 727 l 217 54 q 201 15 217 31 q 162 0 185 0 q 124 15 140 0 q 108 54 108 31 l 108 705 m 310 992 l 145 828 q 108 813 130 813 q 70 829 86 813 q 54 868 54 845 q 67 904 54 889 l 232 1069 q 271 1085 248 1085 q 309 1069 293 1085 q 325 1030 325 1053 q 310 992 325 1009 "},"Ζ":{"x_min":54.265625,"x_max":922.390625,"ha":977,"o":"m 108 976 q 70 992 86 976 q 54 1030 54 1008 q 70 1069 54 1053 q 108 1085 86 1085 l 868 1085 q 906 1069 890 1085 q 922 1030 922 1053 q 912 999 922 1013 l 219 108 l 868 108 q 906 92 890 108 q 922 54 922 76 q 906 15 922 31 q 868 0 890 0 l 108 0 q 70 15 86 0 q 54 54 54 31 q 65 88 54 73 l 756 976 l 108 976 "},"Ľ":{"x_min":54.265625,"x_max":759.609375,"ha":814,"o":"m 54 1030 q 70 1069 54 1053 q 108 1085 86 1085 q 146 1069 130 1085 q 162 1030 162 1053 l 162 108 l 705 108 q 743 92 727 108 q 759 54 759 76 q 743 15 759 31 q 705 0 727 0 l 108 0 q 70 15 86 0 q 54 54 54 31 l 54 1030 m 324 1017 q 344 1065 324 1045 q 392 1085 364 1085 q 453 1045 434 1085 q 496 891 496 969 q 393 649 496 773 q 364 637 381 637 q 336 649 348 637 q 324 677 324 661 q 328 695 324 687 q 330 990 394 855 q 324 1017 324 1002 "},"ť":{"x_min":54.265625,"x_max":659.234375,"ha":705,"o":"m 434 108 q 472 92 456 108 q 488 54 488 76 q 472 15 488 31 q 434 0 456 0 q 162 271 162 0 l 162 651 l 108 651 q 70 667 86 651 q 54 705 54 682 q 70 743 54 727 q 108 759 86 759 l 162 759 l 162 1030 q 178 1069 162 1053 q 217 1085 194 1085 q 255 1069 239 1085 q 271 1030 271 1053 l 271 759 l 380 759 q 418 743 402 759 q 434 705 434 727 q 418 667 434 682 q 380 651 402 651 l 271 651 l 271 271 q 434 108 271 108 m 487 1017 q 507 1065 487 1045 q 555 1085 527 1085 q 616 1045 597 1085 q 659 891 659 969 q 556 649 659 773 q 527 637 544 637 q 499 649 511 637 q 487 677 487 661 q 491 695 487 687 q 493 990 557 855 q 487 1017 487 1002 "},"5":{"x_min":54.265625,"x_max":759.609375,"ha":814,"o":"m 651 1085 q 689 1069 673 1085 q 705 1030 705 1053 q 689 992 705 1008 q 651 976 673 976 l 217 976 l 217 705 l 406 705 q 656 601 552 705 q 759 352 759 498 q 656 103 759 206 q 406 0 552 0 q 157 103 261 0 q 54 352 54 206 q 70 391 54 375 q 108 406 86 406 q 146 391 130 406 q 162 352 162 375 q 234 180 162 251 q 406 108 305 108 q 579 180 507 108 q 651 352 651 251 q 579 525 651 453 q 406 596 507 596 l 162 596 q 124 612 140 596 q 108 651 108 628 l 108 1030 q 124 1069 108 1053 q 162 1085 140 1085 l 651 1085 "}}}
